<svg version="1.1" id="Layer_1" xmlns="http://www.w3.org/2000/svg" xmlns:xlink="http://www.w3.org/1999/xlink" x="0px" y="0px" viewBox="0 0 200 200" style="enable-background:new 0 0 200 200;" xml:space="preserve">
<g>
<path d="M62.4,110.8L47.8,97.7h25c2.1,0,3.6-0.5,5.1-1.8s2.3-2.8,2.3-4.9c0-1.5-0.8-3.1-2.3-4.4s-3.1-1.5-4.9-1.5H45.2v44.8H26.4
		V70.1h48.1c4.1,0,7.7,0.3,10.6,1c2.8,0.5,5.1,1.5,6.9,3.1c1.5,1.3,2.8,3.1,3.9,5.4c0.8,2.3,1.3,5.4,1.3,9c0,7.5-1.5,13.1-4.4,16.7
		s-7.7,5.4-14.7,5.4H62.4z" />
<path d="M102.6,95.4c0-5.7,0-8.5,0-8.5c0-5.4,1.5-9.5,4.9-12.4c3.1-2.8,8-4.1,14.7-4.1c10.3,0,27.5,0,51.5,0v14.7
		c-30.1,0-46.8,0-49.4,0c-1.8,0-3.1,0.3-3.9,1c-0.8,0.5-1.3,1.3-1.3,2.3l-0.5,4.4v14.2l0.3,4.6c0,1,0.5,2.1,1.3,2.6
		c0.8,0.8,2.1,1,3.9,1c2.8,0,19.3,0,49.4,0v14.4c-23.9,0-41.2,0-51.5,0c-6.7,0-11.6-1.5-14.7-4.1c-3.1-2.8-4.9-6.9-4.9-12.4
		c0-0.3,0-3.1,0-8.8L102.6,95.4L102.6,95.4z" />
</g>
</svg>