<svg version="1.1" id="Layer_1" xmlns="http://www.w3.org/2000/svg" xmlns:xlink="http://www.w3.org/1999/xlink" x="0px" y="0px" viewBox="0 0 200 200" style="enable-background:new 0 0 200 200;" xml:space="preserve">
<g>
<path d="M79.8,37.7c7,1.3,13.8,3.2,20.6,5.1c3.9,1.1,7.8,2.3,11.6,3.6c6.1,1.9,12.1,4.1,17.6,7.4c2.5,1.5,4.8,3.2,6.8,5.2
		c2.2,2.1,4,4.7,5.3,7.4c2.4,5,3.2,10.6,3.5,16.1c0.1,3.6,0.1,7.2-0.6,10.7c-0.6,3.1-1.5,6.1-3.2,8.8c-1.5,2.4-3.5,4.4-5.9,5.7
		c-2.4,1.3-5,1.9-7.7,1.8c-4,0-8-1.2-11.6-2.9c-0.1-12.1,0-24.2,0-36.2c0-2.2,0.1-4.4-0.3-6.5c-0.3-1.7-1-3.4-2.3-4.5
		c-0.9-0.8-2-1.2-3.1-1.5c-1.1-0.2-2.4,0.3-3.1,1.2c-1.2,1.5-1.5,3.4-1.5,5.3c0,32.3,0,64.6,0,97c-8.7-2.8-17.4-5.5-26.1-8.3
		C79.8,114.6,79.8,76.1,79.8,37.7L79.8,37.7z M40.7,119.5c11.3-4,22.7-8.1,34-12.1c0,4.5,0,8.9,0,13.4c0,0.6,0,1.2,0,1.8
		c-9,3.2-17.9,6.4-26.9,9.6c-1.2,0.5-2.5,1-3.5,1.9c-0.4,0.4-0.8,1.1-0.6,1.7c0.3,0.8,1.1,1.2,1.8,1.5c2,0.8,4.1,0.9,6.2,1
		c2.3,0,4.7-0.2,7-0.7c1.5-0.3,3-0.8,4.5-1.4c3.8-1.4,7.7-2.8,11.5-4.1c0,3.8,0,7.5,0,11.3c0,0.8,0,1.5,0,2.3
		c-4.7,0.8-9.5,1.4-14.3,1.5c-9.6,0.2-19.3-1.3-28.4-4.3c-3-0.9-6-2-8.5-3.9c-1.4-1.1-2.6-2.4-3.2-4.1c-0.5-1.4-0.5-3,0.2-4.4
		c0.6-1.3,1.7-2.4,3-3.2c2.8-1.9,5.9-3.4,9.1-4.7C35.1,121.4,38,120.5,40.7,119.5L40.7,119.5z" />
<path d="M131.9,114.4c2.6-0.3,5.2-0.4,7.7-0.5c8.5,0,17.1,1.1,25.2,3.6c1.6,0.5,3.1,1.1,4.7,1.6c2.8,1,5.7,2.3,7.9,4.3
		c1.4,1.2,2.5,2.9,2.6,4.8c0.1,1.6-0.6,3.1-1.6,4.2c-1.9,2.2-4.5,3.6-7,4.9c-2.7,1.4-5.6,2.3-8.5,3.3c-17.4,6.2-34.8,12.5-52.1,18.7
		c0-4.9,0-9.7,0-14.6c0-0.2-0.1-0.5,0.2-0.6c13.2-4.7,26.4-9.4,39.7-14.1c1.8-0.7,3.7-1.2,5.2-2.4c0.6-0.5,1.2-1.3,0.9-2.1
		c-0.3-0.7-1.1-1.1-1.8-1.4c-2-0.8-4.1-0.9-6.2-1c-3.3,0-6.6,0.4-9.8,1.5c-9.4,3.3-18.8,6.6-28.2,9.9c0-5.2,0-10.4,0-15.7
		C117.7,116.7,124.8,115.2,131.9,114.4L131.9,114.4z M170.6,150.4c2.1-0.3,4.2,0.7,5.4,2.3c1.3,1.7,1.6,4.2,0.6,6.2
		c-1,2-3.2,3.5-5.4,3.4c-2.1,0-4.1-1.2-5.1-3c-0.9-1.6-1-3.6-0.3-5.3C166.6,152.1,168.5,150.7,170.6,150.4L170.6,150.4z
		 M170.1,151.5c-1.2,0.3-2.2,1-2.9,1.9c-0.8,1.2-1.1,2.6-0.8,4c0.3,1.3,1.1,2.4,2.2,3.1c1.7,1.1,4,1,5.6-0.2
		c1.6-1.2,2.4-3.4,1.9-5.3c-0.3-1.3-1.3-2.4-2.5-3.1C172.5,151.4,171.3,151.2,170.1,151.5L170.1,151.5z" />
<path d="M168.7,152.9c1.1,0,2.1,0,3.2,0c0.6,0,1.3,0.1,1.7,0.6c0.4,0.5,0.5,1.2,0.3,1.8c-0.1,0.4-0.4,0.6-0.7,0.9
		c0.2,0.2,0.5,0.4,0.6,0.7c0.1,0.6,0,1.3,0.2,1.9c0.1,0.2,0.3,0.4,0.3,0.7c-0.4,0-0.9,0-1.3,0c-0.3-0.7-0.1-1.5-0.3-2.2
		c-0.1-0.3-0.4-0.5-0.7-0.5c-0.7,0-1.5,0-2.2,0c0,0.9,0,1.8,0,2.7c-0.4,0-0.8,0-1.1,0C168.7,157.3,168.7,155.1,168.7,152.9
		L168.7,152.9z M169.9,154v1.8c0.6,0,1.3,0,1.9,0c0.3,0,0.7-0.1,0.9-0.3c0.2-0.4,0.2-0.8,0-1.2c-0.2-0.3-0.5-0.3-0.8-0.3
		C171.2,154,170.5,154,169.9,154L169.9,154z" />
</g>
</svg>