<svg version="1.1" id="svg3009" xmlns:cc="http://creativecommons.org/ns#" xmlns:dc="http://purl.org/dc/elements/1.1/" xmlns:inkscape="http://www.inkscape.org/namespaces/inkscape" xmlns:rdf="http://www.w3.org/1999/02/22-rdf-syntax-ns#" xmlns:sodipodi="http://sodipodi.sourceforge.net/DTD/sodipodi-0.dtd" xmlns:svg="http://www.w3.org/2000/svg" xmlns="http://www.w3.org/2000/svg" xmlns:xlink="http://www.w3.org/1999/xlink" x="0px" y="0px" viewBox="0 0 200 200" style="enable-background:new 0 0 200 200;" xml:space="preserve">
<sodipodi:namedview bordercolor="#666666" borderopacity="1" gridtolerance="10" guidetolerance="10" id="namedview3031" inkscape:current-layer="svg3009" inkscape:cx="26.487741" inkscape:cy="13.184416" inkscape:pageopacity="0" inkscape:pageshadow="2" inkscape:window-height="838" inkscape:window-maximized="1" inkscape:window-width="1600" inkscape:window-x="-8" inkscape:window-y="-8" inkscape:zoom="1.4142136" objecttolerance="10" pagecolor="#ffffff" showgrid="false">
</sodipodi:namedview>
<g>
<g>
<path d="M120.5,69.1c-0.4,0.4-0.4,0.8-0.8,1.3c9.2,11.3,39.7,48.4,37.2,73.5c9.2-12.1,15-27.1,15-43.9c0-20.5-8.8-38.8-22.6-51.8
			C138,50.7,126.7,60.7,120.5,69.1z" />
<path d="M62.8,39.4c15-0.4,29.2,6.3,37.6,11.7c8.4-5,22.1-12.1,37.6-11.7l0,0C127.1,32.8,114.2,29,100.4,29
			C86.2,29,73.3,32.8,62.8,39.4C62.4,39.9,62.4,39.9,62.8,39.4z" />
<path d="M107.9,93.3L107.9,93.3c-2.5-2.1-5-4.6-7.9-6.7c-2.9,2.1-5.4,4.6-7.9,6.7l0,0c-18.4,16.3-42.2,38-41.8,58.1
			C63.2,163.5,80.8,171,100,171s36.8-7.5,49.7-20C150.1,130.9,126.3,109.6,107.9,93.3z" />
<path d="M80.8,70.3c-0.4-0.4-0.4-0.8-0.8-1.3c-6.3-8.4-18-18.4-29.2-20.5C36.9,61.2,28.2,79.5,28.2,100c0,16.7,5.8,31.7,15.5,44.3
			C41.1,118.8,71.6,81.6,80.8,70.3z" />
</g>
<g id="g3923" transform="matrix(-1,0,0,1,61.715049,-34.927083)">
</g>
</g>
</svg>