<?xml version="1.0" encoding="iso-8859-1"?>
<!-- Generator: Adobe Illustrator 16.0.0, SVG Export Plug-In . SVG Version: 6.00 Build 0)  -->
<!DOCTYPE svg PUBLIC "-//W3C//DTD SVG 1.1//EN" "http://www.w3.org/Graphics/SVG/1.1/DTD/svg11.dtd">
<svg version="1.1" id="Capa_1" xmlns="http://www.w3.org/2000/svg" xmlns:xlink="http://www.w3.org/1999/xlink" x="0px" y="0px"
	 width="580.108px" height="580.108px" viewBox="0 0 580.108 580.108" style="enable-background:new 0 0 580.108 580.108;"
	 xml:space="preserve">
<g>
	<g>
		<path d="M443.565,221.248c25.648,0,49.835,6.304,71.163,17.381c-11.646-59.878-32.858-109.56-45.38-130.307
			c-19.89-32.962-92.938-54.633-116.696-30.881c-23.758,23.758-91.157,21.383-91.157,21.383s-67.406,2.375-91.157-21.377
			c-23.752-23.751-96.8-2.081-116.696,30.881c-19.89,32.957-61.763,138.967-52.259,242.89
			c9.504,103.924,58.201,70.668,97.987,38.006c39.786-32.663,52.853-61.17,162.125-61.17c12.748,0,24.137,0.404,34.456,1.139
			C315.89,266.665,374.514,221.248,443.565,221.248z"/>
		<path d="M518.683,262.142c-21.549-14.229-47.363-22.534-75.123-22.534c-59.604,0-110.252,38.201-128.888,91.439
			c-4.945,14.125-7.662,29.296-7.662,45.11c0,75.416,61.133,136.549,136.55,136.549c75.416,0,136.549-61.139,136.549-136.549
			C580.114,328.501,555.684,286.573,518.683,262.142z M527.715,397.62c0,3.378-2.741,6.12-6.119,6.12h-12.724h-66.562h-76.781
			c-3.378,0-6.12-2.742-6.12-6.12V354.7c0-3.378,2.742-6.12,6.12-6.12h7.154h148.912c0.073,0,0.134,0.037,0.208,0.043
			c3.28,0.11,5.911,2.767,5.911,6.071V397.62z"/>
	</g>
</g>
<g>
</g>
<g>
</g>
<g>
</g>
<g>
</g>
<g>
</g>
<g>
</g>
<g>
</g>
<g>
</g>
<g>
</g>
<g>
</g>
<g>
</g>
<g>
</g>
<g>
</g>
<g>
</g>
<g>
</g>
</svg>
