<?xml version="1.0" encoding="iso-8859-1"?>
<!-- Generator: Adobe Illustrator 16.0.0, SVG Export Plug-In . SVG Version: 6.00 Build 0)  -->
<!DOCTYPE svg PUBLIC "-//W3C//DTD SVG 1.1//EN" "http://www.w3.org/Graphics/SVG/1.1/DTD/svg11.dtd">
<svg version="1.1" id="Capa_1" xmlns="http://www.w3.org/2000/svg" xmlns:xlink="http://www.w3.org/1999/xlink" x="0px" y="0px"
	 width="568.609px" height="568.609px" viewBox="0 0 568.609 568.609" style="enable-background:new 0 0 568.609 568.609;"
	 xml:space="preserve">
<g>
	<g>
		<path d="M99.521,556.369h128.581c10.141,0,18.36-8.22,18.36-18.36l-0.544-6.156c-25.055-24.015-40.729-57.749-40.729-95.197
			c0-29.088,9.529-55.894,25.471-77.705l-2.062-23.348L246.456,18.36c0-10.141-8.219-18.36-18.36-18.36H99.514
			c-10.141,0-18.36,8.219-18.36,18.36l18.36,314.629l-18.36,205.02C81.161,548.149,89.379,556.369,99.521,556.369z M178.163,38.941
			c0-5.074,4.106-9.18,9.18-9.18c5.074,0,9.18,4.106,9.18,9.18v213.276c0,5.073-4.106,9.18-9.18,9.18c-5.073,0-9.18-4.107-9.18-9.18
			V38.941z M163.811,341.594c18.751,0,33.948,15.202,33.948,33.947c0,18.752-15.202,33.948-33.948,33.948
			c-18.751,0-33.948-15.202-33.948-33.948C129.857,356.79,145.06,341.594,163.811,341.594z"/>
		<path d="M223.542,436.649c0,25.674,7.448,49.548,20.128,69.817c9.811,15.679,22.711,29.229,38.011,39.578
			c18.679,12.631,40.808,20.453,64.634,22.099c3.047,0.208,6.082,0.466,9.18,0.466c72.877,0,131.959-59.083,131.959-131.96
			S428.379,304.69,355.496,304.69c-3.098,0-6.133,0.251-9.18,0.465c-23.832,1.646-45.963,9.474-64.64,22.105
			c-21.635,14.627-38.617,35.545-48.52,60.08C227.012,402.586,223.542,419.201,223.542,436.649z M469.102,436.649
			c0,44.511-25.797,83.018-63.172,101.642c-15.219,7.582-32.307,11.958-50.428,11.958c-3.098,0-6.145-0.221-9.18-0.465
			c-58.35-4.7-104.42-53.593-104.42-113.135c0-59.541,46.064-108.434,104.42-113.134c3.035-0.245,6.082-0.466,9.18-0.466
			c18.121,0,35.201,4.376,50.422,11.953C443.299,353.626,469.102,392.139,469.102,436.649z"/>
		<circle cx="163.811" cy="375.541" r="11.512"/>
		<path d="M270.991,436.649c0,10.6,8.593,19.198,19.199,19.198h130.625c10.6,0,19.199-8.592,19.199-19.198
			c0-10.6-8.594-19.198-19.199-19.198H290.189C279.583,417.457,270.991,426.05,270.991,436.649z"/>
	</g>
</g>
<g>
</g>
<g>
</g>
<g>
</g>
<g>
</g>
<g>
</g>
<g>
</g>
<g>
</g>
<g>
</g>
<g>
</g>
<g>
</g>
<g>
</g>
<g>
</g>
<g>
</g>
<g>
</g>
<g>
</g>
</svg>
