<?xml version="1.0" encoding="iso-8859-1"?>
<!-- Generator: Adobe Illustrator 16.0.0, SVG Export Plug-In . SVG Version: 6.00 Build 0)  -->
<!DOCTYPE svg PUBLIC "-//W3C//DTD SVG 1.1//EN" "http://www.w3.org/Graphics/SVG/1.1/DTD/svg11.dtd">
<svg version="1.1" id="Capa_1" xmlns="http://www.w3.org/2000/svg" xmlns:xlink="http://www.w3.org/1999/xlink" x="0px" y="0px"
	 width="533.052px" height="533.052px" viewBox="0 0 533.052 533.052" style="enable-background:new 0 0 533.052 533.052;"
	 xml:space="preserve">
<g>
	<g>
		<path d="M503.1,211.868c4.364,0,8.538,0.796,12.424,2.191L475.713,18.292C473.658,8.188,463.632,0,453.327,0H79.731
			C69.419,0,59.4,8.188,57.344,18.292L17.521,214.059c3.892-1.395,8.06-2.191,12.423-2.191H503.1L503.1,211.868z M266.526,37.583
			c50.723,0,91.843,22.956,91.843,51.279s-41.12,51.273-91.843,51.273s-91.843-22.956-91.843-51.279
			C174.683,60.533,215.803,37.583,266.526,37.583z"/>
		<path d="M29.951,533.052h473.156c10.312,0,18.666-8.359,18.666-18.666V248.894c0-1.432-0.196-2.809-0.502-4.149
			c-1.892-8.305-9.29-14.517-18.17-14.517H29.951c-8.88,0-16.279,6.212-18.17,14.517c-0.306,1.34-0.502,2.717-0.502,4.149v265.492
			C11.279,524.698,19.639,533.052,29.951,533.052z M466.294,473.296H66.757V296.104h399.538V473.296z"/>
	</g>
</g>
<g>
</g>
<g>
</g>
<g>
</g>
<g>
</g>
<g>
</g>
<g>
</g>
<g>
</g>
<g>
</g>
<g>
</g>
<g>
</g>
<g>
</g>
<g>
</g>
<g>
</g>
<g>
</g>
<g>
</g>
</svg>
