<?xml version="1.0" encoding="iso-8859-1"?>
<!-- Generator: Adobe Illustrator 16.0.0, SVG Export Plug-In . SVG Version: 6.00 Build 0)  -->
<!DOCTYPE svg PUBLIC "-//W3C//DTD SVG 1.1//EN" "http://www.w3.org/Graphics/SVG/1.1/DTD/svg11.dtd">
<svg version="1.1" id="Capa_1" xmlns="http://www.w3.org/2000/svg" xmlns:xlink="http://www.w3.org/1999/xlink" x="0px" y="0px"
	 width="575.287px" height="575.287px" viewBox="0 0 575.287 575.287" style="enable-background:new 0 0 575.287 575.287;"
	 xml:space="preserve">
<g>
	<g>
		<path d="M123.493,162.289c-16.805,0-30.478,13.672-30.478,30.478c0,16.805,13.672,30.471,30.478,30.471
			c16.806,0,30.478-13.666,30.478-30.471C153.971,175.961,140.298,162.289,123.493,162.289z"/>
		<path d="M279.516,186.408c-0.539-2.968-5.991-5.649-9.498-7.313c-5.704,4.859-9.4,11.995-9.4,20.062
			c0,5.557,1.738,10.71,4.682,14.97C264.736,200.809,279.516,186.408,279.516,186.408z"/>
		<path d="M298.727,175.515c-3.531-1.75-7.454-2.821-11.652-2.821s-8.115,1.071-11.64,2.815c6.273,0.336,10.404,3.011,11.396,3.721
			C287.846,178.501,292.185,175.729,298.727,175.515z"/>
		<path d="M286.83,193.012c-13.574,10.483-17.821,19.248-19.149,24.003c4.841,5.25,11.708,8.604,19.4,8.604
			c7.485,0,14.216-3.152,19.033-8.158C304.92,212.81,300.826,203.813,286.83,193.012z"/>
		<path d="M313.537,199.156c0-8.146-3.776-15.349-9.577-20.208c-3.482,1.646-9.254,4.4-9.811,7.46c0,0,15.257,14.847,14.204,28.33
			C311.573,210.356,313.537,205.001,313.537,199.156z"/>
		<path d="M387.92,102.687C361.787,128.813,287.644,126.2,287.644,126.2s-74.144,2.613-100.276-23.519
			c-26.132-26.133-106.482-2.289-128.361,33.966C37.122,172.908-8.932,289.512,1.521,403.834
			c10.453,114.321,64.015,77.735,107.785,41.806c5.686-4.67,10.869-9.254,15.863-13.709v-23.482
			c0-20.569,16.738-37.308,37.308-37.308h233.968c18.513,0,33.923,13.556,36.817,31.261c9.921,4.621,16.854,14.713,16.854,26.242
			v3.293c4.988,4.455,10.178,9.039,15.863,13.709c43.771,35.931,97.332,72.51,107.785-41.806s-35.6-230.927-57.485-267.182
			C494.396,100.398,414.046,76.554,387.92,102.687z M447.712,137.601c13.312,0,24.138,10.827,24.138,24.137
			c0,13.312-10.826,24.138-24.138,24.138c-13.311,0-24.137-10.826-24.137-24.138C423.575,148.428,434.401,137.601,447.712,137.601z
			 M294.345,158.746l-0.514,3.017l0.82-2.962c16.774,3.176,29.963,16.549,32.889,33.293c0.287,1.665-0.826,3.25-2.491,3.537
			c-0.178,0.037-0.354,0.049-0.526,0.049c-1.463,0-2.754-1.047-3.011-2.534c-2.484-14.253-13.709-25.631-27.926-28.323
			c-1.652-0.312-2.9-1.922-2.601-3.574C291.272,159.597,292.692,158.464,294.345,158.746z M280.134,158.679
			c1.677-0.282,3.25,0.838,3.531,2.497c0.288,1.665-0.833,3.25-2.497,3.537c-14.296,2.448-25.722,13.678-28.421,27.938l-3.047-0.349
			l-2.98-0.698C249.908,174.762,263.329,161.561,280.134,158.679z M123.493,235.484c-23.556,0-42.717-19.162-42.717-42.711
			s19.162-42.717,42.717-42.717c23.556,0,42.718,19.167,42.718,42.717S147.049,235.484,123.493,235.484z M206.694,355.199
			c-29.578,0-53.648-24.064-53.648-53.648c0-29.578,24.064-53.648,53.648-53.648s53.648,24.064,53.648,53.648
			C260.342,331.134,236.272,355.199,206.694,355.199z M280.122,239.566c-0.165,0-0.336-0.012-0.502-0.042l0.502-3.017l-0.575,3.005
			c-16.91-3.188-30.11-16.659-32.962-33.525c-0.282-1.665,0.845-3.244,2.509-3.525c1.689-0.306,3.244,0.851,3.531,2.509
			c2.423,14.352,13.66,25.808,27.962,28.507c1.653,0.312,2.797,1.903,2.503,3.55C282.815,238.52,281.566,239.566,280.122,239.566z
			 M254.498,199.156c0-17.968,14.615-32.583,32.583-32.583s32.583,14.621,32.583,32.583c0,17.962-14.614,32.577-32.583,32.577
			S254.498,217.125,254.498,199.156z M293.292,239.713c-1.469,0-2.766-1.065-3.017-2.558c-0.275-1.665,0.851-3.244,2.515-3.519
			c14.4-2.393,25.895-13.635,28.611-27.98c0.312-1.659,1.94-2.962,3.593-2.656c1.652,0.3,2.797,1.671,2.509,3.33
			c0,0.012-0.061,0.33-0.067,0.349c-3.213,16.971-16.72,30.19-33.642,32.999C293.629,239.701,293.458,239.713,293.292,239.713z
			 M352.95,335.994c-23.556,0-42.718-19.161-42.718-42.712c0-23.55,19.162-42.717,42.718-42.717s42.718,19.167,42.718,42.717
			C395.668,316.833,376.512,335.994,352.95,335.994z M405.423,228.165c-13.311,0-24.137-10.826-24.137-24.137
			s10.826-24.137,24.137-24.137c13.312,0,24.138,10.826,24.138,24.137S418.734,228.165,405.423,228.165z M447.712,270.454
			c-13.311,0-24.137-10.826-24.137-24.137s10.826-24.137,24.137-24.137c13.312,0,24.138,10.826,24.138,24.137
			S461.023,270.454,447.712,270.454z M490.001,228.165c-13.311,0-24.137-10.826-24.137-24.137s10.832-24.137,24.137-24.137
			c13.306,0,24.138,10.826,24.138,24.137S503.312,228.165,490.001,228.165z"/>
		<path d="M352.95,262.798c-16.806,0-30.478,13.672-30.478,30.478s13.672,30.472,30.478,30.472s30.478-13.666,30.478-30.472
			S369.756,262.798,352.95,262.798z"/>
		<circle cx="447.712" cy="161.739" r="18.017"/>
		<circle cx="447.712" cy="246.317" r="18.017"/>
		<circle cx="490.001" cy="204.028" r="18.017"/>
		<circle cx="405.423" cy="204.028" r="18.017"/>
		<path d="M206.694,254.022c-26.206,0-47.528,21.322-47.528,47.528s21.322,47.528,47.528,47.528
			c26.206,0,47.528-21.322,47.528-47.528S232.9,254.022,206.694,254.022z M191.388,331.391v3.397
			c-7.901-3.654-14.278-10.025-17.932-17.932h3.396h3.605c2.656,4.528,6.401,8.28,10.937,10.93v3.604H191.388z M191.388,271.709
			v3.604c-4.529,2.656-8.28,6.401-10.937,10.937h-3.604h-3.396c3.653-7.901,10.03-14.278,17.931-17.932v3.391H191.388z M222,334.789
			v-3.397v-3.598c4.529-2.656,8.28-6.402,10.93-10.931h3.605h3.39C236.272,324.757,229.901,331.134,222,334.789z M236.536,286.25
			h-3.605c-2.656-4.529-6.401-8.28-10.93-10.937v-3.604v-3.391c7.901,3.654,14.278,10.031,17.932,17.932H236.536z"/>
		<path d="M429.891,414.483c-2.454-1.512-5.294-2.454-8.378-2.521v-3.52c0-0.085-0.024-0.158-0.024-0.244
			c-0.135-13.733-11.279-24.829-25.043-24.829h-38.96H217.802h-55.325c-13.844,0-25.068,11.224-25.068,25.067v12.669v37.479
			c0,13.844,11.224,25.067,25.068,25.067h233.968c13.843,0,25.067-11.224,25.067-25.067v-3.519
			c9.063-0.19,16.364-7.564,16.364-16.678v-9.749c0-4.388-1.72-8.348-4.491-11.322C432.234,416.362,431.065,415.419,429.891,414.483
			z M319.981,452.836c1.114,1.114,1.114,2.92,0,4.033l-13.801,13.801c-1.113,1.114-2.919,1.114-4.026,0l-15.967-15.967
			L270.22,470.67c-1.114,1.114-2.919,1.114-4.033,0l-13.801-13.801c-1.114-1.113-1.114-2.919,0-4.033l15.967-15.967l-15.967-15.967
			c-1.114-1.114-1.114-2.919,0-4.033l13.801-13.801c1.114-1.113,2.919-1.113,4.033,0l15.967,15.967l15.967-15.967
			c1.113-1.113,2.919-1.113,4.026,0l13.801,13.801c1.114,1.114,1.114,2.919,0,4.033l-15.967,15.967L319.981,452.836z"/>
	</g>
</g>
<g>
</g>
<g>
</g>
<g>
</g>
<g>
</g>
<g>
</g>
<g>
</g>
<g>
</g>
<g>
</g>
<g>
</g>
<g>
</g>
<g>
</g>
<g>
</g>
<g>
</g>
<g>
</g>
<g>
</g>
</svg>
