<?xml version="1.0" encoding="iso-8859-1"?>
<!-- Generator: Adobe Illustrator 16.0.0, SVG Export Plug-In . SVG Version: 6.00 Build 0)  -->
<!DOCTYPE svg PUBLIC "-//W3C//DTD SVG 1.1//EN" "http://www.w3.org/Graphics/SVG/1.1/DTD/svg11.dtd">
<svg version="1.1" id="Capa_1" xmlns="http://www.w3.org/2000/svg" xmlns:xlink="http://www.w3.org/1999/xlink" x="0px" y="0px"
	 width="567.123px" height="567.123px" viewBox="0 0 567.123 567.123" style="enable-background:new 0 0 567.123 567.123;"
	 xml:space="preserve">
<g>
	<g>
		<path d="M18.36,436.562h530.401c10.141,0,18.361-8.219,18.361-18.36v-269.28c0-10.141-8.221-18.36-18.361-18.36H18.36
			c-10.141,0-18.36,8.219-18.36,18.36v269.28C0,428.343,8.219,436.562,18.36,436.562z M530.5,243.978
			c10.453,0,18.918,8.47,18.918,18.923s-8.471,18.923-18.918,18.923s-18.924-8.47-18.924-18.923S520.053,243.978,530.5,243.978z
			 M487.25,287.228c10.453,0,18.924,8.47,18.924,18.923c0,10.447-8.471,18.923-18.924,18.923s-18.924-8.47-18.924-18.923
			S476.803,287.228,487.25,287.228z M115.258,170.746c0-9.67,8.274-17.503,18.476-17.503h299.654
			c10.201,0,18.475,7.84,18.475,17.503v225.632c0,9.669-8.273,17.503-18.475,17.503H133.734c-10.202,0-18.476-7.84-18.476-17.503
			V170.746z M22.057,276.48c0-2.301,1.867-4.167,4.167-4.167h24.162v-24.168c0-2.301,1.867-4.167,4.167-4.167h14.168
			c2.301,0,4.167,1.866,4.167,4.167v24.168h24.168c2.301,0,4.168,1.867,4.168,4.167v14.168c0,2.301-1.867,4.168-4.168,4.168H72.889
			v24.168c0,2.301-1.866,4.167-4.167,4.167H54.554c-2.301,0-4.167-1.866-4.167-4.167v-24.168H26.218
			c-2.301,0-4.168-1.867-4.168-4.168V276.48H22.057z"/>
	</g>
</g>
<g>
</g>
<g>
</g>
<g>
</g>
<g>
</g>
<g>
</g>
<g>
</g>
<g>
</g>
<g>
</g>
<g>
</g>
<g>
</g>
<g>
</g>
<g>
</g>
<g>
</g>
<g>
</g>
<g>
</g>
</svg>
