<?xml version="1.0" encoding="iso-8859-1"?>
<!-- Generator: Adobe Illustrator 16.0.0, SVG Export Plug-In . SVG Version: 6.00 Build 0)  -->
<!DOCTYPE svg PUBLIC "-//W3C//DTD SVG 1.1//EN" "http://www.w3.org/Graphics/SVG/1.1/DTD/svg11.dtd">
<svg version="1.1" id="Capa_1" xmlns="http://www.w3.org/2000/svg" xmlns:xlink="http://www.w3.org/1999/xlink" x="0px" y="0px"
	 width="574.729px" height="574.729px" viewBox="0 0 574.729 574.729" style="enable-background:new 0 0 574.729 574.729;"
	 xml:space="preserve">
<g>
	<g>
		<path d="M102.574,556.369h128.581c9.994,0,18.09-7.999,18.317-17.944c-25.343-24.045-41.23-57.962-41.23-95.655
			c0-29.382,9.719-56.427,25.955-78.354l-2.546-28.825l17.864-317.23c0-10.141-8.219-18.36-18.36-18.36H102.574
			c-10.141,0-18.36,8.219-18.36,18.36l18.36,314.629l-18.36,205.02C84.214,548.149,92.433,556.369,102.574,556.369z M181.222,38.941
			c0-5.074,4.106-9.18,9.18-9.18c5.073,0,9.18,4.106,9.18,9.18v213.276c0,5.073-4.106,9.18-9.18,9.18c-5.074,0-9.18-4.107-9.18-9.18
			V38.941z M166.865,341.594c18.751,0,33.947,15.202,33.947,33.947c0,18.752-15.202,33.948-33.947,33.948
			s-33.948-15.202-33.948-33.948C132.917,356.79,148.113,341.594,166.865,341.594z"/>
		<path d="M227.122,432.396c-0.318,3.421-0.52,6.872-0.52,10.373c0,26.107,7.681,50.374,20.759,70.857
			c9.737,15.245,22.418,28.421,37.381,38.537c18.679,12.626,40.802,20.453,64.634,22.1c3.047,0.215,6.082,0.465,9.18,0.465
			c72.877,0,131.959-59.082,131.959-131.959s-59.076-131.959-131.959-131.959c-3.098,0-6.133,0.25-9.18,0.465
			c-23.832,1.646-45.955,9.474-64.64,22.1c-21.291,14.394-38.121,34.859-48.085,58.893
			C231.461,404.789,228.23,418.289,227.122,432.396z M358.556,329.176c18.121,0,35.201,4.376,50.416,11.953
			c37.381,18.617,63.184,57.13,63.184,101.646c0,44.518-25.803,83.024-63.178,101.642c-15.215,7.576-32.295,11.952-50.422,11.952
			c-3.098,0-6.145-0.221-9.18-0.465c-58.35-4.7-104.42-53.594-104.42-113.135s46.065-108.435,104.42-113.135
			C352.417,329.396,355.458,329.176,358.556,329.176z"/>
		<circle cx="166.865" cy="375.541" r="11.512"/>
		<path d="M376.241,526.313c12.521-2.516,23.979-7.9,33.783-15.354c-2.51-5.245-5.766-9.982-9.664-14.119
			C394.278,510.341,385.925,520.714,376.241,526.313z"/>
		<path d="M402.944,490.573c4.834,4.688,8.904,10.195,12.025,16.328c16.744-14.872,27.436-36.341,27.969-60.368h-32.154
			C410.581,462.696,407.729,477.752,402.944,490.573z"/>
		<path d="M410.71,440.413h32.105c-1.205-23.721-12.258-44.816-29.242-59.235c-3.139,5.502-7.098,10.453-11.701,14.743
			C407.075,408.699,410.233,423.963,410.71,440.413z"/>
		<path d="M350.563,411.82c-10.467-1.566-20.062-5.734-28.141-11.86c-4.406,11.677-7.088,25.539-7.533,40.453h35.674V411.82z"/>
		<path d="M319.087,496.76c-3.916,4.174-7.191,8.936-9.688,14.156c9.816,7.473,21.291,12.876,33.844,15.397
			C333.542,520.701,325.177,510.298,319.087,496.76z"/>
		<path d="M321.388,486.356c8.281-6.555,18.264-11.004,29.176-12.632v-27.191h-35.742
			C315.011,461.099,317.392,474.691,321.388,486.356z"/>
		<path d="M324.853,394.146c7.295,5.862,16.096,9.89,25.711,11.487v-39.505C340.269,369.96,331.261,380.089,324.853,394.146z"/>
		<path d="M398.103,486.35c3.996-11.664,6.377-25.251,6.566-39.816h-47.986v26.592c1.021-0.049,2.025-0.153,3.061-0.153
			C373.954,472.966,387.386,477.904,398.103,486.35z"/>
		<path d="M397.069,399.96c-10.398,7.883-23.299,12.619-37.326,12.619c-1.035,0-2.039-0.104-3.061-0.152v27.992h47.914
			C404.155,425.499,401.476,411.631,397.069,399.96z"/>
		<path d="M394.64,394.146c-8.256-18.104-20.828-29.707-34.896-29.707c-1.035,0-2.045,0.153-3.061,0.275v41.586
			c1.021,0.055,2.025,0.152,3.061,0.152C372.944,406.453,385.067,401.827,394.64,394.146z"/>
		<path d="M350.563,479.905c-10.148,1.689-19.377,6.084-26.898,12.467c8.201,19.688,21.297,32.528,36.078,32.528
			c14.748,0,27.82-12.785,36.027-32.412c-9.896-8.378-22.533-13.409-36.027-13.409c-1.035,0-2.039,0.099-3.061,0.153v30.361h-6.119
			V479.905z"/>
		<path d="M304.54,506.926c3.104-6.09,7.154-11.61,12.008-16.335c-4.793-12.821-7.639-27.882-7.846-44.058h-32.161
			C277.08,470.572,287.784,492.054,304.54,506.926z"/>
		<path d="M317.612,395.921c-4.607-4.284-8.568-9.241-11.701-14.743c-16.983,14.413-28.036,35.515-29.242,59.235h32.113
			C309.253,423.963,312.417,408.699,317.612,395.921z"/>
		<path d="M399.265,390.027c3.715-3.727,6.904-7.975,9.457-12.619c-9.518-6.94-20.51-11.971-32.473-14.376
			C385.337,368.295,393.292,377.714,399.265,390.027z"/>
		<path d="M343.243,363.032c-11.971,2.405-22.957,7.436-32.473,14.376c2.553,4.645,5.74,8.893,9.455,12.619
			C326.192,377.714,334.149,368.295,343.243,363.032z"/>
	</g>
</g>
<g>
</g>
<g>
</g>
<g>
</g>
<g>
</g>
<g>
</g>
<g>
</g>
<g>
</g>
<g>
</g>
<g>
</g>
<g>
</g>
<g>
</g>
<g>
</g>
<g>
</g>
<g>
</g>
<g>
</g>
</svg>
