<?xml version="1.0" encoding="iso-8859-1"?>
<!-- Generator: Adobe Illustrator 16.0.0, SVG Export Plug-In . SVG Version: 6.00 Build 0)  -->
<!DOCTYPE svg PUBLIC "-//W3C//DTD SVG 1.1//EN" "http://www.w3.org/Graphics/SVG/1.1/DTD/svg11.dtd">
<svg version="1.1" id="Capa_1" xmlns="http://www.w3.org/2000/svg" xmlns:xlink="http://www.w3.org/1999/xlink" x="0px" y="0px"
	 width="569.404px" height="569.404px" viewBox="0 0 569.404 569.404" style="enable-background:new 0 0 569.404 569.404;"
	 xml:space="preserve">
<g>
	<g>
		<path d="M8.158,465.346h72.516V114.272l-74.486-0.061c-0.073-0.012-0.526-0.073-1.157-0.073c-4.18,0-5.031,2.032-5.031,5.08
			v337.977C0.037,459.074,0.716,465.346,8.158,465.346z"/>
		<path d="M569.404,457.152V119.218c0-3.048-0.855-5.08-5.029-5.08c-0.631,0-1.084,0.055-1.193,0.073l-0.76,0.061H488.73V465.34
			h72.516C568.689,465.346,569.369,459.074,569.404,457.152z"/>
		<path d="M106.874,343.332c0-11.915,9.694-21.609,21.61-21.609h120.999h70.442h121.004c11.916,0,21.609,9.694,21.609,21.609
			v122.015h17.02V114.279v-4.59c0-4.113-1.053-5.569-1.438-5.631l-15.576,0.006v127.119c0,11.916-9.693,21.604-21.609,21.604
			H128.478c-11.916,0-21.61-9.688-21.61-21.604V104.064H91.421c-0.367,0.024-1.567,1.163-1.567,5.618v4.59V465.34h17.02V343.332z"/>
		<path d="M128.478,243.613h312.45c6.854,0,12.43-5.575,12.43-12.424V104.064H116.054v127.119
			C116.054,238.038,121.629,243.613,128.478,243.613z"/>
		<path d="M453.352,343.332c0-6.854-5.576-12.43-12.43-12.43H319.924v79.817c0,2.534-2.057,4.59-4.59,4.59
			c-2.535,0-4.592-2.056-4.592-4.59l0,0v-79.817h-52.08v79.817l0,0c0,2.534-2.057,4.59-4.59,4.59s-4.59-2.056-4.59-4.59v-79.817
			H128.478c-6.854,0-12.43,5.576-12.43,12.43v122.015h337.304V343.332z"/>
	</g>
</g>
<g>
</g>
<g>
</g>
<g>
</g>
<g>
</g>
<g>
</g>
<g>
</g>
<g>
</g>
<g>
</g>
<g>
</g>
<g>
</g>
<g>
</g>
<g>
</g>
<g>
</g>
<g>
</g>
<g>
</g>
</svg>
