<?xml version="1.0" encoding="iso-8859-1"?>
<!-- Generator: Adobe Illustrator 16.0.0, SVG Export Plug-In . SVG Version: 6.00 Build 0)  -->
<!DOCTYPE svg PUBLIC "-//W3C//DTD SVG 1.1//EN" "http://www.w3.org/Graphics/SVG/1.1/DTD/svg11.dtd">
<svg version="1.1" id="Capa_1" xmlns="http://www.w3.org/2000/svg" xmlns:xlink="http://www.w3.org/1999/xlink" x="0px" y="0px"
	 width="583.576px" height="583.576px" viewBox="0 0 583.576 583.576" style="enable-background:new 0 0 583.576 583.576;"
	 xml:space="preserve">
<g>
	<g>
		<path d="M465.89,185.745c-16.83,0-30.521,13.69-30.521,30.521s13.69,30.521,30.521,30.521s30.521-13.69,30.521-30.521
			S482.72,185.745,465.89,185.745z"/>
		<path d="M220.649,298.86h-28.691v-28.69c0-0.753-0.612-1.365-1.358-1.365h-15.025c-0.752,0-1.358,0.612-1.358,1.365v28.69h-28.69
			c-0.753,0-1.359,0.612-1.359,1.358v15.025c0,0.746,0.612,1.358,1.359,1.358h28.696v28.69c0,0.753,0.612,1.365,1.359,1.365h15.024
			c0.753,0,1.359-0.612,1.359-1.365v-28.69h28.69c0.753,0,1.359-0.612,1.359-1.358v-15.025
			C222.007,299.473,221.401,298.86,220.649,298.86z"/>
		<circle cx="242.968" cy="237.912" r="8.874"/>
		<circle cx="340.619" cy="237.912" r="8.874"/>
		<circle cx="364.034" cy="309.277" r="14.174"/>
		<path d="M118.139,185.745c-16.83,0-30.521,13.69-30.521,30.521s13.69,30.521,30.521,30.521s30.521-13.69,30.521-30.521
			S134.969,185.745,118.139,185.745z"/>
		<circle cx="291.793" cy="307.729" r="10.637"/>
		<path d="M508.969,125.237c-0.44-11.928-15.024-16.347-15.024-16.347c-6.628-5.747-22.094-13.256-22.094-13.256
			c-2.649-2.87-3.091-9.945-3.091-9.945c-16.126-16.573-34.247,0-34.247,0v10.386c0,0-2.65,0-43.306,17.234
			c-40.648,17.234-99.419,16.347-99.419,16.347s-58.771,0.881-99.419-16.347c-40.649-17.234-43.305-17.234-43.305-17.234V85.689
			c0,0-18.115-16.573-34.248,0c0,0-0.44,7.069-3.09,9.945c0,0-15.465,7.509-22.093,13.256c0,0-14.584,4.418-15.025,16.347
			c0,0-60.312,67.607-73.568,270.865c-13.256,203.264,104.285,64.517,129.909,42.424c25.631-22.094,52.143-48.605,160.84-48.605
			c108.698,0,135.209,26.512,160.84,48.605c25.631,22.093,143.165,160.84,129.909-42.418
			C569.287,192.844,508.969,125.237,508.969,125.237z M401.373,251.645c11.193,0,20.294,9.101,20.294,20.288
			c0,11.193-9.101,20.294-20.294,20.294s-20.294-9.094-20.294-20.288C381.079,260.746,390.186,251.645,401.373,251.645z
			 M331.048,154.289c0.104-0.257,0.422-0.612,0.648-0.618c2.754-0.043,5.515-0.025,8.274-0.025c0.606,0,0.618,0.404,0.618,0.838
			c0,2.13,0,4.26,0,6.39c-0.006,0-0.006,0-0.012,0c0,2.05,0.061,4.1-0.019,6.145c-0.08,2.038-0.888,3.715-2.853,4.614
			c-2.747,1.249-6.064-0.471-6.536-3.452c-0.208-1.31-0.195-2.662-0.208-3.99c-0.03-2.95-0.012-5.894-0.006-8.843
			C330.962,154.992,330.919,154.601,331.048,154.289z M303.324,153.548c2.424-0.024,4.419,1.824,4.425,4.113
			c0.006,2.332-1.891,4.137-4.363,4.155c-2.399,0.012-4.34-1.812-4.352-4.082C299.021,155.488,300.986,153.572,303.324,153.548z
			 M307.106,189.882c0.006,0.734-0.202,1.016-0.973,0.998c-1.806-0.049-3.605-0.037-5.41,0c-0.686,0.012-0.985-0.178-0.979-0.918
			c0.019-7.516,0.012-15.031,0-22.54c0-0.637,0.227-0.875,0.863-0.869c1.885,0.024,3.77,0.031,5.654,0
			c0.661-0.012,0.845,0.257,0.839,0.875c-0.019,3.77-0.007,7.54-0.007,11.31C307.094,182.453,307.082,186.167,307.106,189.882z
			 M287.926,153.542c2.338,0.019,4.352,1.94,4.352,4.149c0,2.277-2.007,4.144-4.437,4.125c-2.448-0.019-4.345-1.867-4.309-4.205
			C283.568,155.353,285.551,153.517,287.926,153.542z M291.604,189.95c0,0.734-0.263,0.942-0.961,0.93
			c-1.83-0.037-3.66-0.037-5.49,0c-0.722,0.012-0.948-0.251-0.942-0.955c0.024-3.74,0.012-7.485,0.012-11.224
			c0-3.66,0-7.32,0-10.979c0-1.163,0.006-1.163,1.2-1.163c1.72-0.006,3.439,0.018,5.159-0.019c0.716-0.012,1.022,0.171,1.022,0.961
			C291.58,174.98,291.58,182.465,291.604,189.95z M118.139,252.906c-20.202,0-36.641-16.438-36.641-36.64
			s16.438-36.641,36.641-36.641s36.641,16.438,36.641,36.641S138.341,252.906,118.139,252.906z M228.127,315.244
			c0,4.125-3.354,7.479-7.479,7.479h-22.571v22.57c0,4.125-3.354,7.484-7.479,7.484h-15.025c-4.125,0-7.479-3.359-7.479-7.484
			v-22.57h-22.57c-4.125,0-7.479-3.354-7.479-7.479v-15.025c0-4.124,3.354-7.478,7.479-7.478h22.577V270.17
			c0-4.125,3.354-7.485,7.479-7.485h15.024c4.125,0,7.479,3.36,7.479,7.485v22.571h22.57c4.125,0,7.479,3.354,7.479,7.478v15.025
			H228.127z M242.968,252.906c-8.268,0-14.994-6.732-14.994-14.994c0-8.262,6.726-14.988,14.994-14.988s14.988,6.726,14.988,14.988
			C257.956,246.174,251.23,252.906,242.968,252.906z M269.26,189.662c-2.344,2.271-6.267,1.928-7.968-0.863
			c-0.74-1.211-1.224-2.619-1.609-4.002c-1.628-5.753-3.183-11.536-4.761-17.301c-0.11-0.404-0.257-0.795-0.392-1.193
			c-0.092-0.006-0.184-0.012-0.275-0.018c-0.122,0.293-0.275,0.581-0.361,0.887c-1.732,6.267-3.439,12.54-5.19,18.801
			c-0.257,0.912-0.612,1.83-1.114,2.625c-2.025,3.244-6.408,3.458-8.696,0.385c-0.686-0.918-1.188-2.044-1.506-3.152
			c-2.748-9.639-5.44-19.302-8.139-28.954c-0.349-1.254-0.331-1.261,1.01-1.261c1.83,0,3.66,0.019,5.489-0.018
			c0.667-0.012,0.961,0.227,1.126,0.881c1.989,7.895,4.002,15.784,6.01,23.672c0.104,0.41,0.239,0.814,0.361,1.224
			c0.092,0.019,0.184,0.037,0.275,0.049c0.123-0.281,0.288-0.557,0.367-0.851c1.854-6.995,3.697-13.997,5.551-20.998
			c0.447-1.702,1.212-3.244,2.993-3.85c2.687-0.912,5.453-0.202,6.457,2.742c0.9,2.632,1.555,5.349,2.265,8.042
			c1.249,4.7,2.454,9.413,3.684,14.113c0.074,0.275,0.214,0.526,0.533,0.802c0.128-0.306,0.3-0.594,0.379-0.912
			c2.02-7.914,4.033-15.833,6.041-23.752c0.293-1.15,0.281-1.15,1.475-1.15c1.885,0,3.77,0.012,5.655-0.012
			c0.667-0.006,0.869,0.171,0.673,0.869c-1.15,4.076-2.252,8.164-3.396,12.24c-1.604,5.704-3.231,11.408-4.841,17.111
			C270.949,187.269,270.361,188.597,269.26,189.662z M291.793,324.485c-9.241,0-16.756-7.521-16.756-16.757
			s7.521-16.756,16.756-16.756c9.236,0,16.757,7.521,16.757,16.756S301.029,324.485,291.793,324.485z M291.793,254.668
			c-9.241,0-16.756-7.521-16.756-16.756c0-9.235,7.521-16.757,16.756-16.757c9.236,0,16.757,7.521,16.757,16.757
			C308.551,247.147,301.029,254.668,291.793,254.668z M321.721,181.327c-2.741-0.576-4.418-2.528-4.596-5.337
			c-0.086-1.389-0.043-2.785-0.049-4.174c-0.019-4.425-0.007-8.85-0.056-13.274c-0.03-3.005,1.72-4.859,4.707-4.89
			c1.064-0.012,2.136,0.037,3.194-0.019c0.802-0.037,1.034,0.288,1.034,1.053c-0.024,4.21-0.03,8.415,0,12.625
			c0.019,2.179,0.594,4.205,1.897,5.992c1.462,2.007,3.537,2.956,5.899,3.335c2.692,0.435,5.324,0.153,7.687-1.273
			c2.693-1.628,3.966-4.223,4.076-7.271c0.146-4.37,0.086-8.74,0.11-13.115c0.006-1.334,0.006-1.353,1.364-1.334
			c1.365,0.025,2.742-0.03,4.082,0.171c2.032,0.312,3.421,1.965,3.434,4.002c0.03,5.931,0.055,11.861-0.006,17.791
			c-0.037,3.427-2.454,5.814-5.985,5.887c-4.26,0.086-8.525,0.019-12.791,0.019c0,0.012,0,0.024,0,0.031
			c-3.745,0-7.484,0.012-11.23-0.012C323.563,181.541,322.621,181.516,321.721,181.327z M325.626,237.912
			c0-8.268,6.726-14.988,14.987-14.988s14.994,6.726,14.994,14.988c0,8.262-6.726,14.994-14.994,14.994
			C332.346,252.906,325.626,246.18,325.626,237.912z M364.034,329.57c-11.193,0-20.293-9.1-20.293-20.287
			c0-11.193,9.1-20.293,20.294-20.293c11.193,0,20.294,9.1,20.294,20.293C384.328,320.464,375.229,329.57,364.034,329.57z
			 M401.373,366.902c-11.193,0-20.294-9.1-20.294-20.287s9.101-20.288,20.294-20.288s20.294,9.101,20.294,20.288
			S412.566,366.902,401.373,366.902z M438.711,329.57c-11.193,0-20.294-9.1-20.294-20.287c0-11.193,9.101-20.293,20.294-20.293
			s20.294,9.1,20.294,20.293C459.005,320.464,449.904,329.57,438.711,329.57z M465.89,252.906c-20.202,0-36.641-16.438-36.641-36.64
			s16.438-36.641,36.641-36.641s36.641,16.438,36.641,36.641S486.092,252.906,465.89,252.906z"/>
		<circle cx="291.793" cy="237.912" r="10.636"/>
		<circle cx="401.373" cy="346.615" r="14.168"/>
		<circle cx="438.711" cy="309.277" r="14.174"/>
		<circle cx="401.373" cy="271.939" r="14.174"/>
	</g>
</g>
<g>
</g>
<g>
</g>
<g>
</g>
<g>
</g>
<g>
</g>
<g>
</g>
<g>
</g>
<g>
</g>
<g>
</g>
<g>
</g>
<g>
</g>
<g>
</g>
<g>
</g>
<g>
</g>
<g>
</g>
</svg>
