<?xml version="1.0" encoding="iso-8859-1"?>
<!-- Generator: Adobe Illustrator 16.0.0, SVG Export Plug-In . SVG Version: 6.00 Build 0)  -->
<!DOCTYPE svg PUBLIC "-//W3C//DTD SVG 1.1//EN" "http://www.w3.org/Graphics/SVG/1.1/DTD/svg11.dtd">
<svg version="1.1" id="Capa_1" xmlns="http://www.w3.org/2000/svg" xmlns:xlink="http://www.w3.org/1999/xlink" x="0px" y="0px"
	 width="583.57px" height="583.571px" viewBox="0 0 583.57 583.571" style="enable-background:new 0 0 583.57 583.571;"
	 xml:space="preserve">
<g>
	<g>
		<circle cx="364.034" cy="309.267" r="14.174"/>
		<circle cx="340.619" cy="237.907" r="8.874"/>
		<circle cx="291.788" cy="307.724" r="10.637"/>
		<circle cx="242.956" cy="237.907" r="8.874"/>
		<path d="M465.884,185.734c-16.83,0-30.521,13.69-30.521,30.521s13.69,30.521,30.521,30.521s30.521-13.69,30.521-30.521
			S482.714,185.734,465.884,185.734z"/>
		<path d="M401.373,332.437c-7.815,0-14.174,6.358-14.174,14.168c0,7.815,6.358,14.174,14.174,14.174
			c7.809,0,14.168-6.358,14.168-14.174C415.547,338.795,409.188,332.437,401.373,332.437z"/>
		<circle cx="438.711" cy="309.267" r="14.174"/>
		<path d="M118.133,185.734c-16.83,0-30.521,13.69-30.521,30.521s13.69,30.521,30.521,30.521c16.83,0,30.52-13.69,30.52-30.521
			S134.962,185.734,118.133,185.734z"/>
		<circle cx="401.373" cy="271.935" r="14.174"/>
		<circle cx="291.788" cy="237.914" r="10.637"/>
		<path d="M508.969,125.232c-0.44-11.928-15.024-16.346-15.024-16.346c-6.628-5.747-22.094-13.256-22.094-13.256
			c-2.649-2.87-3.091-9.945-3.091-9.945c-16.126-16.573-34.247,0-34.247,0V96.07c0,0-2.65,0-43.306,17.234
			s-99.419,16.347-99.419,16.347s-58.771,0.881-99.419-16.347S149.063,96.07,149.063,96.07V85.685c0,0-18.115-16.573-34.248,0
			c0,0-0.44,7.069-3.09,9.945c0,0-15.465,7.51-22.093,13.256c0,0-14.584,4.418-15.025,16.346c0,0-60.312,67.608-73.568,270.865
			c-13.256,203.258,104.285,64.511,129.909,42.418c0.802-0.691,1.604-1.384,2.411-2.081v-8.672
			c0-20.569,16.738-37.308,37.308-37.308h95.87c7.907-0.343,16.273-0.545,25.251-0.545s17.351,0.196,25.251,0.545h87.59
			c18.513,0,33.923,13.556,36.817,31.261c8.587,4.003,14.921,12.105,16.469,21.689c33.409,32.026,137.113,144.285,124.616-47.308
			C569.281,192.84,508.969,125.232,508.969,125.232z M401.373,251.641c11.188,0,20.287,9.101,20.287,20.294
			c0,11.188-9.1,20.288-20.287,20.288c-11.193,0-20.294-9.1-20.294-20.288C381.079,260.741,390.18,251.641,401.373,251.641z
			 M331.048,154.284c0.104-0.257,0.422-0.612,0.648-0.618c2.754-0.043,5.515-0.024,8.274-0.024c0.606,0,0.618,0.404,0.618,0.838
			c0,2.13,0,4.26,0,6.389c-0.006,0-0.006,0-0.012,0c0,2.05,0.061,4.101-0.019,6.145c-0.08,2.038-0.888,3.715-2.846,4.615
			c-2.748,1.249-6.065-0.471-6.536-3.452c-0.208-1.31-0.196-2.662-0.208-3.997c-0.024-2.95-0.013-5.894-0.007-8.843
			C330.956,154.981,330.919,154.596,331.048,154.284z M303.324,153.543c2.424-0.025,4.419,1.823,4.425,4.112
			c0.006,2.332-1.897,4.137-4.363,4.156c-2.399,0.012-4.333-1.806-4.352-4.082C299.021,155.483,300.98,153.568,303.324,153.543z
			 M307.106,189.877c0.006,0.734-0.202,1.016-0.973,0.998c-1.8-0.049-3.605-0.037-5.41,0c-0.686,0.012-0.985-0.178-0.979-0.918
			c0.019-7.515,0.012-15.031,0-22.54c0-0.637,0.227-0.875,0.863-0.869c1.885,0.024,3.77,0.03,5.654,0
			c0.661-0.012,0.845,0.257,0.845,0.875c-0.024,3.764-0.019,7.534-0.019,11.31C307.088,182.448,307.076,186.163,307.106,189.877z
			 M287.92,153.537c2.344,0.019,4.352,1.94,4.352,4.149c0,2.276-2.008,4.143-4.438,4.125c-2.448-0.019-4.345-1.867-4.309-4.211
			C283.562,155.349,285.545,153.513,287.92,153.537z M291.598,167.497c-0.024,7.485-0.018,14.964,0,22.448
			c0,0.734-0.263,0.942-0.96,0.931c-1.83-0.037-3.66-0.037-5.49,0c-0.722,0.012-0.949-0.251-0.942-0.955
			c0.024-3.739,0.012-7.485,0.012-11.224c0-3.66,0-7.319,0-10.979c0-1.163,0.006-1.163,1.199-1.163c1.72,0,3.439,0.019,5.159-0.018
			C291.292,166.518,291.604,166.708,291.598,167.497z M291.788,221.151c9.242,0,16.757,7.521,16.757,16.756
			c0,9.235-7.516,16.763-16.757,16.763c-9.241,0-16.756-7.521-16.756-16.756C275.031,228.678,282.546,221.151,291.788,221.151z
			 M118.133,252.901c-20.208,0-36.641-16.438-36.641-36.64c0-20.202,16.438-36.641,36.641-36.641
			c20.202,0,36.64,16.438,36.64,36.641C154.773,236.463,138.341,252.901,118.133,252.901z M228.127,315.233
			c0,4.125-3.354,7.479-7.479,7.479h-22.571v22.57c0,4.125-3.36,7.479-7.485,7.479h-15.024c-4.125,0-7.479-3.354-7.479-7.479v-22.57
			H145.52c-4.125,0-7.479-3.354-7.479-7.479v-15.024c0-4.125,3.354-7.479,7.479-7.479h22.571v-22.57
			c0-4.125,3.354-7.484,7.479-7.484h15.024c4.125,0,7.485,3.36,7.485,7.484v22.57h22.571c4.125,0,7.479,3.354,7.479,7.479V315.233z
			 M227.968,237.914c0-8.268,6.726-14.994,14.988-14.994s14.994,6.732,14.994,14.994c0,8.262-6.732,14.988-14.994,14.988
			S227.968,246.175,227.968,237.914z M259.737,372.339c0,1.163-0.943,2.099-2.099,2.099h-5.606c-1.157,0-2.099-0.942-2.099-2.099
			v-5.6c0-1.163,0.942-2.1,2.099-2.1h5.606c1.156,0,2.099,0.942,2.099,2.1V372.339z M269.26,189.657
			c-2.344,2.271-6.267,1.928-7.968-0.863c-0.74-1.212-1.224-2.619-1.616-4.002c-1.628-5.759-3.182-11.536-4.761-17.307
			c-0.11-0.404-0.257-0.796-0.392-1.194c-0.092-0.006-0.184-0.012-0.275-0.024c-0.123,0.294-0.275,0.582-0.361,0.888
			c-1.732,6.267-3.439,12.54-5.189,18.8c-0.257,0.912-0.618,1.83-1.114,2.625c-2.026,3.244-6.402,3.458-8.697,0.386
			c-0.686-0.918-1.187-2.044-1.505-3.152c-2.748-9.639-5.441-19.296-8.14-28.954c-0.349-1.254-0.331-1.261,1.01-1.261
			c1.83,0,3.666,0.018,5.49-0.019c0.667-0.012,0.967,0.227,1.132,0.881c1.989,7.895,4.002,15.784,6.01,23.672
			c0.104,0.41,0.239,0.814,0.361,1.224c0.092,0.018,0.184,0.037,0.275,0.049c0.128-0.282,0.288-0.557,0.367-0.857
			c1.854-6.995,3.697-13.997,5.551-20.998c0.447-1.702,1.212-3.244,2.987-3.85c2.687-0.912,5.453-0.202,6.457,2.742
			c0.899,2.632,1.555,5.349,2.264,8.042c1.249,4.7,2.455,9.413,3.69,14.113c0.074,0.275,0.214,0.526,0.533,0.802
			c0.128-0.306,0.3-0.593,0.379-0.912c2.02-7.913,4.033-15.833,6.041-23.752c0.288-1.15,0.281-1.15,1.475-1.15
			c1.885,0,3.77,0.012,5.655-0.012c0.661-0.006,0.875,0.171,0.673,0.869c-1.15,4.076-2.252,8.165-3.396,12.24
			c-1.604,5.704-3.225,11.408-4.841,17.111C270.949,187.264,270.361,188.592,269.26,189.657z M283.905,372.339
			c0,1.163-0.936,2.099-2.099,2.099H276.2c-1.157,0-2.099-0.942-2.099-2.099v-5.6c0-1.163,0.942-2.1,2.099-2.1h5.605
			c1.163,0,2.099,0.942,2.099,2.1V372.339z M275.031,307.724c0-9.241,7.521-16.756,16.756-16.756
			c9.236,0,16.757,7.521,16.757,16.756s-7.516,16.757-16.757,16.757C282.546,324.481,275.031,316.965,275.031,307.724z
			 M309.475,372.339c0,1.163-0.942,2.099-2.099,2.099h-5.606c-1.162,0-2.099-0.942-2.099-2.099v-5.6c0-1.163,0.937-2.1,2.099-2.1
			h5.606c1.156,0,2.099,0.942,2.099,2.1V372.339z M317.125,175.991c-0.086-1.389-0.043-2.778-0.049-4.174
			c-0.019-4.425-0.007-8.849-0.056-13.274c-0.03-3.005,1.72-4.859,4.707-4.89c1.064-0.012,2.136,0.037,3.194-0.018
			c0.802-0.043,1.034,0.288,1.034,1.052c-0.024,4.21-0.03,8.415,0,12.625c0.012,2.179,0.594,4.205,1.897,5.992
			c1.462,2.007,3.537,2.956,5.899,3.335c2.692,0.435,5.324,0.153,7.681-1.273c2.692-1.628,3.972-4.223,4.076-7.271
			c0.146-4.37,0.085-8.739,0.11-13.115c0.006-1.334,0.006-1.353,1.364-1.334c1.365,0.024,2.742-0.031,4.082,0.171
			c2.038,0.312,3.427,1.964,3.439,4.002c0.03,5.93,0.055,11.86-0.006,17.791c-0.037,3.427-2.454,5.814-5.985,5.888
			c-4.26,0.085-8.525,0.018-12.791,0.018c0,0.012,0,0.025,0,0.031c-3.745,0-7.491,0.012-11.23-0.012
			c-0.924-0.006-1.872-0.031-2.766-0.214C318.973,180.753,317.296,178.8,317.125,175.991z M333.643,372.339
			c0,1.163-0.942,2.099-2.099,2.099h-5.606c-1.156,0-2.099-0.942-2.099-2.099v-5.6c0-1.163,0.942-2.1,2.099-2.1h5.606
			c1.156,0,2.099,0.942,2.099,2.1V372.339z M325.619,237.914c0-8.268,6.732-14.994,14.994-14.994s14.988,6.732,14.988,14.994
			c0,8.262-6.727,14.988-14.988,14.988S325.619,246.175,325.619,237.914z M364.034,329.56c-11.187,0-20.287-9.101-20.287-20.287
			c0-11.194,9.101-20.294,20.287-20.294c11.194,0,20.295,9.1,20.295,20.294C384.329,320.459,375.229,329.56,364.034,329.56z
			 M401.373,366.905c-11.193,0-20.294-9.101-20.294-20.294c0-11.188,9.101-20.288,20.294-20.288
			c11.188,0,20.287,9.101,20.287,20.288C421.667,357.804,412.561,366.905,401.373,366.905z M438.711,329.56
			c-11.188,0-20.288-9.101-20.288-20.287c0-11.194,9.101-20.294,20.288-20.294s20.288,9.1,20.288,20.294
			C458.999,320.459,449.898,329.56,438.711,329.56z M465.884,252.901c-20.208,0-36.641-16.438-36.641-36.64
			c0-20.202,16.438-36.641,36.641-36.641s36.641,16.438,36.641,36.641C502.524,236.463,486.092,252.901,465.884,252.901z"/>
		<path d="M220.649,298.856h-28.691v-28.69c0-0.753-0.612-1.365-1.365-1.365h-15.024c-0.747,0-1.359,0.612-1.359,1.365v28.69h-28.69
			c-0.747,0-1.358,0.612-1.358,1.359v15.024c0,0.746,0.612,1.358,1.358,1.358h28.69v28.69c0,0.747,0.612,1.359,1.359,1.359h15.024
			c0.753,0,1.365-0.612,1.365-1.359v-28.69h28.691c0.747,0,1.358-0.612,1.358-1.358v-15.024
			C222.007,299.462,221.396,298.856,220.649,298.856z"/>
		<path d="M429.702,431.281v-3.519c0-3.146-0.643-6.126-1.701-8.898c-3.599-9.438-12.662-16.169-23.366-16.169H394.5H189.076
			h-18.415c-13.244,0-23.972,10.3-24.89,23.311c-0.043,0.594-0.177,1.157-0.177,1.757v50.135c0,13.844,11.224,25.067,25.067,25.067
			h233.968c13.843,0,25.067-11.224,25.067-25.067v-3.519c9.063-0.19,16.365-7.564,16.365-16.678v-9.749
			C446.067,438.845,438.772,431.471,429.702,431.281z M232.521,472.591c0,8.06-6.53,14.59-14.59,14.59h-39.523
			c-8.06,0-14.59-6.536-14.59-14.59v-39.523c0-8.06,6.53-14.59,14.59-14.59h39.523c8.06,0,14.59,6.536,14.59,14.59V472.591z
			 M320.962,472.591c0,8.06-6.536,14.59-14.596,14.59h-39.524c-8.06,0-14.59-6.536-14.59-14.59v-39.523
			c0-8.06,6.53-14.59,14.59-14.59h39.524c8.06,0,14.596,6.536,14.596,14.59V472.591z M412.878,472.591
			c0,8.06-6.536,14.59-14.59,14.59h-39.522c-8.061,0-14.591-6.536-14.591-14.59v-39.523c0-8.06,6.53-14.59,14.591-14.59h39.522
			c8.054,0,14.59,6.536,14.59,14.59V472.591z"/>
	</g>
</g>
<g>
</g>
<g>
</g>
<g>
</g>
<g>
</g>
<g>
</g>
<g>
</g>
<g>
</g>
<g>
</g>
<g>
</g>
<g>
</g>
<g>
</g>
<g>
</g>
<g>
</g>
<g>
</g>
<g>
</g>
</svg>
