<?xml version="1.0" encoding="iso-8859-1"?>
<!-- Generator: Adobe Illustrator 16.0.0, SVG Export Plug-In . SVG Version: 6.00 Build 0)  -->
<!DOCTYPE svg PUBLIC "-//W3C//DTD SVG 1.1//EN" "http://www.w3.org/Graphics/SVG/1.1/DTD/svg11.dtd">
<svg version="1.1" id="Capa_1" xmlns="http://www.w3.org/2000/svg" xmlns:xlink="http://www.w3.org/1999/xlink" x="0px" y="0px"
	 width="575.287px" height="575.287px" viewBox="0 0 575.287 575.287" style="enable-background:new 0 0 575.287 575.287;"
	 xml:space="preserve">
<g>
	<g>
		<path d="M352.95,324.138c-16.806,0-30.472,13.672-30.472,30.478s13.666,30.478,30.472,30.478s30.478-13.672,30.478-30.478
			C383.428,337.811,369.756,324.138,352.95,324.138z"/>
		<circle cx="405.423" cy="265.368" r="18.017"/>
		<path d="M313.537,260.497c0-8.146-3.776-15.349-9.584-20.208c-3.482,1.646-9.247,4.4-9.811,7.46c0,0,15.264,14.847,14.205,28.33
			C311.573,271.696,313.537,266.341,313.537,260.497z"/>
		<path d="M286.83,254.352c-13.574,10.483-17.821,19.248-19.149,24.002c4.841,5.251,11.713,8.605,19.4,8.605
			c7.485,0,14.21-3.152,19.027-8.158C304.92,274.156,300.826,265.16,286.83,254.352z"/>
		<path d="M279.516,247.749c-0.539-2.968-5.991-5.648-9.498-7.313c-5.704,4.859-9.4,11.995-9.4,20.055
			c0,5.563,1.738,10.71,4.682,14.976C264.736,262.149,279.516,247.749,279.516,247.749z"/>
		<path d="M298.721,236.855c-3.531-1.744-7.441-2.815-11.64-2.815c-4.192,0-8.109,1.071-11.634,2.815
			c6.267,0.336,10.398,3.011,11.383,3.721C287.846,239.841,292.179,237.069,298.721,236.855z"/>
		<circle cx="447.712" cy="223.079" r="18.017"/>
		<circle cx="447.712" cy="307.657" r="18.017"/>
		<path d="M123.493,223.624c-16.805,0-30.478,13.672-30.478,30.478s13.672,30.478,30.478,30.478
			c16.806,0,30.478-13.672,30.478-30.478S140.298,223.624,123.493,223.624z"/>
		<path d="M387.92,164.027c-26.133,26.126-100.276,23.52-100.276,23.52s-74.144,2.613-100.276-23.52
			c-26.132-26.132-106.476-2.289-128.361,33.966S-8.932,350.852,1.521,465.174C11.974,579.49,65.537,542.91,109.307,506.98
			c43.771-35.931,58.14-67.284,178.337-67.284c120.197,0,134.566,31.354,178.337,67.284c43.764,35.93,97.332,72.51,107.785-41.806
			c10.453-114.322-35.6-230.926-57.485-267.181C494.396,161.738,414.046,137.895,387.92,164.027z M447.712,198.941
			c13.312,0,24.138,10.827,24.138,24.137c0,13.311-10.826,24.138-24.138,24.138c-13.311,0-24.137-10.827-24.137-24.138
			C423.575,209.768,434.401,198.941,447.712,198.941z M294.369,220.086c0.043,0.006,0.398,0.079,0.44,0.085
			c16.622,3.146,29.811,16.518,32.725,33.274c0.293,1.665-0.826,3.25-2.485,3.538c-0.178,0.037-0.354,0.049-0.532,0.049
			c-1.457,0-2.748-1.046-3.005-2.534c-2.479-14.253-13.703-25.637-27.926-28.33c-1.658-0.312-2.9-1.928-2.601-3.586
			C291.285,220.925,292.692,219.823,294.369,220.086z M246.719,252.926c3.188-16.842,16.616-30.037,33.427-32.907
			c1.665-0.288,3.244,0.838,3.531,2.503c0.282,1.665-0.838,3.244-2.503,3.531c-14.303,2.436-25.729,13.666-28.434,27.938
			c-0.282,1.481-1.597,2.595-3.054,2.595c-0.171,0-0.355-0.019-0.526-0.055c-1.659-0.306-2.772-1.793-2.473-3.452l3.011,0.551
			L246.719,252.926z M80.769,254.107c0-23.556,19.168-42.718,42.718-42.718s42.718,19.168,42.718,42.718
			s-19.168,42.717-42.718,42.717S80.769,277.657,80.769,254.107z M206.694,416.539c-29.578,0-53.648-24.064-53.648-53.648
			c0-29.578,24.064-53.647,53.648-53.647s53.648,24.063,53.648,53.647S236.272,416.539,206.694,416.539z M280.122,300.907
			c-0.165,0-0.336-0.012-0.502-0.043l-0.11-0.018c-16.879-3.189-30.086-16.665-32.926-33.532c-0.282-1.665,0.845-3.244,2.509-3.525
			c1.665-0.269,3.244,0.845,3.525,2.509c2.417,14.352,13.648,25.814,27.956,28.52c1.653,0.312,2.791,1.903,2.497,3.549
			C282.815,299.854,281.566,300.907,280.122,300.907z M287.081,293.08c-17.968,0-32.583-14.621-32.583-32.583
			c0-17.962,14.621-32.577,32.583-32.577s32.577,14.614,32.577,32.577C319.657,278.458,305.049,293.08,287.081,293.08z
			 M293.28,301.047c-1.469,0-2.767-1.064-3.012-2.558c-0.275-1.665,0.852-3.244,2.516-3.52
			c14.406-2.387,25.906-13.623,28.623-27.968c0.312-1.646,1.928-2.913,3.58-2.662c1.653,0.3,2.797,1.652,2.521,3.305
			c-0.006,0.049-0.098,0.526-0.109,0.576c-3.171,16.775-16.689,29.987-33.611,32.784
			C293.616,301.036,293.445,301.047,293.28,301.047z M352.95,397.339c-23.556,0-42.712-19.167-42.712-42.717
			s19.162-42.718,42.712-42.718s42.718,19.168,42.718,42.718S376.506,397.339,352.95,397.339z M405.423,289.505
			c-13.311,0-24.137-10.826-24.137-24.137s10.832-24.137,24.137-24.137s24.138,10.826,24.138,24.137
			S418.734,289.505,405.423,289.505z M447.712,331.794c-13.311,0-24.137-10.826-24.137-24.137c0-13.312,10.832-24.138,24.137-24.138
			s24.138,10.826,24.138,24.138C471.85,320.968,461.023,331.794,447.712,331.794z M490.001,289.505
			c-13.311,0-24.137-10.826-24.137-24.137s10.826-24.137,24.137-24.137c13.312,0,24.138,10.826,24.138,24.137
			S503.312,289.505,490.001,289.505z"/>
		<circle cx="490.001" cy="265.368" r="18.017"/>
		<path d="M206.694,315.369c-26.206,0-47.528,21.322-47.528,47.527c0,26.206,21.316,47.528,47.528,47.528
			c26.206,0,47.528-21.322,47.528-47.528C254.222,336.684,232.9,315.369,206.694,315.369z M191.388,392.738v3.391
			c-7.901-3.654-14.278-10.025-17.932-17.932h3.391h3.604c2.656,4.528,6.402,8.28,10.937,10.93V392.738z M191.388,333.049v3.604
			c-4.529,2.656-8.28,6.401-10.937,10.937h-3.604h-3.391c3.654-7.901,10.024-14.278,17.932-17.932V333.049z M221.994,396.128v-3.397
			v-3.604c4.529-2.656,8.281-6.401,10.937-10.93h3.599h3.396C236.272,386.097,229.895,392.474,221.994,396.128z M236.536,347.59
			h-3.605c-2.656-4.529-6.401-8.28-10.937-10.937v-3.604v-3.391c7.907,3.653,14.278,10.03,17.932,17.932H236.536z"/>
		<circle cx="286.83" cy="134.229" r="18.752"/>
		<path d="M324.492,126.168c0,6.757,5.483,12.24,12.24,12.24c6.756,0,12.239-5.483,12.239-12.24
			c0-29.345-27.876-53.213-62.136-53.213s-62.137,23.868-62.137,53.213c0,6.757,5.484,12.24,12.24,12.24s12.24-5.483,12.24-12.24
			c0-15.845,16.897-28.733,37.657-28.733C307.595,97.435,324.492,110.33,324.492,126.168z"/>
		<path d="M378.544,132.644c6.757,0,12.24-5.483,12.24-12.24c0-48.275-46.629-87.553-103.948-87.553
			c-57.32,0-103.955,39.278-103.955,87.553c0,6.756,5.483,12.24,12.24,12.24c6.756,0,12.24-5.483,12.24-12.24
			c0-34.78,35.649-63.073,79.468-63.073c43.819,0,79.468,28.292,79.468,63.073C366.304,127.167,371.781,132.644,378.544,132.644z"/>
	</g>
</g>
<g>
</g>
<g>
</g>
<g>
</g>
<g>
</g>
<g>
</g>
<g>
</g>
<g>
</g>
<g>
</g>
<g>
</g>
<g>
</g>
<g>
</g>
<g>
</g>
<g>
</g>
<g>
</g>
<g>
</g>
</svg>
