<?xml version="1.0" encoding="iso-8859-1"?>
<!-- Generator: Adobe Illustrator 16.0.0, SVG Export Plug-In . SVG Version: 6.00 Build 0)  -->
<!DOCTYPE svg PUBLIC "-//W3C//DTD SVG 1.1//EN" "http://www.w3.org/Graphics/SVG/1.1/DTD/svg11.dtd">
<svg version="1.1" id="Capa_1" xmlns="http://www.w3.org/2000/svg" xmlns:xlink="http://www.w3.org/1999/xlink" x="0px" y="0px"
	 width="580.114px" height="580.114px" viewBox="0 0 580.114 580.114" style="enable-background:new 0 0 580.114 580.114;"
	 xml:space="preserve">
<g>
	<g>
		<path d="M99.375,389.227c39.786-32.663,52.852-61.17,162.125-61.17c12.748,0,24.131,0.404,34.456,1.139
			c19.939-62.528,78.562-107.944,147.614-107.944c25.644,0,49.836,6.304,71.158,17.381c-11.646-59.878-32.858-109.56-45.38-130.307
			c-19.891-32.962-92.938-54.633-116.69-30.881C328.906,101.195,261.5,98.827,261.5,98.827s-67.406,2.375-91.164-21.377
			c-23.752-23.751-96.8-2.081-116.69,30.881C33.75,141.287-8.116,247.298,1.382,351.221
			C10.886,455.145,59.583,421.889,99.375,389.227z"/>
		<path d="M314.678,331.05c-4.945,14.125-7.662,29.296-7.662,45.11c0,75.416,61.139,136.549,136.549,136.549
			c75.411,0,136.55-61.139,136.55-136.549c0-47.656-24.425-89.584-61.427-114.015c-21.555-14.229-47.362-22.534-75.123-22.534
			C383.968,239.611,333.312,277.806,314.678,331.05z M493.223,309.63v68.042h21.456c1.151,0,2.136,0.116,3.036,0.287
			c5.453,1.071,6.212,5.178,1.272,10.11l-5.71,5.71l-27.491,27.491l-31.817,31.817c-5.74,5.747-15.056,5.747-20.802,0
			l-65.013-65.013c-5.747-5.746-3.819-10.403,4.309-10.403h21.456v-14.26v-53.776c0-8.128,6.592-14.713,14.713-14.713h69.878
			C486.631,294.917,493.223,301.508,493.223,309.63z"/>
	</g>
</g>
<g>
</g>
<g>
</g>
<g>
</g>
<g>
</g>
<g>
</g>
<g>
</g>
<g>
</g>
<g>
</g>
<g>
</g>
<g>
</g>
<g>
</g>
<g>
</g>
<g>
</g>
<g>
</g>
<g>
</g>
</svg>
