<?xml version="1.0" encoding="iso-8859-1"?>
<!-- Generator: Adobe Illustrator 16.0.0, SVG Export Plug-In . SVG Version: 6.00 Build 0)  -->
<!DOCTYPE svg PUBLIC "-//W3C//DTD SVG 1.1//EN" "http://www.w3.org/Graphics/SVG/1.1/DTD/svg11.dtd">
<svg version="1.1" id="Capa_1" xmlns="http://www.w3.org/2000/svg" xmlns:xlink="http://www.w3.org/1999/xlink" x="0px" y="0px"
	 width="575.4px" height="575.4px" viewBox="0 0 575.4 575.4" style="enable-background:new 0 0 575.4 575.4;" xml:space="preserve"
	>
<g>
	<g>
		<path d="M507.84,129.527c-1.297-1.995-3.831-3.678-7.179-5.08v-5.202c0,0-29.749-20.067-69.211-3.751c0,0-1.254,1.064-1.738,6.591
			c-2.484,0.551-4.639,1.182-6.395,1.891c-7.669,3.103-12.564,2.283-12.564,2.283H164.637c0,0-4.896,0.814-12.564-2.283
			c-1.756-0.709-3.911-1.34-6.395-1.891c-0.49-5.526-1.738-6.591-1.738-6.591c-39.462-16.316-69.211,3.751-69.211,3.751v5.202
			c-3.348,1.402-5.881,3.079-7.179,5.08c0,0-24.805,37.203-31.983,62.656S-6.208,360.582,0.976,415.404
			c7.179,54.829,90.074,68.532,111.611,25.453c21.536-43.078,35.9-95.294,35.9-95.294s8.482-6.2,10.44-6.2
			c0,0,36.549,30.35,76.041-2.613h105.459c39.486,32.963,76.041,2.613,76.041,2.613c1.958,0,10.446,6.2,10.446,6.2
			s14.358,52.216,35.9,95.294c21.536,43.079,104.432,29.37,111.61-25.453c7.179-54.829-27.411-197.768-34.59-223.221
			C532.639,166.73,507.84,129.527,507.84,129.527z M273.5,283.983l-17.889-27.246l-18.054,27.246h-27.246l31.714-45.294
			l-30.392-42.644h28.403l15.569,24.18L272,196.045h27.326l-29.811,41.653l32.546,46.292H273.5V283.983z M370.385,283.983h-23.268
			v-87.699c-8.501,7.95-18.52,13.831-30.062,17.638v-21.114c6.07-1.989,12.668-5.753,19.792-11.304s12.007-12.02,14.657-19.419
			h18.88V283.983z"/>
	</g>
</g>
<g>
</g>
<g>
</g>
<g>
</g>
<g>
</g>
<g>
</g>
<g>
</g>
<g>
</g>
<g>
</g>
<g>
</g>
<g>
</g>
<g>
</g>
<g>
</g>
<g>
</g>
<g>
</g>
<g>
</g>
</svg>
