<?xml version="1.0" encoding="iso-8859-1"?>
<!-- Generator: Adobe Illustrator 16.0.0, SVG Export Plug-In . SVG Version: 6.00 Build 0)  -->
<!DOCTYPE svg PUBLIC "-//W3C//DTD SVG 1.1//EN" "http://www.w3.org/Graphics/SVG/1.1/DTD/svg11.dtd">
<svg version="1.1" id="Capa_1" xmlns="http://www.w3.org/2000/svg" xmlns:xlink="http://www.w3.org/1999/xlink" x="0px" y="0px"
	 width="575.371px" height="575.371px" viewBox="0 0 575.371 575.371" style="enable-background:new 0 0 575.371 575.371;"
	 xml:space="preserve">
<g>
	<g>
		<path d="M57.29,171.79c1.334-2.044,3.054-3.868,5.196-5.489v-4.621l5.392-3.641c0.74-0.502,18.439-12.24,44.755-12.24
			c12.124,0,24.229,2.466,35.973,7.32l1.787,0.74l1.469,1.255c2.001,1.708,3.33,3.911,4.217,6.23
			c0.19,0.074,0.379,0.147,0.569,0.227c3.011,1.218,5.141,1.444,6.163,1.481l0.22-0.086h1.591h246.11l0.471-0.245l1.279,0.336
			c0.729-0.012,2.955-0.165,6.23-1.487c0.189-0.074,0.379-0.153,0.568-0.227c0.887-2.319,2.215-4.529,4.217-6.23l1.469-1.255
			l1.787-0.74c11.75-4.859,23.855-7.32,35.973-7.32c26.311,0,44.016,11.738,44.756,12.24l5.398,3.641v4.615
			c2.129,1.604,3.832,3.396,5.123,5.386c1.059,1.585,25.961,39.119,33.58,66.126c3.543,12.57,14.73,57.362,23.703,105.76
			c-1.537-64.187-29.156-177.915-35.484-200.356c-7.178-25.453-31.982-62.657-31.982-62.657c-1.299-1.995-3.832-3.678-7.18-5.08
			v-5.202c0,0-29.75-20.067-69.211-3.751c0,0-1.254,1.065-1.738,6.591c-2.484,0.551-4.639,1.181-6.395,1.891
			c-7.668,3.103-12.564,2.283-12.564,2.283H164.634c0,0-4.896,0.814-12.564-2.283c-1.757-0.71-3.911-1.34-6.396-1.891
			c-0.49-5.526-1.738-6.591-1.738-6.591c-39.462-16.316-69.211,3.751-69.211,3.751v5.202c-3.348,1.401-5.881,3.078-7.179,5.08
			c0,0-24.805,37.204-31.983,62.657C29.235,165.651,1.616,279.373,0.08,343.56c8.978-48.397,20.159-93.184,23.703-105.754
			C31.402,210.798,56.304,173.265,57.29,171.79z"/>
		<path d="M65.833,515.244c19.566,0,38.103-8.14,46.751-25.44c21.536-43.079,35.9-95.295,35.9-95.295s8.482-6.199,10.44-6.199
			c0,0,15.355,12.748,36.904,12.748c11.701,0,25.239-3.758,39.131-15.361h105.455c13.891,11.598,27.43,15.361,39.131,15.361
			c21.555,0,36.902-12.748,36.902-12.748c1.959,0,10.441,6.199,10.441,6.199s14.357,52.216,35.9,95.295
			c8.646,17.295,27.191,25.44,46.75,25.44c29.15,0,60.564-18.084,64.859-50.894c2.521-19.266-0.121-49.413-4.908-81.513
			c-8.844-59.26-25.023-125.196-29.682-141.708c-7.178-25.453-31.982-62.657-31.982-62.657c-1.299-1.995-3.832-3.678-7.18-5.08
			v-5.202c0,0-15.043-10.147-37.912-10.147c-9.303,0-19.891,1.677-31.299,6.396c0,0-1.254,1.065-1.738,6.591
			c-2.484,0.551-4.639,1.181-6.395,1.891c-5.025,2.032-8.861,2.38-10.906,2.38c-1.076,0-1.658-0.098-1.658-0.098H164.634
			c0,0-0.581,0.098-1.658,0.098c-2.044,0-5.881-0.349-10.906-2.38c-1.757-0.71-3.911-1.34-6.396-1.891
			c-0.49-5.526-1.738-6.591-1.738-6.591c-11.408-4.718-22.001-6.389-31.297-6.396c-22.877,0-37.914,10.147-37.914,10.147v5.202
			c-3.348,1.401-5.881,3.078-7.179,5.08c0,0-24.805,37.204-31.983,62.657c-4.657,16.512-20.838,82.448-29.682,141.708
			c-4.792,32.1-7.43,62.247-4.908,81.513C5.27,497.16,36.684,515.244,65.833,515.244z M349.465,240.168
			c-2.725-2.724-6.488-4.088-11.291-4.088c-4.75,0-8.525,1.432-11.328,4.291c-2.803,2.858-4.426,7.607-4.854,14.241l-22.656-2.265
			c1.346-12.515,5.582-21.5,12.705-26.946s16.021-8.17,26.701-8.17c11.707,0,20.906,3.158,27.596,9.468s10.037,14.162,10.037,23.55
			c0,5.343-0.955,10.422-2.871,15.251s-4.951,9.884-9.107,15.171c-2.613,3.335-7.295,8.104-13.91,14.217
			c-0.342,0.318-0.623,0.588-0.979,0.912c-7.174,6.579-11.721,10.948-13.637,13.109c-1.914,2.16-3.463,4.259-4.65,6.31h45.154v21.12
			h-79.707c0.861-7.987,3.451-15.551,7.766-22.699c3.99-6.616,11.635-15.251,22.834-25.863c0.906-0.857,1.781-1.701,2.736-2.583
			c10.25-9.547,16.535-16.022,18.855-19.419c3.127-4.694,4.693-9.333,4.693-13.917C353.553,246.79,352.188,242.892,349.465,240.168z
			 M231.318,290.653l-28.685-40.252h27.754l15.214,23.629l16.022-23.629h26.702l-26.75,37.375l-2.381,3.323l31.8,45.232h-27.914
			l-17.479-26.622l-17.638,26.622h-26.622l30.992-44.266L231.318,290.653z"/>
	</g>
</g>
<g>
</g>
<g>
</g>
<g>
</g>
<g>
</g>
<g>
</g>
<g>
</g>
<g>
</g>
<g>
</g>
<g>
</g>
<g>
</g>
<g>
</g>
<g>
</g>
<g>
</g>
<g>
</g>
<g>
</g>
</svg>
