<?xml version="1.0" encoding="iso-8859-1"?>
<!-- Generator: Adobe Illustrator 16.0.0, SVG Export Plug-In . SVG Version: 6.00 Build 0)  -->
<!DOCTYPE svg PUBLIC "-//W3C//DTD SVG 1.1//EN" "http://www.w3.org/Graphics/SVG/1.1/DTD/svg11.dtd">
<svg version="1.1" id="Capa_1" xmlns="http://www.w3.org/2000/svg" xmlns:xlink="http://www.w3.org/1999/xlink" x="0px" y="0px"
	 width="581.124px" height="581.124px" viewBox="0 0 581.124 581.124" style="enable-background:new 0 0 581.124 581.124;"
	 xml:space="preserve">
<g>
	<g>
		<circle cx="465.818" cy="275.263" r="19.865"/>
		<path d="M561.229,229.1c-2.441-18.305-10.172-52.075-43.531-75.264l-8.141-31.328c0,0-0.812-7.729-10.984-13.427
			c0,0,0.611-5.288-8.746-7.73c-9.357-2.441-31.119-7.117-56.549,1.426c0,0-3.867,1.016-3.66,6.713c0,0-12,5.9-14.443,16.885
			c-2.441,10.985-5.697,24.817-5.697,24.817H171.629c0,0-3.256-13.832-5.698-24.817s-14.443-16.885-14.443-16.885
			c0.202-5.697-3.66-6.713-3.66-6.713c-25.429-8.543-47.191-3.868-56.549-1.426c-9.357,2.442-8.746,7.73-8.746,7.73
			c-10.171,5.698-10.985,13.427-10.985,13.427l-8.133,31.328c-33.36,23.188-41.09,56.959-43.532,75.264
			C17.442,247.411,1.573,367.834,0.355,382.07c-1.218,14.241-2.038,67.534,46.787,75.264c48.826,7.729,74.45-36.616,74.45-36.616
			l32.956-57.161c3.892,3.018,7.65,5.588,11.322,7.883c2.289-0.44,4.645-0.691,7.057-0.691h68.733
			c14.437-12.087,21.512-27.742,21.512-27.742h54.767c0,0,7.076,15.649,21.512,27.742h67.443c2.742,0,5.379,0.38,7.955,0.942
			c3.801-2.356,7.693-5.012,11.721-8.14l25.752,44.664c3.354,3.458,5.863,7.705,7.18,12.454l0.023,0.049
			c0,0,25.631,44.346,74.457,36.616c48.818-7.729,48.006-61.028,46.787-75.264S563.67,247.405,561.229,229.1z M465.818,156.033
			c14.326,0,25.984,11.658,25.984,25.985s-11.658,25.985-25.984,25.985c-14.328,0-25.986-11.658-25.986-25.985
			S451.49,156.033,465.818,156.033z M317.316,178.665c3.775,0,7.551,0,11.322,0c0.035,0.128,0.049,1.982,0.012,2.264
			c-0.062,0.006-0.129,0.012-0.189,0.012c-0.387,0-0.777,0-1.164,0c-0.043,0-0.092,0-0.127,0.006
			c-0.154,0.024-0.24,0.122-0.209,0.275c0.025,0.116,0.066,0.245,0.141,0.342c0.117,0.172,0.252,0.325,0.393,0.478
			c1.107,1.218,2.221,2.43,3.334,3.642c0.031,0.03,0.062,0.055,0.105,0.092c0.049-0.055,0.098-0.104,0.141-0.153
			c1.26-1.377,2.514-2.754,3.775-4.131c0.031-0.031,0.061-0.067,0.08-0.104c0.086-0.128,0.061-0.251-0.057-0.349
			c-0.098-0.079-0.207-0.098-0.336-0.098c-0.391,0.006-0.789,0-1.182,0c-0.055,0-0.109-0.012-0.176-0.019c0-0.759,0-1.505,0-2.264
			c3.059,0,6.113,0,9.18,0c0,0.752,0,1.5,0,2.271c-0.068,0-0.135,0-0.203,0c-0.746,0-1.492,0-2.232,0
			c-0.123,0-0.209,0.037-0.295,0.123c-2.41,2.57-4.822,5.141-7.234,7.711c-0.078,0.086-0.109,0.166-0.109,0.282
			c0.006,0.991,0,1.977,0,2.968c0,0.042,0,0.085,0.006,0.128c0.02,0.196,0.117,0.312,0.312,0.336c0.086,0.012,0.178,0,0.264,0
			c0.838,0,1.676,0,2.516,0c0.023,0,0.049,0.006,0.084,0.012c0,0.679,0,1.353,0,2.032c-3.701,0-7.404,0-11.113,0
			c0-0.679,0-1.353,0-2.05c0.074,0,0.141,0,0.209,0c0.709,0,1.426,0,2.141,0c0.074,0,0.154,0,0.227-0.006
			c0.232-0.024,0.355-0.159,0.373-0.398c0-0.037,0-0.073,0-0.11c0-1.034,0-2.069,0-3.103c0-0.122-0.029-0.208-0.115-0.3
			c-2.289-2.503-4.572-5.006-6.848-7.509c-0.086-0.098-0.178-0.135-0.307-0.135c-0.832,0.006-1.664,0-2.498,0
			c-0.066,0-0.133,0-0.219,0C317.316,180.17,317.316,179.424,317.316,178.665z M289.892,178.659
			c0.079-0.006,0.159-0.006,0.238-0.006c2.51,0,5.024,0,7.534,0c0.117,0,0.227,0.006,0.338,0c0.133-0.012,0.232,0.031,0.336,0.123
			c0.691,0.63,1.383,1.254,2.074,1.879c2.84,2.558,5.674,5.116,8.514,7.674c0.055,0.049,0.109,0.098,0.201,0.178
			c0-0.11,0.006-0.184,0.006-0.251c0-2.032,0-4.058,0-6.089c0-0.159,0-0.312,0-0.471c0.006-0.257-0.109-0.441-0.324-0.575
			c-0.195-0.123-0.41-0.178-0.643-0.178c-0.703,0-1.4,0-2.105,0c-0.066,0-0.135,0-0.213,0c0-0.765,0-1.505,0-2.252
			c0,0,0.006-0.006,0.012-0.013c0.006-0.006,0.012-0.012,0.012-0.012c3.141-0.006,6.279-0.006,9.418-0.013
			c0.037,0,0.074,0.006,0.123,0.006c0,0.752,0,1.505,0,2.277c-0.072,0-0.141,0-0.207,0c-0.68,0-1.354,0-2.033-0.006
			c-0.568,0-0.82,0.239-0.844,0.814c-0.006,0.085-0.006,0.177-0.006,0.263c0,4.113,0,8.231,0,12.344c0,0.079,0,0.159,0,0.25
			c-0.068,0.006-0.123,0.012-0.178,0.012c-1.064,0-2.131,0-3.195,0c-0.109,0-0.189-0.03-0.27-0.104
			c-4.068-3.623-8.139-7.24-12.215-10.863c-0.049-0.043-0.098-0.086-0.184-0.153c0,0.098,0,0.159,0,0.22c0,2.723,0,5.447,0,8.17
			c0,0.104,0.012,0.214,0.025,0.318c0.018,0.116,0.092,0.19,0.213,0.208c0.135,0.019,0.275,0.024,0.41,0.024
			c0.766,0,1.531,0,2.295,0c0.068,0,0.135,0,0.215,0c0,0.729,0,1.438,0,2.161c-3.17,0-6.334,0-9.504,0c0-0.716,0-1.426,0-2.161
			c0.073,0,0.141,0,0.202,0c0.697,0,1.388,0,2.087,0c0.078,0,0.164,0,0.244-0.012c0.244-0.037,0.385-0.196,0.398-0.447
			c0-0.049,0-0.098,0-0.153c0-3.47,0-6.94,0-10.41c0-0.049,0-0.098,0-0.153c-0.008-0.294-0.117-0.429-0.398-0.478
			c-0.135-0.024-0.275-0.037-0.41-0.037c-0.648-0.006-1.303,0-1.953,0c-0.067,0-0.135,0-0.227,0
			C289.892,180.054,289.892,179.369,289.892,178.659z M264.072,182.6c0.655-1.077,1.524-1.965,2.54-2.711
			c1.389-1.016,2.931-1.701,4.583-2.142c1.646-0.44,3.323-0.6,5.025-0.52c2.093,0.098,4.1,0.551,5.998,1.457
			c1.322,0.63,2.515,1.451,3.513,2.534c0.887,0.961,1.548,2.044,1.879,3.317c0.453,1.708,0.251,3.354-0.545,4.92
			c-0.661,1.298-1.628,2.338-2.791,3.201c-1.414,1.046-2.993,1.744-4.682,2.185c-0.979,0.257-1.971,0.416-2.98,0.483
			c-0.392,0.024-0.79,0.006-1.181,0.006c0,0.006,0,0.012,0,0.018c-0.508-0.018-1.016-0.006-1.518-0.055
			c-2.644-0.239-5.098-1.022-7.271-2.589c-1.138-0.82-2.081-1.818-2.754-3.06c-0.606-1.108-0.912-2.289-0.875-3.549
			C263.038,184.84,263.411,183.677,264.072,182.6z M93.899,187.985c0.704-9.933,14.278-9.938,20.074-9.945
			c5.838,0.006,19.413,0.012,20.116,9.951c0.38,5.306-1.407,21.206-3.513,25.404c-1.909,3.825-11.383,10.771-14.59,13.042
			c-0.159,0.135-0.337,0.263-0.526,0.367c-0.459,0.245-0.961,0.374-1.463,0.374c-0.214,0-0.428-0.025-0.636-0.074
			c-0.251-0.049-0.502-0.135-0.741-0.257c-0.22-0.11-0.428-0.245-0.618-0.398c-3.194-2.277-12.681-9.223-14.59-13.048
			C95.313,209.197,93.52,193.298,93.899,187.985z M70.282,251.805c-9.938-0.704-9.945-14.278-9.951-20.073
			c0.006-5.839,0.012-19.413,9.957-20.117c0.496-0.037,1.083-0.055,1.744-0.055c5.655,0,19.529,1.506,23.66,3.568
			c3.819,1.909,10.765,11.383,13.036,14.59c0.134,0.159,0.263,0.337,0.367,0.526c0.281,0.532,0.404,1.126,0.361,1.701
			c-0.037,0.484-0.184,0.955-0.447,1.383c-0.085,0.135-0.177,0.269-0.281,0.386c-2.277,3.207-9.217,12.668-13.03,14.578
			c-4.131,2.062-18.005,3.568-23.66,3.568C71.372,251.86,70.784,251.842,70.282,251.805z M134.095,275.422
			c-0.704,9.939-14.278,9.945-20.074,9.951h-0.018c-5.82-0.006-19.395-0.012-20.098-9.957c-0.379-5.3,1.408-21.194,3.513-25.404
			c1.91-3.812,11.371-10.753,14.584-13.036c0.116-0.098,0.239-0.184,0.374-0.269c0.606-0.374,1.303-0.551,2.007-0.441
			c0.373,0.043,0.734,0.153,1.077,0.343c0.208,0.11,0.397,0.239,0.569,0.386c3.231,2.295,12.656,9.21,14.56,13.017
			C132.682,254.222,134.475,270.116,134.095,275.422z M155.968,251.86c-5.661,0-19.535-1.505-23.66-3.568
			c-3.819-1.909-10.771-11.383-13.042-14.59c-0.153-0.178-0.294-0.38-0.398-0.606c-0.27-0.526-0.374-1.114-0.318-1.677
			c0.024-0.3,0.098-0.605,0.214-0.893c0.128-0.312,0.306-0.594,0.514-0.839c2.289-3.219,9.217-12.656,13.029-14.565
			c4.125-2.062,17.999-3.568,23.66-3.568c0.661,0,1.249,0.019,1.75,0.055c9.933,0.704,9.939,14.278,9.945,20.073
			c-0.006,5.839-0.012,19.413-9.951,20.117C157.217,251.842,156.629,251.86,155.968,251.86z M200.112,352.381
			c-22.326,0-40.49-18.164-40.49-40.484c0-22.326,18.165-40.49,40.49-40.49c22.319,0,40.483,18.164,40.483,40.49
			C240.595,334.217,222.431,352.381,200.112,352.381z M253.007,235.201c0,2.693-2.191,4.89-4.896,4.89h-21.359
			c-2.693,0-4.89-2.191-4.89-4.89V225.03c0-2.693,2.191-4.89,4.89-4.89h21.359c2.699,0,4.896,2.191,4.896,4.89V235.201z
			 M252.921,194.999c-0.906,0.135-1.812,0.227-2.729,0.227c-0.569,0-1.126-0.067-1.677-0.159c-1.817-0.3-3.604-0.729-5.367-1.267
			c-0.232-0.074-0.459-0.153-0.673-0.275c-0.208-0.123-0.453-0.117-0.71-0.11c0,0.336,0,0.667,0,1.003c-0.912,0-1.805,0-2.699,0
			c-0.043-0.128-0.061-5.906-0.019-6.261c0.135-0.037,2.375-0.042,2.564-0.006c0.024,0.171,0.037,0.343,0.067,0.514
			c0.135,0.722,0.514,1.31,1.046,1.799c0.594,0.551,1.292,0.924,2.032,1.224c0.851,0.343,1.738,0.563,2.644,0.71
			c1.2,0.196,2.411,0.275,3.629,0.227c0.918-0.037,1.817-0.171,2.68-0.52c0.478-0.19,0.912-0.441,1.285-0.796
			c0.196-0.184,0.367-0.392,0.496-0.63c0.061-0.11,0.073-0.22,0.049-0.343c-0.061-0.318-0.232-0.563-0.478-0.765
			c-0.238-0.196-0.514-0.331-0.802-0.447c-0.575-0.232-1.181-0.367-1.793-0.478c-1.022-0.189-2.056-0.306-3.084-0.422
			c-1.475-0.171-2.95-0.324-4.406-0.593c-1.175-0.221-2.338-0.49-3.439-0.979c-0.667-0.294-1.292-0.667-1.806-1.199
			c-0.648-0.68-0.967-1.487-0.979-2.424c-0.019-1.181,0.44-2.154,1.249-2.98c0.557-0.563,1.206-0.991,1.909-1.353
			c1.041-0.532,2.142-0.881,3.274-1.126c1.169-0.251,2.356-0.392,3.562-0.379c0.937,0.012,1.861,0.123,2.779,0.3
			c1.322,0.257,2.613,0.636,3.862,1.15c0.25,0.104,0.489,0.245,0.74,0.355c0.086,0.037,0.196,0.062,0.288,0.055
			c0.19-0.012,0.245-0.08,0.245-0.275c0-0.189,0-0.385,0-0.575c0.153-0.043,2.148-0.049,2.368-0.012c0,1.836,0,3.672,0,5.52
			c-0.765,0-1.518,0-2.289,0c-0.006-0.085-0.019-0.159-0.031-0.239c-0.092-0.667-0.398-1.218-0.881-1.683
			c-0.459-0.441-0.998-0.753-1.579-0.998c-0.79-0.343-1.622-0.557-2.466-0.704c-1.199-0.214-2.411-0.3-3.629-0.263
			c-0.9,0.031-1.799,0.104-2.681,0.325c-0.361,0.092-0.71,0.208-1.041,0.379c-0.239,0.122-0.465,0.275-0.643,0.478
			c-0.208,0.232-0.324,0.501-0.343,0.813c-0.012,0.263,0.08,0.49,0.282,0.643c0.165,0.129,0.355,0.239,0.544,0.318
			c0.447,0.196,0.93,0.288,1.414,0.374c0.948,0.165,1.909,0.251,2.87,0.343c1.53,0.153,3.066,0.293,4.584,0.563
			c1.175,0.208,2.326,0.477,3.433,0.942c0.698,0.288,1.353,0.648,1.928,1.15c0.894,0.777,1.396,1.75,1.494,2.932
			c0.128,1.524-0.392,2.772-1.542,3.764c-0.71,0.606-1.524,1.022-2.393,1.353C255.051,194.589,253.998,194.834,252.921,194.999z
			 M290.553,317.247c-18.74,0-33.991-15.245-33.991-33.991c0-18.746,15.245-33.99,33.991-33.99s33.99,15.245,33.99,33.99
			C324.543,302.001,309.299,317.247,290.553,317.247z M332.701,240.568c-0.287,0.092-0.582,0.129-0.881,0.129
			c-2.693,0-4.891-2.191-4.891-4.89v-12.613c0-2.968,2.803-5.575,5.691-4.786l26.244,7.124c1.334,0.361,2.258,1.573,2.258,2.95
			c0,2.509-1.904,4.584-4.34,4.859L332.701,240.568z M381.355,352.381c-22.326,0-40.49-18.164-40.49-40.484
			c0-22.326,18.164-40.49,40.49-40.49s40.49,18.164,40.49,40.49C421.846,334.217,403.688,352.381,381.355,352.381z M419.195,254.626
			c-14.326,0-25.986-11.658-25.986-25.985c0-14.327,11.66-25.985,25.986-25.985s25.986,11.659,25.986,25.985
			C445.182,242.968,433.521,254.626,419.195,254.626z M465.818,301.249c-14.328,0-25.986-11.659-25.986-25.986
			c0-14.327,11.658-25.985,25.986-25.985c14.326,0,25.984,11.659,25.984,25.985C491.797,289.59,480.145,301.249,465.818,301.249z
			 M512.439,254.626c-14.326,0-25.984-11.658-25.984-25.985c0-14.327,11.658-25.985,25.984-25.985
			c14.328,0,25.986,11.659,25.986,25.985C538.42,242.968,526.766,254.626,512.439,254.626z"/>
		<circle cx="512.439" cy="228.641" r="19.865"/>
		<path d="M114.003,220.336c5.037-3.696,10.324-8.103,11.102-9.676c1.358-2.705,3.237-17.252,2.882-22.234
			c-0.073-1.059-0.3-4.26-13.966-4.266c-13.708,0.006-13.935,3.207-14.008,4.259c-0.361,4.982,1.523,19.529,2.882,22.24
			C103.673,212.233,108.948,216.64,114.003,220.336z"/>
		<path d="M114.003,243.078c-5.049,3.697-10.331,8.103-11.108,9.67c-1.359,2.711-3.237,17.258-2.882,22.234
			c0.073,1.059,0.3,4.266,13.966,4.271l0.042,3.06v-3.06c13.666-0.006,13.898-3.213,13.966-4.266
			c0.361-4.976-1.524-19.522-2.882-22.24C124.322,251.181,119.046,246.78,114.003,243.078z"/>
		<path d="M200.112,277.521c-18.954,0-34.37,15.423-34.37,34.37c0,18.948,15.422,34.364,34.37,34.364
			c18.947,0,34.364-15.416,34.364-34.364C234.476,292.944,219.065,277.521,200.112,277.521z"/>
		<path d="M157.284,217.723c-0.379-0.031-0.82-0.043-1.315-0.043c-6.347,0-18.47,1.689-20.924,2.925
			c-1.573,0.784-5.979,6.059-9.676,11.102c3.696,5.049,8.103,10.331,9.676,11.107c2.454,1.23,14.584,2.926,20.924,2.926
			c0.496,0,0.936-0.013,1.31-0.043c1.059-0.074,4.259-0.3,4.266-13.966C161.537,218.017,158.336,217.79,157.284,217.723z"/>
		<path d="M92.957,220.599c-2.46-1.23-14.584-2.925-20.924-2.925c-0.496,0-0.937,0.012-1.31,0.042
			c-1.059,0.074-4.266,0.3-4.272,13.966c0.006,13.708,3.213,13.935,4.266,14.008c0.38,0.031,0.82,0.043,1.316,0.043
			c6.34,0,18.464-1.695,20.924-2.925c1.567-0.783,5.973-6.059,9.669-11.108C98.93,226.664,94.529,221.382,92.957,220.599z"/>
		<circle cx="465.818" cy="182.018" r="19.865"/>
		<circle cx="419.195" cy="228.641" r="19.865"/>
		<rect x="227.988" y="226.26" width="18.905" height="7.711"/>
		<polygon points="333.057,234.075 349.164,229.24 333.057,224.871 		"/>
		<path d="M381.355,277.521c-18.953,0-34.369,15.423-34.369,34.37c0,18.948,15.422,34.364,34.369,34.364
			s34.369-15.416,34.369-34.364C415.725,292.944,400.309,277.521,381.355,277.521z"/>
		<path d="M290.553,252.331c-17.057,0-30.931,13.874-30.931,30.931c0,17.057,13.874,30.931,30.931,30.931
			c17.056,0,30.931-13.874,30.931-30.931C321.484,266.205,307.609,252.331,290.553,252.331z M282.615,294.89
			c-0.012,0.214-0.447,0.532-0.722,0.581c-4.884,0.82-9.633,0.294-14.247-1.493c-0.398-0.153-0.765-0.392-1.12-0.637
			c-1.756-1.242-1.756-2.895,0.043-4.039c0.783-0.502,1.609-0.961,2.479-1.279c4.431-1.634,8.886-3.219,13.568-4.902
			c0,1.646,0.031,3.158-0.037,4.669c-0.006,0.208-0.49,0.465-0.795,0.575c-2.454,0.9-4.927,1.756-7.381,2.662
			c-0.569,0.209-1.083,0.563-1.628,0.845c0.012,0.135,0.019,0.275,0.031,0.41c0.539,0.189,1.089,0.563,1.616,0.526
			c1.518-0.104,3.047-0.281,4.529-0.612c1.199-0.269,2.344-0.802,3.696-1.285C282.646,292.344,282.683,293.624,282.615,294.89z
			 M292.592,268.935c-0.172,0.404-0.123,0.912-0.123,1.377c-0.006,9.499,0,18.997,0,28.501c0,0.453,0,0.899,0,1.523
			c-2.785-0.887-5.374-1.695-7.95-2.546c-0.202-0.067-0.385-0.385-0.447-0.624c-0.08-0.3-0.03-0.643-0.03-0.961
			c0.012-11.218,0.024-22.442,0.037-33.66c0-0.392,0-0.783,0-1.322c0.765,0.153,1.432,0.232,2.068,0.416
			c3.642,1.065,7.283,2.13,10.9,3.262c0.947,0.293,1.842,0.795,2.717,1.279c2.857,1.585,4.51,4.015,4.92,7.265
			c0.281,2.252,0.387,4.492-0.342,6.701c-1.23,3.727-4.664,4.78-8.281,3.06c-0.281-0.135-0.465-0.752-0.471-1.145
			c-0.031-3.8,0.012-7.601-0.043-11.401c-0.012-0.753-0.221-1.579-0.594-2.222c-0.227-0.385-0.979-0.691-1.438-0.63
			C293.148,267.852,292.781,268.482,292.592,268.935z M314.385,287.791c1.951,1.292,2.037,2.864,0.078,4.131
			c-1.217,0.79-2.594,1.365-3.965,1.867c-5.238,1.928-10.508,3.794-15.766,5.679c-0.232,0.08-0.471,0.129-0.887,0.239
			c0-1.555-0.043-2.95,0.037-4.339c0.018-0.288,0.465-0.674,0.795-0.796c3.801-1.39,7.613-2.735,11.426-4.095
			c0.508-0.177,1.029-0.336,1.494-0.593c0.281-0.153,0.465-0.484,0.697-0.729c-0.264-0.202-0.502-0.514-0.795-0.587
			c-1.684-0.422-3.348-0.214-4.965,0.349c-2.465,0.857-4.926,1.738-7.393,2.607c-0.361,0.129-0.729,0.238-1.279,0.41
			c0-1.671-0.023-3.195,0.031-4.719c0.006-0.202,0.379-0.496,0.637-0.575c6.451-2.032,12.834-1.971,19.105,0.722
			C313.895,287.479,314.146,287.631,314.385,287.791z"/>
		<path d="M270.431,191.119c1.407,0.998,2.993,1.444,4.541,1.462c1.181,0,2.167-0.171,3.103-0.52
			c0.067-0.024,0.116-0.073,0.184-0.098c0.012-0.006,0.024,0,0.037-0.006c1.334-0.502,2.467-1.279,3.299-2.454
			c1.114-1.579,1.377-3.292,0.704-5.117c-0.472-1.279-1.334-2.264-2.473-2.986c-0.563-0.355-1.138-0.63-1.72-0.838
			c-1.806-0.704-3.703-0.741-5.667-0.11c-1.396,0.447-2.577,1.236-3.464,2.412c-1.193,1.585-1.53,3.341-0.888,5.232
			C268.521,189.362,269.347,190.348,270.431,191.119z"/>
		<path d="M431.961,411.581v-3.52c0-13.843-11.223-25.067-25.066-25.067h-18.238h-25.752H218.203h-25.753H172.92
			c-13.843,0-25.067,11.225-25.067,25.067v50.135c0,13.844,11.224,25.068,25.067,25.068h233.974
			c13.844,0,25.066-11.225,25.066-25.068v-3.519c9.064-0.189,16.365-7.564,16.365-16.677v-9.749
			C448.326,419.145,441.025,411.77,431.961,411.581z M330.432,452.45c1.113,1.113,1.113,2.919,0,4.033l-13.801,13.801
			c-1.115,1.113-2.92,1.113-4.027,0l-15.967-15.968l-15.967,15.968c-1.114,1.113-2.919,1.113-4.033,0l-13.801-13.801
			c-1.114-1.114-1.114-2.92,0-4.033l15.967-15.967l-15.967-15.968c-1.114-1.113-1.114-2.919,0-4.033l13.801-13.8
			c1.114-1.114,2.919-1.114,4.033,0l15.967,15.967l15.967-15.967c1.113-1.114,2.92-1.114,4.027,0l13.801,13.8
			c1.113,1.114,1.113,2.92,0,4.033l-15.969,15.968L330.432,452.45z"/>
	</g>
</g>
<g>
</g>
<g>
</g>
<g>
</g>
<g>
</g>
<g>
</g>
<g>
</g>
<g>
</g>
<g>
</g>
<g>
</g>
<g>
</g>
<g>
</g>
<g>
</g>
<g>
</g>
<g>
</g>
<g>
</g>
</svg>
