<?xml version="1.0" encoding="iso-8859-1"?>
<!-- Generator: Adobe Illustrator 16.0.0, SVG Export Plug-In . SVG Version: 6.00 Build 0)  -->
<!DOCTYPE svg PUBLIC "-//W3C//DTD SVG 1.1//EN" "http://www.w3.org/Graphics/SVG/1.1/DTD/svg11.dtd">
<svg version="1.1" id="Capa_1" xmlns="http://www.w3.org/2000/svg" xmlns:xlink="http://www.w3.org/1999/xlink" x="0px" y="0px"
	 width="571.713px" height="571.713px" viewBox="0 0 571.713 571.713" style="enable-background:new 0 0 571.713 571.713;"
	 xml:space="preserve">
<g>
	<g>
		<path d="M288.246,209.399c44.553,0,78.379,13.274,111.084,26.139v-58.366c0-16.897-13.703-30.6-30.6-30.6H207.566
			c-16.897,0-30.6,13.703-30.6,30.6v58.439c0.012-0.006,0.019-0.006,0.031-0.012C209.75,222.722,243.619,209.399,288.246,209.399z"
			/>
		<path d="M56.2,324.858h45.729c16.145,0,29.278,13.135,29.278,29.279v39.988h309.28v-39.982c0-16.145,13.135-29.279,29.279-29.279
			h40.66v-0.562h32.834c0,0-1.096-42.907-22.986-45.092c-21.891-2.19-64.578-3.286-103.979-17.515
			c-5.686-2.056-11.328-4.229-16.977-6.432c-33.471-13.078-67.07-27.497-111.085-27.497c-44.101,0-77.742,14.474-111.273,27.571
			c-5.582,2.179-11.163,4.327-16.788,6.358c-39.406,14.229-82.093,15.325-103.979,17.515c-21.891,2.191-22.987,45.092-22.987,45.092
			H56.2V324.858z M172.89,369.952c-7.148,0-13.439-3.562-17.283-8.979h34.56C186.323,366.396,180.032,369.952,172.89,369.952z
			 M215.106,348.739c0-11.721,9.498-21.219,21.218-21.219s21.218,9.498,21.218,21.219l0,0H215.106L215.106,348.739z
			 M357.113,348.739L357.113,348.739h-42.436l0,0c0-11.721,9.498-21.219,21.219-21.219
			C347.615,327.521,357.113,337.019,357.113,348.739z M236.318,369.952c-7.148,0-13.44-3.562-17.283-8.979h34.56
			C249.757,366.396,243.466,369.952,236.318,369.952z M335.896,369.952c-7.148,0-13.439-3.562-17.283-8.979h34.561
			C349.336,366.396,343.045,369.952,335.896,369.952z M399.33,369.952c-7.148,0-13.439-3.562-17.283-8.979h34.561
			C412.764,366.396,406.473,369.952,399.33,369.952z M420.541,348.739L420.541,348.739h-42.43l0,0
			c0-11.721,9.498-21.219,21.219-21.219C411.043,327.521,420.541,337.019,420.541,348.739z M254.678,247.398h67.131
			c9.143,0,16.664,6.702,18.066,15.453c0.152,0.955,0.293,1.91,0.293,2.907c0,0-8.219,39.063-18.359,39.063h-67.131
			c-10.141,0-18.36-39.063-18.36-39.063c0-0.998,0.141-1.953,0.293-2.907C238.013,254.105,245.534,247.398,254.678,247.398z
			 M151.672,348.739c0-11.721,9.499-21.219,21.218-21.219s21.218,9.498,21.218,21.219l0,0H151.672L151.672,348.739z"/>
		<path d="M17.038,425.142h84.891c7.882,0,14.456-5.379,16.401-12.65c0.379-1.408,0.643-2.857,0.643-4.389v-4.791v-9.18v-39.988
			c0-9.412-7.631-17.039-17.038-17.039H56.2h-9.18H17.038c-0.863,0-1.695,0.129-2.521,0.258C6.31,338.593,0,345.601,0,354.149
			v53.961C0,417.517,7.625,425.142,17.038,425.142z"/>
		<path d="M510.439,337.099h-40.662c-9.412,0-17.037,7.633-17.037,17.039v39.988v9.18v4.791c0,1.531,0.262,2.98,0.643,4.389
			c1.945,7.27,8.512,12.65,16.4,12.65h84.891c9.412,0,17.039-7.633,17.039-17.039v-53.953c0-6.77-3.979-12.57-9.701-15.318
			c-2.234-1.072-4.699-1.727-7.344-1.727h-35.049H510.439z"/>
		<path d="M260.871,299.528h54.744c8.268,0,14.975-31.854,14.975-31.854c0-1.695-0.342-3.299-0.863-4.816
			c-2.014-5.894-7.533-10.153-14.105-10.153h-54.744c-6.573,0-12.093,4.266-14.107,10.153c-0.52,1.518-0.863,3.121-0.863,4.816
			C245.901,267.674,252.603,299.528,260.871,299.528z"/>
	</g>
</g>
<g>
</g>
<g>
</g>
<g>
</g>
<g>
</g>
<g>
</g>
<g>
</g>
<g>
</g>
<g>
</g>
<g>
</g>
<g>
</g>
<g>
</g>
<g>
</g>
<g>
</g>
<g>
</g>
<g>
</g>
</svg>
