<?xml version="1.0" encoding="iso-8859-1"?>
<!-- Generator: Adobe Illustrator 16.0.0, SVG Export Plug-In . SVG Version: 6.00 Build 0)  -->
<!DOCTYPE svg PUBLIC "-//W3C//DTD SVG 1.1//EN" "http://www.w3.org/Graphics/SVG/1.1/DTD/svg11.dtd">
<svg version="1.1" id="Capa_1" xmlns="http://www.w3.org/2000/svg" xmlns:xlink="http://www.w3.org/1999/xlink" x="0px" y="0px"
	 width="575.387px" height="575.387px" viewBox="0 0 575.387 575.387" style="enable-background:new 0 0 575.387 575.387;"
	 xml:space="preserve">
<g>
	<g>
		<path d="M106.692,198.829c4.571-3.36,9.296-7.313,9.969-8.672c1.23-2.454,2.944-15.729,2.625-20.282
			c-0.171-2.436-4.406-3.678-12.57-3.684c-8.213,0.006-12.436,1.242-12.613,3.684c-0.331,4.553,1.389,17.821,2.619,20.282
			C97.401,191.51,102.12,195.469,106.692,198.829z"/>
		<path d="M87.267,199.613c-2.179-1.096-13.421-2.656-19.094-2.656c-0.447,0-0.851,0.012-1.181,0.037
			c-2.442,0.171-3.684,4.4-3.69,12.571c0.006,8.207,1.243,12.436,3.69,12.613c0.331,0.024,0.716,0.037,1.157,0.037
			c5.679,0,16.934-1.567,19.119-2.662c1.359-0.68,5.312-5.398,8.672-9.97C92.292,204.606,88.509,200.231,87.267,199.613z"/>
		<path d="M190.903,262.539c-15.031,0-27.258,12.228-27.258,27.259c0,15.024,12.228,27.252,27.258,27.252
			c15.024,0,27.252-12.228,27.252-27.252C218.155,274.766,205.927,262.539,190.903,262.539z"/>
		<circle cx="506.598" cy="207.575" r="17.081"/>
		<path d="M378.486,262.539c-15.023,0-27.252,12.228-27.252,27.259c0,15.024,12.229,27.252,27.252,27.252
			c15.031,0,27.26-12.228,27.26-27.252C405.746,274.766,393.518,262.539,378.486,262.539z"/>
		<circle cx="426.418" cy="207.575" r="17.081"/>
		<circle cx="466.504" cy="247.661" r="17.081"/>
		<path d="M146.398,196.993c-0.343-0.024-0.741-0.037-1.188-0.037c-5.667,0-16.91,1.561-19.088,2.656
			c-1.242,0.624-5.031,4.994-8.678,9.969c3.36,4.572,7.313,9.29,8.678,9.97c2.185,1.095,13.439,2.662,19.113,2.662
			c0.441,0,0.833-0.012,1.163-0.037c2.436-0.171,3.678-4.407,3.684-12.571C150.076,201.394,148.84,197.165,146.398,196.993z"/>
		<path d="M106.692,220.329c-4.566,3.36-9.291,7.32-9.97,8.678c-1.23,2.466-2.944,15.729-2.619,20.27
			c0.171,2.442,4.4,3.684,12.57,3.69l0.043,3.06v-3.06c8.164-0.006,12.393-1.242,12.57-3.69c0.324-4.547-1.396-17.815-2.625-20.27
			C115.976,227.648,111.263,223.688,106.692,220.329z"/>
		<path d="M169.042,165.616c2.809,0,5.098-2.289,5.098-5.098v-13.703c0-2.809-2.289-5.098-5.098-5.098s-5.098,2.289-5.098,5.098
			v13.703C163.944,163.327,166.233,165.616,169.042,165.616z"/>
		<path d="M405.322,165.616c2.811,0,5.1-2.289,5.1-5.098v-13.703c0-2.809-2.289-5.098-5.1-5.098c-2.809,0-5.098,2.289-5.098,5.098
			v13.703C400.225,163.327,402.514,165.616,405.322,165.616z"/>
		<circle cx="466.504" cy="167.483" r="17.081"/>
		<path d="M507.84,129.514c-1.299-1.995-3.832-3.678-7.18-5.08v-5.202c0,0-29.748-20.067-69.211-3.751c0,0-1.254,1.065-1.738,6.591
			c-2.484,0.551-4.639,1.181-6.395,1.891c-7.668,3.103-12.564,2.283-12.564,2.283h-26.775c0.973,2.075,1.561,4.364,1.561,6.805
			v82.62c0,8.886-7.229,16.114-16.113,16.114H204.948c-8.886,0-16.114-7.228-16.114-16.114v-82.62c0-2.441,0.587-4.73,1.561-6.805
			h-25.753c0,0-4.896,0.814-12.564-2.283c-1.756-0.71-3.911-1.34-6.396-1.891c-0.49-5.526-1.738-6.591-1.738-6.591
			c-39.462-16.316-69.211,3.751-69.211,3.751v5.202c-3.348,1.401-5.881,3.079-7.179,5.08c0,0-24.798,37.204-31.983,62.657
			C28.393,217.63-6.204,360.569,0.975,415.398s90.074,68.531,111.611,25.453c7.136-14.266,13.452-29.505,18.751-43.55v-26.243
			c0-20.569,16.738-37.308,37.308-37.308h233.967c18.514,0,33.924,13.556,36.818,31.262c9.92,4.62,16.855,14.712,16.855,26.242
			v9.749c0,5.686-1.701,11.016-4.598,15.521c3.434,8.164,7.148,16.401,11.115,24.333c21.541,43.079,104.432,29.37,111.609-25.453
			c7.18-54.829-27.41-197.768-34.59-223.221C532.645,166.718,507.84,129.514,507.84,129.514z M466.504,144.282
			c12.791,0,23.201,10.41,23.201,23.201c0,12.791-10.41,23.201-23.201,23.201c-12.789,0-23.199-10.41-23.199-23.201
			C443.305,154.692,453.715,144.282,466.504,144.282z M394.105,146.815c0-6.188,5.031-11.218,11.217-11.218
			c6.188,0,11.219,5.031,11.219,11.218v13.703c0,6.188-5.031,11.218-11.219,11.218c-6.186,0-11.217-5.03-11.217-11.218V146.815z
			 M157.824,146.815c0-6.188,5.031-11.218,11.218-11.218c6.188,0,11.218,5.031,11.218,11.218v13.703
			c0,6.188-5.031,11.218-11.218,11.218c-6.187,0-11.218-5.03-11.218-11.218V146.815z M87.995,169.435
			c0.661-9.352,13.287-9.357,18.678-9.364c5.428,0.006,18.042,0.012,18.721,9.364c0.312,4.431-1.206,19.351-3.256,23.458
			c-1.781,3.562-10.478,9.938-13.446,12.044c-0.159,0.135-0.336,0.263-0.526,0.367c-0.459,0.245-0.961,0.374-1.462,0.374
			c-0.502-0.012-1.004-0.123-1.457-0.368c-0.208-0.11-0.392-0.238-0.569-0.385c-2.993-2.13-11.64-8.476-13.421-12.02
			C89.188,188.774,87.677,173.86,87.995,169.435z M66.551,228.279c-9.358-0.673-9.364-13.293-9.37-18.678
			c0.006-5.435,0.012-18.054,9.37-18.721c0.459-0.031,1.003-0.049,1.622-0.049c5.22,0,18.017,1.396,21.83,3.299
			c3.556,1.781,9.939,10.483,12.044,13.452c0.141,0.159,0.263,0.343,0.367,0.532c0.282,0.526,0.398,1.12,0.361,1.695
			c-0.037,0.483-0.184,0.955-0.441,1.383c-0.092,0.134-0.177,0.269-0.288,0.385c-2.111,2.968-8.476,11.653-12.038,13.434
			c-3.819,1.909-16.64,3.305-21.854,3.305C67.542,228.328,67.003,228.309,66.551,228.279z M125.388,249.717
			c-0.673,9.357-13.287,9.363-18.678,9.37h-0.024c-5.41-0.006-18.029-0.012-18.697-9.37c-0.318-4.413,1.193-19.327,3.25-23.446
			c1.787-3.574,10.502-9.958,13.458-12.057c0.232-0.202,0.501-0.367,0.795-0.49c0.055-0.018,0.116-0.042,0.165-0.061
			c0.802-0.306,1.714-0.239,2.491,0.178c0.226,0.122,0.434,0.269,0.624,0.44c3.054,2.167,11.591,8.452,13.354,11.983
			C124.183,230.378,125.7,245.292,125.388,249.717z M146.833,228.279c-0.459,0.03-0.998,0.049-1.603,0.049
			c-5.221,0-18.03-1.401-21.849-3.305c-3.568-1.781-9.951-10.484-12.056-13.446c-0.153-0.177-0.288-0.379-0.392-0.606
			c-0.067-0.128-0.128-0.263-0.165-0.397c-0.282-0.796-0.22-1.683,0.184-2.448c0.128-0.232,0.275-0.44,0.447-0.63
			c2.172-3.06,8.458-11.604,11.983-13.36c3.813-1.91,16.616-3.299,21.824-3.299c0.618,0,1.157,0.019,1.628,0.049
			c9.352,0.661,9.358,13.287,9.364,18.679C156.196,214.992,156.19,227.605,146.833,228.279z M190.903,323.17
			c-18.409,0-33.378-14.97-33.378-33.372c0-18.41,14.969-33.379,33.378-33.379c18.403,0,33.373,14.97,33.373,33.379
			C224.275,308.2,209.299,323.17,190.903,323.17z M287.183,314.853c-19.113,0-34.658-15.545-34.658-34.658
			s15.545-34.658,34.658-34.658c19.112,0,34.657,15.545,34.657,34.658S306.295,314.853,287.183,314.853z M378.486,323.17
			c-18.402,0-33.371-14.97-33.371-33.372c0-18.41,14.969-33.379,33.371-33.379c18.41,0,33.379,14.97,33.379,33.379
			C411.865,308.2,396.896,323.17,378.486,323.17z M426.418,230.776c-12.789,0-23.199-10.41-23.199-23.201
			s10.41-23.201,23.199-23.201c12.791,0,23.201,10.41,23.201,23.201S439.209,230.776,426.418,230.776z M466.504,270.862
			c-12.789,0-23.199-10.41-23.199-23.201c0-12.791,10.41-23.201,23.199-23.201c12.791,0,23.201,10.41,23.201,23.201
			C489.705,260.452,479.295,270.862,466.504,270.862z M506.598,230.776c-12.791,0-23.201-10.41-23.201-23.201
			s10.41-23.201,23.201-23.201s23.201,10.41,23.201,23.201S519.389,230.776,506.598,230.776z"/>
		<path d="M194.954,133.058v82.62c0,5.508,4.48,9.994,9.994,9.994H369.43c5.508,0,9.994-4.479,9.994-9.994v-82.62
			c0-2.631-1.047-5.019-2.717-6.805H197.666C195.995,128.039,194.954,130.42,194.954,133.058z"/>
		<path d="M287.183,248.591c-17.423,0-31.598,14.174-31.598,31.598c0,17.424,14.174,31.598,31.598,31.598
			c17.423,0,31.599-14.174,31.599-31.598C318.781,262.765,304.605,248.591,287.183,248.591z M279.08,292.062
			c-0.012,0.215-0.453,0.545-0.734,0.594c-4.981,0.832-9.834,0.3-14.541-1.523c-0.404-0.159-0.783-0.398-1.138-0.649
			c-1.793-1.267-1.787-2.949,0.043-4.125c0.795-0.509,1.646-0.979,2.527-1.304c4.523-1.671,9.07-3.287,13.85-5.006
			c0,1.677,0.031,3.225-0.037,4.767c-0.006,0.208-0.496,0.472-0.808,0.588c-2.503,0.918-5.03,1.793-7.527,2.717
			c-0.582,0.215-1.108,0.576-1.659,0.863c0.012,0.141,0.024,0.281,0.037,0.422c0.551,0.19,1.114,0.576,1.646,0.539
			c1.548-0.11,3.109-0.288,4.621-0.624c1.224-0.275,2.393-0.82,3.77-1.316C279.117,289.461,279.153,290.765,279.08,292.062z
			 M289.264,265.568c-0.172,0.416-0.129,0.93-0.129,1.408c-0.006,9.694,0,19.388,0,29.083c0,0.459,0,0.924,0,1.554
			c-2.846-0.899-5.483-1.731-8.115-2.595c-0.208-0.067-0.392-0.397-0.459-0.637c-0.08-0.306-0.031-0.654-0.031-0.985
			c0.012-11.451,0.024-22.901,0.037-34.352c0-0.398,0-0.795,0-1.346c0.783,0.153,1.463,0.238,2.111,0.428
			c3.715,1.089,7.429,2.172,11.126,3.329c0.967,0.3,1.879,0.814,2.771,1.31c2.92,1.622,4.604,4.094,5.025,7.417
			c0.287,2.301,0.391,4.584-0.35,6.836c-1.26,3.807-4.76,4.877-8.451,3.121c-0.287-0.135-0.471-0.765-0.477-1.169
			c-0.037-3.88,0.012-7.754-0.043-11.634c-0.014-0.765-0.227-1.609-0.607-2.264c-0.225-0.392-0.996-0.71-1.469-0.643
			C289.832,264.466,289.453,265.115,289.264,265.568z M311.504,284.815c1.994,1.322,2.086,2.92,0.086,4.217
			c-1.242,0.802-2.65,1.39-4.045,1.903c-5.35,1.971-10.723,3.874-16.09,5.796c-0.232,0.086-0.484,0.129-0.9,0.245
			c0-1.585-0.049-3.012,0.037-4.425c0.018-0.294,0.471-0.686,0.807-0.809c3.881-1.419,7.773-2.79,11.66-4.18
			c0.514-0.184,1.047-0.343,1.523-0.606c0.287-0.159,0.477-0.49,0.709-0.747c-0.268-0.208-0.508-0.526-0.812-0.6
			c-1.721-0.435-3.416-0.221-5.068,0.354c-2.521,0.876-5.031,1.776-7.545,2.664c-0.367,0.128-0.748,0.238-1.305,0.422
			c0-1.707-0.023-3.262,0.031-4.811c0.006-0.208,0.385-0.508,0.648-0.587c6.586-2.075,13.098-2.007,19.498,0.741
			C311.008,284.497,311.258,284.65,311.504,284.815z"/>
		<path d="M436.988,377.65c-2.639-1.867-5.832-2.999-9.297-3.072v-3.52c0-13.017-9.957-23.593-22.656-24.822
			c-0.807-0.08-1.584-0.245-2.418-0.245h-48.219H220.995h-51.139h-1.206c-13.843,0-25.067,11.225-25.067,25.067v50.135
			c0,13.844,11.224,25.068,25.067,25.068h233.967c13.844,0,25.068-11.225,25.068-25.068v-3.519
			c9.064-0.189,16.365-7.564,16.365-16.677v-3.696v-6.053C444.051,385.624,441.254,380.667,436.988,377.65z M326.154,415.447
			c1.115,1.113,1.115,2.919,0,4.033l-13.801,13.801c-1.113,1.113-2.918,1.113-4.025,0l-15.969-15.968l-15.966,15.968
			c-1.114,1.113-2.919,1.113-4.033,0l-13.8-13.801c-1.114-1.114-1.114-2.92,0-4.033l15.967-15.967l-15.967-15.968
			c-1.114-1.113-1.114-2.919,0-4.033l13.8-13.8c1.114-1.114,2.919-1.114,4.033,0l15.966,15.967l15.969-15.967
			c1.113-1.114,2.918-1.114,4.025,0l13.801,13.8c1.115,1.114,1.115,2.92,0,4.033l-15.967,15.968L326.154,415.447z"/>
	</g>
</g>
<g>
</g>
<g>
</g>
<g>
</g>
<g>
</g>
<g>
</g>
<g>
</g>
<g>
</g>
<g>
</g>
<g>
</g>
<g>
</g>
<g>
</g>
<g>
</g>
<g>
</g>
<g>
</g>
<g>
</g>
</svg>
