<?xml version="1.0" encoding="iso-8859-1"?>
<!-- Generator: Adobe Illustrator 16.0.0, SVG Export Plug-In . SVG Version: 6.00 Build 0)  -->
<!DOCTYPE svg PUBLIC "-//W3C//DTD SVG 1.1//EN" "http://www.w3.org/Graphics/SVG/1.1/DTD/svg11.dtd">
<svg version="1.1" id="Capa_1" xmlns="http://www.w3.org/2000/svg" xmlns:xlink="http://www.w3.org/1999/xlink" x="0px" y="0px"
	 width="580.108px" height="580.109px" viewBox="0 0 580.108 580.109" style="enable-background:new 0 0 580.108 580.109;"
	 xml:space="preserve">
<g>
	<g>
		<path d="M443.565,221.247c25.643,0,49.835,6.304,71.163,17.381c-11.646-59.878-32.858-109.56-45.38-130.307
			c-19.896-32.962-92.944-54.633-116.695-30.882c-23.752,23.752-91.158,21.377-91.158,21.377s-67.406,2.375-91.157-21.377
			c-23.758-23.751-96.8-2.081-116.696,30.882C33.746,141.283-8.121,247.288,1.383,351.212
			c9.498,103.924,58.195,70.667,97.987,38.005c39.786-32.662,52.853-61.169,162.125-61.169c12.748,0,24.131,0.403,34.456,1.138
			C315.89,266.664,374.514,221.247,443.565,221.247z"/>
		<path d="M518.688,262.141c-21.555-14.229-47.362-22.534-75.123-22.534c-59.603,0-110.258,38.201-128.894,91.439
			c-4.944,14.125-7.662,29.297-7.662,45.11c0,75.417,61.139,136.55,136.55,136.55c75.41,0,136.549-61.139,136.549-136.55
			C580.115,328.5,555.69,286.572,518.688,262.141z M486.901,380.484l22.424,22.418l9.981,9.981c2.393,2.393,2.393,6.267,0,8.653
			l-30.349,30.35c-2.394,2.393-6.268,2.393-8.66,0l-32.399-32.405c-2.393-2.394-6.267-2.394-8.653,0l-32.405,32.405
			c-2.387,2.393-6.261,2.393-8.654,0l-30.349-30.35c-2.387-2.393-2.387-6.267,0-8.653l32.405-32.405
			c2.387-2.393,2.387-6.267,0-8.653l-15.606-15.601l-16.799-16.799c-2.387-2.394-2.387-6.268,0-8.654l30.349-30.349
			c2.394-2.393,6.268-2.393,8.654,0l32.405,32.405c2.387,2.393,6.261,2.393,8.653,0l32.399-32.405c2.393-2.393,6.267-2.393,8.66,0
			l30.349,30.349c2.393,2.394,2.393,6.268,0,8.654l-32.399,32.405C484.509,374.217,484.509,378.097,486.901,380.484z"/>
	</g>
</g>
<g>
</g>
<g>
</g>
<g>
</g>
<g>
</g>
<g>
</g>
<g>
</g>
<g>
</g>
<g>
</g>
<g>
</g>
<g>
</g>
<g>
</g>
<g>
</g>
<g>
</g>
<g>
</g>
<g>
</g>
</svg>
