<?xml version="1.0" encoding="iso-8859-1"?>
<!-- Generator: Adobe Illustrator 16.0.0, SVG Export Plug-In . SVG Version: 6.00 Build 0)  -->
<!DOCTYPE svg PUBLIC "-//W3C//DTD SVG 1.1//EN" "http://www.w3.org/Graphics/SVG/1.1/DTD/svg11.dtd">
<svg version="1.1" id="Capa_1" xmlns="http://www.w3.org/2000/svg" xmlns:xlink="http://www.w3.org/1999/xlink" x="0px" y="0px"
	 width="559.389px" height="559.389px" viewBox="0 0 559.389 559.389" style="enable-background:new 0 0 559.389 559.389;"
	 xml:space="preserve">
<g>
	<path d="M124.873,489.813l3.633,3.632l-3.633,3.633l-3.633-3.633L124.873,489.813z M168.71,376.07
		c-3.898,0-7.565,1.519-10.328,4.28c-5.696,5.696-5.696,14.959,0,20.656c5.524,5.522,15.138,5.522,20.662,0
		c5.697-5.697,5.697-14.96,0-20.656C176.282,377.588,172.615,376.064,168.71,376.07z M127.993,416.78
		c-3.899,0-7.566,1.524-10.328,4.28c-5.697,5.696-5.697,14.965,0,20.662c5.523,5.513,15.138,5.513,20.662,0
		c5.696-5.697,5.696-14.966,0-20.662C135.565,418.299,131.904,416.78,127.993,416.78z M101.943,474.16l3.641,3.642l3.642-3.642
		l-3.642-3.642L101.943,474.16z M65.934,430.863l-3.64,3.633l3.634,3.642l3.64-3.634L65.934,430.863z M89.94,454.861l-3.632-3.633
		l-3.633,3.633l3.633,3.633L89.94,454.861z M367.087,170.537c-5.846,0-11.352,2.28-15.495,6.418c-8.548,8.548-8.548,22.447,0,30.99
		c8.286,8.274,22.717,8.269,30.99,0c4.138-4.138,6.417-9.644,6.417-15.495s-2.279-11.358-6.417-15.502
		C378.445,172.806,372.944,170.537,367.087,170.537z M451.302,122.463l17.459-17.46c0.613-0.613,0.613-1.607,0-2.214l-12.16-12.162
		c-0.597-0.595-1.633-0.589-2.216-0.006l-17.46,17.46l-17.453-17.448c-0.298-0.298-0.689-0.458-1.112-0.458s-0.815,0.16-1.107,0.452
		l-12.167,12.168c-0.298,0.297-0.459,0.69-0.459,1.113c0,0.41,0.161,0.81,0.453,1.101l17.459,17.466l-17.453,17.453
		c-0.298,0.298-0.459,0.691-0.459,1.107c-0.006,0.423,0.161,0.821,0.459,1.119l12.161,12.162c0.596,0.595,1.619,0.601,2.228-0.006
		l17.446-17.454l17.454,17.454c0.595,0.595,1.625,0.595,2.22,0l12.162-12.156c0.613-0.613,0.613-1.613,0-2.22L451.302,122.463z
		 M552.732,119.344L297.177,374.897h-31.502c-20.013,0-36.288,16.281-36.288,36.288v31.496l-110.048,110.05
		c-8.876,8.876-23.27,8.876-32.146,0L6.657,472.196c-8.876-8.876-8.876-23.27,0-32.146L440.045,6.657
		c8.875-8.876,23.271-8.876,32.146,0l80.542,80.541C561.607,96.074,561.607,110.468,552.732,119.344z M234.316,306.856
		c2.571,2.572,6.561-1.416,3.989-3.987C235.728,300.297,231.744,304.285,234.316,306.856z M77.608,454.866l8.691,8.691l8.679-8.691
		l-8.679-8.679L77.608,454.866z M91.056,490.978c-0.227-0.697-0.81-1.405-1.44-1.78c-1.244-0.731-2.887-0.397-3.703,0.75
		c-0.672,0.94-0.69,2.286-0.053,3.25c0.416,0.625,1.25,1.186,2.006,1.353c1.375,0.298,2.821-0.577,3.227-1.946
		C91.211,492.202,91.192,491.388,91.056,490.978z M57.256,434.515l8.691,8.68l8.69-8.68l-8.69-8.686L57.256,434.515z
		 M66.786,497.626c0.715-0.269,4.28-2.238,14.811-8.19c2.202-1.244,4.042-2.28,4.078-2.298c0.053-0.024-0.322-0.429-1.81-1.911
		l-1.876-1.875l-7.452,4.423c-4.644,2.756-7.436,4.388-7.412,4.321c0.024-0.053,1.138-1.964,2.471-4.238
		c3.959-6.756,4.959-8.506,5.215-9.106c0.417-0.982,0.375-1.982-0.113-2.815c-0.232-0.394-0.964-1.125-1.363-1.357
		c-0.762-0.445-1.702-0.518-2.602-0.195c-0.666,0.237-2.006,1-10.232,5.814l-3.465,2.03l4.417-7.436
		c2.429-4.09,4.417-7.458,4.417-7.494s-0.833-0.888-1.857-1.899l-1.856-1.839l-1.066,1.887c-7.102,12.566-9.065,16.091-9.399,16.854
		c-0.494,1.137-0.458,2.57,0.09,3.536c0.214,0.368,0.97,1.125,1.363,1.356c1.095,0.644,2.482,0.571,3.982-0.209
		c0.696-0.362,3.167-1.75,7.923-4.464c2.167-1.238,3.917-2.209,3.899-2.161c-0.019,0.048-0.869,1.536-1.881,3.311
		c-4.311,7.535-4.936,8.66-5.203,9.459c-0.167,0.487-0.202,0.708-0.202,1.298c0,0.756,0.095,1.153,0.422,1.708
		c0.232,0.398,0.929,1.09,1.328,1.321C64.369,498.02,65.584,498.085,66.786,497.626z M74.828,508.758l5.673-5.667l5.674-5.673
		l-1.769-1.769l-1.762-1.769l-5.673,5.667l-5.673,5.674l1.768,1.768L74.828,508.758z M93.271,504.525l-1.763-1.768l-1.762-1.77
		l-5.673,5.668L78.4,512.33l1.768,1.762l1.762,1.768l5.674-5.673L93.271,504.525z M98.163,498.072
		c-0.226-0.689-0.804-1.404-1.44-1.773c-0.958-0.565-2.196-0.506-3.102,0.143c-1.185,0.846-1.482,2.613-0.654,3.857
		c0.416,0.625,1.244,1.185,2.006,1.352c1.381,0.305,2.852-0.595,3.227-1.971C98.313,499.252,98.294,498.488,98.163,498.072z
		 M114.272,474.153l-8.685-8.685l-8.686,8.685l8.686,8.687L114.272,474.153z M133.553,493.441l-8.679-8.679l-8.691,8.679
		l8.691,8.691L133.553,493.441z M142.542,416.847c-7.769-7.77-21.312-7.774-29.08,0c-8.019,8.019-8.019,21.062,0,29.08
		c3.882,3.887,9.049,6.022,14.537,6.022c5.488,0,10.655-2.143,14.536-6.022C150.548,437.907,150.548,424.864,142.542,416.847z
		 M183.259,376.136c-7.769-7.774-21.316-7.763-29.079,0c-8.019,8.019-8.019,21.055,0,29.073c3.881,3.888,9.042,6.029,14.536,6.029
		c5.482,0,10.655-2.148,14.537-6.029C191.267,397.195,191.267,384.153,183.259,376.136z M199.242,341.937
		c-2.227-2.226-5.679,1.222-3.453,3.447C198.01,347.609,201.469,344.163,199.242,341.937z M204.088,337.085
		c2.571,2.572,6.561-1.416,3.988-3.988C205.498,330.525,201.517,334.514,204.088,337.085z M208.44,351.14
		c-2.228-2.227-5.681,1.221-3.453,3.447C207.213,356.812,210.665,353.366,208.44,351.14z M217.445,360.152
		c-2.22-2.227-5.673,1.222-3.446,3.446C216.227,365.819,219.666,362.379,217.445,360.152z M217.482,342.098
		c-2.84-2.834-7.232,1.565-4.399,4.399C215.916,349.33,220.321,344.931,217.482,342.098z M218.452,322.721
		c-3.334-3.327-8.495,1.834-5.168,5.168C216.618,331.216,221.785,326.049,218.452,322.721z M226.285,351.312
		c-2.571-2.57-6.56,1.417-3.988,3.988C224.869,357.872,228.858,353.884,226.285,351.312z M227.654,331.924
		c-3.333-3.327-8.494,1.834-5.167,5.167C225.816,340.419,230.988,335.252,227.654,331.924z M229.103,312.07
		c-3.334-3.326-8.501,1.835-5.167,5.167C227.269,320.566,232.436,315.399,229.103,312.07z M236.667,340.931
		c-3.333-3.327-8.5,1.834-5.167,5.167C234.828,349.432,240.001,344.259,236.667,340.931z M238.306,321.274
		c-3.335-3.326-8.502,1.834-5.168,5.167C236.471,329.77,241.638,324.603,238.306,321.274z M247.312,330.281
		c-3.333-3.328-8.5,1.833-5.167,5.167C245.479,338.782,250.646,333.608,247.312,330.281z M247.71,311.869
		c-2.84-2.834-7.239,1.564-4.398,4.398C246.146,319.102,250.543,314.703,247.71,311.869z M243.145,298.023
		c2.227,2.227,5.679-1.221,3.452-3.446C244.376,292.35,240.924,295.803,243.145,298.023z M256.515,321.084
		c-2.571-2.571-6.561,1.417-3.988,3.988C255.097,327.645,259.085,323.656,256.515,321.084z M252.347,307.226
		c2.228,2.228,5.68-1.22,3.453-3.446C253.579,301.553,250.126,305.006,252.347,307.226z M264.806,312.792
		c-2.22-2.228-5.673,1.22-3.445,3.446C263.586,318.459,267.026,315.019,264.806,312.792z M270.009,249.656
		c3-2.994,4.649-6.977,4.644-11.215c0-4.232-1.648-8.215-4.644-11.209c-5.981-5.983-16.424-5.989-22.424,0
		c-2.994,2.994-4.644,6.977-4.644,11.209c0,4.238,1.648,8.221,4.644,11.215c2.995,2.994,6.978,4.645,11.209,4.645
		C263.032,254.3,267.016,252.645,270.009,249.656z M301.082,258.3c-5.981-5.982-16.43-5.994-22.424,0
		c-2.994,2.994-4.645,6.977-4.645,11.215c0,4.232,1.649,8.215,4.645,11.208c2.995,2.994,6.977,4.645,11.209,4.645
		c4.238,0,8.221-1.649,11.215-4.645C307.262,274.545,307.262,264.485,301.082,258.3z M337.864,301.653
		c0-4.231-1.648-8.215-4.644-11.209c-5.981-5.982-16.43-5.988-22.425,0c-2.994,2.994-4.643,6.978-4.643,11.209
		c0,4.238,1.647,8.222,4.643,11.216c2.995,3,6.979,4.648,11.21,4.648c4.238,0,8.222-1.648,11.215-4.648
		C336.222,309.875,337.871,305.893,337.864,301.653z M394.958,192.462c0-7.447-2.898-14.447-8.161-19.71s-12.263-8.161-19.71-8.161
		c-7.44,0-14.44,2.897-19.704,8.161c-10.862,10.864-10.862,28.544,0,39.407c5.264,5.263,12.264,8.155,19.704,8.155
		c7.447,0,14.447-2.893,19.71-8.155C392.06,206.898,394.958,199.897,394.958,192.462z M472.964,135.696l-13.251-13.244
		l13.251-13.251c2.93-2.929,2.93-7.703,0-10.632l-12.162-12.162c-2.852-2.852-7.804-2.852-10.638,0l-13.245,13.245l-13.244-13.245
		c-2.852-2.852-7.805-2.852-10.638,0l-12.156,12.156c-1.429,1.429-2.208,3.315-2.208,5.327c0,2.007,0.779,3.899,2.202,5.316
		l13.245,13.251l-13.239,13.238c-1.423,1.423-2.208,3.311-2.208,5.322c-0.006,2.012,0.779,3.905,2.202,5.328l12.162,12.161
		c1.422,1.417,3.31,2.202,5.321,2.202c2.006,0,3.898-0.785,5.322-2.202l13.243-13.251l13.239,13.239
		c2.846,2.857,7.792,2.857,10.645,0.006l12.168-12.161C475.899,143.404,475.899,138.637,472.964,135.696z M477.685,38.088
		c0.007-4.238-1.644-8.221-4.644-11.215c-5.981-5.983-16.43-5.989-22.425,0c-2.994,2.994-4.643,6.977-4.643,11.215
		c0,4.232,1.647,8.215,4.643,11.209c2.995,2.994,6.978,4.644,11.21,4.644c4.238,0,8.221-1.649,11.215-4.644
		C476.035,46.302,477.691,42.321,477.685,38.088z M461.826,28.183c-2.644,0-5.126,1.029-7.001,2.898s-2.898,4.352-2.898,7.007
		c0,2.643,1.029,5.125,2.898,7c3.75,3.744,10.269,3.744,14.007,0c1.869-1.869,2.899-4.357,2.899-7
		c0.006-2.644-1.03-5.132-2.899-7.007S464.481,28.183,461.826,28.183z M322.007,291.755c-2.644,0-5.126,1.029-7.001,2.897
		c-1.875,1.869-2.898,4.353-2.898,7.002c0,2.647,1.029,5.131,2.898,7.006c3.75,3.751,10.27,3.745,14.007,0
		c1.869-1.869,2.905-4.357,2.899-7.006c0-2.639-1.03-5.127-2.899-7.002C327.145,292.777,324.655,291.755,322.007,291.755z
		 M289.867,259.61c-2.643,0-5.125,1.029-7,2.898c-1.876,1.87-2.899,4.352-2.899,7.007c0,2.644,1.029,5.125,2.899,7.001
		c3.75,3.75,10.269,3.738,14.007,0c3.857-3.857,3.857-10.144,0-14.008C294.999,260.639,292.518,259.61,289.867,259.61z
		 M258.794,228.542c-2.644,0-5.126,1.029-7.001,2.898s-2.897,4.352-2.897,7.001c0,2.648,1.028,5.131,2.897,7.006
		c3.744,3.751,10.263,3.738,14.007,0c1.869-1.869,2.905-4.356,2.899-7.006c0-2.638-1.03-5.126-2.899-7.001
		S261.442,228.542,258.794,228.542z M533.551,430.818v9.482c0,8.864-7.102,16.037-15.917,16.222v3.423
		c0,13.465-10.918,24.383-24.383,24.383H265.669c-13.471,0-24.383-10.918-24.383-24.383v-29.175V411.18
		c0-13.465,10.918-24.383,24.383-24.383h19.598h207.984c13.465,0,24.383,10.918,24.383,24.383v3.423
		C526.449,414.786,533.551,421.96,533.551,430.818z M325.84,416.341c0-7.834-6.356-14.191-14.19-14.191h-38.443
		c-1.363,0-2.654,0.256-3.905,0.613c-4.679,1.345-8.326,4.994-9.673,9.673c-0.363,1.25-0.613,2.542-0.613,3.905v38.442
		c0,7.834,6.353,14.191,14.191,14.191h38.443c7.834,0,14.19-6.352,14.19-14.191V416.341z"/>
</g>
<g>
</g>
<g>
</g>
<g>
</g>
<g>
</g>
<g>
</g>
<g>
</g>
<g>
</g>
<g>
</g>
<g>
</g>
<g>
</g>
<g>
</g>
<g>
</g>
<g>
</g>
<g>
</g>
<g>
</g>
</svg>
