<?xml version="1.0" encoding="iso-8859-1"?>
<!-- Generator: Adobe Illustrator 16.0.0, SVG Export Plug-In . SVG Version: 6.00 Build 0)  -->
<!DOCTYPE svg PUBLIC "-//W3C//DTD SVG 1.1//EN" "http://www.w3.org/Graphics/SVG/1.1/DTD/svg11.dtd">
<svg version="1.1" id="Capa_1" xmlns="http://www.w3.org/2000/svg" xmlns:xlink="http://www.w3.org/1999/xlink" x="0px" y="0px"
	 width="578.563px" height="578.563px" viewBox="0 0 578.563 578.563" style="enable-background:new 0 0 578.563 578.563;"
	 xml:space="preserve">
<g>
	<g>
		<circle cx="286.912" cy="236.603" r="7.797"/>
		<circle cx="502.874" cy="236.786" r="16.585"/>
		<path d="M356.845,296.622c-14.92,0-27.062,12.136-27.062,27.062s12.143,27.062,27.062,27.062
			c14.921,0,27.062-12.136,27.062-27.062S371.766,296.622,356.845,296.622z"/>
		<path d="M562.367,255.012c-0.337-2.742-0.741-5.459-1.243-8.146c-0.281-1.493-0.575-2.98-0.905-4.456
			c-0.588-2.656-1.273-5.269-2.02-7.858c-0.44-1.53-0.888-3.054-1.383-4.56c-0.925-2.809-1.935-5.569-3.036-8.292
			c-0.605-1.5-1.261-2.974-1.922-4.449c-0.905-2.014-1.866-3.99-2.864-5.942c-0.71-1.396-1.389-2.809-2.147-4.174
			c-1.561-2.809-3.237-5.539-4.994-8.219c-0.998-1.524-2.062-2.993-3.121-4.468c-1.047-1.462-2.118-2.901-3.226-4.314
			c-1.181-1.512-2.356-3.023-3.599-4.486c-1.31-1.536-2.687-2.999-4.063-4.474c-2.111-2.265-4.296-4.443-6.561-6.555
			c-1.04-0.967-2.087-1.934-3.158-2.87c-1.652-1.438-3.316-2.852-5.036-4.211c-0.912-0.716-1.86-1.389-2.791-2.087
			c-3.269-2.448-6.652-4.743-10.147-6.885c-0.979-0.6-1.945-1.212-2.938-1.787c-2.001-1.157-4.033-2.258-6.102-3.311
			c-1.034-0.526-2.099-1.016-3.151-1.518c-1.946-0.924-3.85-1.91-5.845-2.742c0.006-2.699-0.808-6.512-5.055-8.666
			c-7.021-3.568-48.33-10.71-61.592-8.672c-8.238,1.267-10.502,4.822-11.041,7.338c-3.133,0.061-6.377,0.141-9.688,0.238
			c-0.208,0.006-0.416,0.013-0.625,0.019c-3.176,0.098-6.377,0.22-9.553,0.367c-0.318,0.012-0.624,0.031-0.937,0.049
			c-3.134,0.153-6.224,0.324-9.198,0.533c-0.238,0.018-0.465,0.037-0.704,0.055c-3.054,0.22-5.997,0.465-8.709,0.752
			c-0.562,0.061-1.144,0.123-1.737,0.178c0-0.025,0-0.043,0-0.067c-0.067-1.028-1.047-1.922-2.656-2.613
			c-1.077-0.459-2.436-0.826-3.996-1.083c-1.561-0.257-3.33-0.397-5.227-0.404c-0.949-0.006-1.922,0.024-2.926,0.092
			c-7.992,0.533-14.32,3.195-14.137,5.937c0,0.018,0.006,0.037,0.006,0.061c-4.192,0.202-8.396,0.374-12.454,0.533
			c-4.058,0.159-7.975,0.293-11.604,0.41c-2.418,0.08-4.7,0.147-6.812,0.208c-2.846,0.08-5.343,0.147-7.442,0.196
			c-0.061-0.343-0.061-0.661-0.152-1.016c-12.05-47.803,64.608-51.512,51.334-101.347c-4.063-15.239-27.675-8.764-23.604,6.505
			c5.765,21.641-33.018,33.96-43.017,49.486c-9.217,14.315-12.271,29.755-9.504,46.041c-6.426-0.196-13.954-0.459-21.683-0.796
			c-2.944-0.128-5.912-0.269-8.856-0.416c0-0.336-0.104-0.673-0.293-1.003c-0.563-0.992-1.928-1.928-3.837-2.718
			c-2.552-1.046-6.077-1.823-10.012-2.087c-0.961-0.061-1.897-0.098-2.809-0.092c-0.912,0-1.793,0.031-2.638,0.092
			c-1.689,0.123-3.231,0.355-4.553,0.686c-2.644,0.667-4.413,1.714-4.743,2.993c-1.555-0.147-3.164-0.288-4.816-0.416
			c-0.673-0.055-1.377-0.098-2.062-0.147c-1.016-0.073-2.026-0.147-3.066-0.214c-0.526-0.031-1.071-0.062-1.604-0.092
			c-1.224-0.074-2.442-0.147-3.685-0.208c-0.6-0.03-1.206-0.055-1.812-0.085c-1.193-0.055-2.387-0.116-3.592-0.165
			c-0.532-0.025-1.071-0.037-1.604-0.062c-1.291-0.049-2.576-0.098-3.862-0.141c-0.367-0.012-0.728-0.019-1.089-0.031
			c-1.438-0.042-2.87-0.092-4.29-0.128c-0.306-0.006-0.594-0.012-0.899-0.019c-1.481-0.037-2.95-0.073-4.388-0.098
			c-0.11,0-0.214-0.006-0.324-0.006c-1.61-0.03-3.188-0.061-4.725-0.08c-0.569-2.509-2.864-6.01-11.016-7.264
			c-13.25-2.007-54.56,5.135-61.579,8.703c-5.521,2.809-5.27,8.396-4.909,10.679c-0.042,0.019-0.085,0.043-0.128,0.062
			c-5.012,2.313-9.841,4.933-14.486,7.833c-0.098,0.061-0.196,0.116-0.294,0.177c-6.867,4.309-13.287,9.223-19.229,14.688
			c-0.293,0.27-0.594,0.533-0.887,0.808c-1.928,1.805-3.813,3.647-5.63,5.569c-0.074,0.08-0.147,0.166-0.221,0.245
			c-3.366,3.562-6.505,7.326-9.461,11.242c-0.551,0.729-1.107,1.457-1.64,2.197c-1.377,1.91-2.717,3.837-3.996,5.82
			c-0.49,0.765-0.937,1.554-1.414,2.325c-2.068,3.366-3.99,6.818-5.752,10.374c-0.63,1.267-1.255,2.54-1.842,3.831
			c-0.869,1.897-1.713,3.794-2.491,5.741c-0.734,1.824-1.383,3.69-2.032,5.557c-0.949,2.717-1.812,5.465-2.589,8.262
			c-0.471,1.708-0.924,3.427-1.328,5.166c-0.44,1.879-0.869,3.757-1.23,5.673c-0.576,3.066-1.059,6.163-1.42,9.296l-0.043-0.037
			c0,0-26.928,128.27-11.401,223.65c16.065,98.685,66.555,72.675,96.39,6.12c23.477-52.369,27.063-74.829,38.74-82.712
			C91.5,396.25,41.17,368.661,27.596,316.824c-0.429-1.64,0.551-3.311,2.185-3.733c1.64-0.446,3.305,0.551,3.733,2.179
			c0.306,1.169,0.753,2.246,1.095,3.385c16.078,53.195,74.163,78.397,124.328,79.964c1.665,0.049,3.348,0.153,4.994,0.153
			c0.129,0,0.233,0.055,0.355,0.073c1.64-0.098,3.348-0.196,5.147-0.3c2.105-0.123,4.284-0.257,6.567-0.392
			c0.808-0.049,1.628-0.099,2.448-0.147c0.985-0.061,1.977-0.122,2.993-0.184c0.71-0.043,1.414-0.085,2.136-0.135
			c1.107-0.067,2.221-0.141,3.341-0.208c0.716-0.043,1.42-0.092,2.136-0.135c1.787-0.116,3.586-0.226,5.398-0.349
			c0.306-0.019,0.612-0.043,0.918-0.061c1.518-0.099,3.036-0.202,4.56-0.301c0.728-0.049,1.457-0.098,2.185-0.146
			c1.163-0.079,2.313-0.159,3.47-0.232c0.734-0.049,1.463-0.098,2.191-0.153c1.23-0.086,2.454-0.171,3.672-0.257
			c0.612-0.043,1.23-0.086,1.836-0.129c1.817-0.128,3.623-0.263,5.385-0.392c30.784-2.307,70.729-2.962,70.729-2.962
			s39.945,0.655,70.722,2.95c1.763,0.128,3.556,0.263,5.367,0.392c0.612,0.043,1.23,0.086,1.849,0.129
			c1.229,0.085,2.46,0.171,3.702,0.257c0.661,0.043,1.316,0.092,1.977,0.135c1.285,0.085,2.577,0.177,3.874,0.263
			c0.624,0.043,1.243,0.086,1.867,0.123c3.647,0.244,7.289,0.477,10.856,0.703c0.747,0.049,1.481,0.092,2.222,0.141
			c1.102,0.067,2.191,0.141,3.274,0.208c0.783,0.05,1.548,0.099,2.319,0.147c0.918,0.055,1.823,0.11,2.724,0.165
			c0.795,0.049,1.597,0.098,2.381,0.146c3.097,0.19,6.059,0.367,8.812,0.526c0.275,0.019,0.532,0.031,0.802,0.05
			c0.942-0.013,1.897-0.062,2.846-0.086c50.165-1.567,108.25-26.77,124.328-79.964c0.343-1.145,0.789-2.216,1.095-3.385
			c0.429-1.634,2.1-2.632,3.733-2.179c1.641,0.423,2.613,2.1,2.185,3.733c-13.219,50.483-61.304,77.956-108.562,85.698
			c12.381,7.356,15.539,29.67,39.578,83.3c29.835,66.555,80.325,92.564,96.391-6.12c14.314-87.933-7.442-203.742-10.931-221.3
			C562.703,257.258,562.508,256.144,562.367,255.012z M163.129,252.76H140.24v22.883c0,3.488-2.839,6.334-6.334,6.334h-22.43
			c-3.495,0-6.334-2.846-6.334-6.334V252.76H82.253c-3.488,0-6.334-2.846-6.334-6.334v-22.423c0-3.488,2.84-6.334,6.334-6.334
			h22.889v-22.882c0-3.489,2.84-6.334,6.334-6.334h22.43c3.488,0,6.334,2.846,6.334,6.334v22.882h22.889
			c3.495,0,6.334,2.846,6.334,6.334v22.423C169.463,249.914,166.624,252.76,163.129,252.76z M259.837,323.073l-12.442,32.087
			c-0.306,0.783-0.912,1.401-1.689,1.726l-31.108,12.772c-0.373,0.147-0.765,0.227-1.163,0.227s-0.79-0.079-1.163-0.227
			l-31.102-12.772c-0.777-0.324-1.389-0.942-1.689-1.726l-12.442-32.087c-0.3-0.771-0.269-1.635,0.074-2.387l13.421-29.138
			c0.325-0.71,0.912-1.268,1.64-1.561l30.123-12.112c0.728-0.3,1.548-0.3,2.283,0l30.123,12.112c0.728,0.293,1.31,0.851,1.64,1.561
			l13.421,29.138C260.106,321.445,260.137,322.302,259.837,323.073z M247.377,250.52c-7.668,0-13.911-6.243-13.911-13.911
			c0-7.668,6.242-13.917,13.911-13.917c7.675,0,13.917,6.249,13.917,13.917C261.294,244.277,255.052,250.52,247.377,250.52z
			 M268.914,203.151c-0.563,0.147-1.916,0.147-2.43,0.006c-1.347-0.374-2.663-1.622-3.244-3.079
			c-0.386-0.979-1.781-5.887-6.665-23.464l-0.734-2.638l3.305-0.019c1.817-0.012,3.329,0.006,3.36,0.037
			c0.03,0.03,1.267,4.822,2.748,10.648l2.699,10.588l1.285-4.908c3.048-11.659,3.562-13.538,3.947-14.346
			c0.521-1.089,1.426-1.866,2.497-2.148c0.569-0.147,1.873-0.147,2.43,0c1.187,0.306,2.111,1.163,2.619,2.417
			c0.312,0.765,0.979,3.231,3.476,12.809c0.845,3.225,1.555,5.924,1.585,5.998c0.03,0.08,1.077-3.88,2.766-10.49l2.711-10.618h3.359
			c2.656,0,3.354,0.019,3.323,0.092c-0.019,0.049-0.734,2.613-1.591,5.698c-4.095,14.737-5.515,19.688-5.918,20.557
			c-0.679,1.481-1.824,2.515-3.188,2.87c-0.569,0.147-1.805,0.147-2.368,0c-0.784-0.202-1.23-0.477-1.91-1.15
			c-0.526-0.526-0.691-0.753-0.979-1.34c-0.471-0.955-0.924-2.515-3.807-13.109c-0.679-2.491-1.255-4.578-1.273-4.639
			c-0.019-0.061-0.722,2.375-1.555,5.417c-1.83,6.677-2.791,10.128-3.09,11.071C271.637,201.443,270.461,202.753,268.914,203.151z
			 M286.912,250.52c-7.674,0-13.917-6.243-13.917-13.911c0-7.668,6.242-13.917,13.917-13.917c7.674,0,13.917,6.249,13.917,13.917
			C300.829,244.277,294.586,250.52,286.912,250.52z M307.573,192.912v10.135h-3.158h-3.158v-10.135v-10.135h3.158h3.158V192.912z
			 M306.532,178.689c-0.826,0.532-2.068,0.771-3.005,0.582c-1.432-0.288-2.613-1.512-2.857-2.956
			c-0.294-1.757,0.875-3.519,2.638-3.978c0.899-0.233,2.05-0.11,2.876,0.306c0.489,0.25,1.236,0.967,1.493,1.426
			C308.534,175.66,308.025,177.735,306.532,178.689z M327.487,222.686c7.675,0,13.917,6.249,13.917,13.917
			s-6.242,13.911-13.917,13.911s-13.917-6.242-13.917-13.911S319.812,222.686,327.487,222.686z M313.962,203.047v-10.135v-10.135
			h3.158h3.158v10.135v10.135h-3.158H313.962L313.962,203.047z M316.006,172.343c0.9-0.232,2.051-0.11,2.871,0.3
			c0.495,0.25,1.193,0.918,1.469,1.401c0.894,1.566,0.385,3.678-1.12,4.645c-0.826,0.532-2.068,0.771-3.005,0.582
			c-1.854-0.374-3.164-2.222-2.864-4.033C313.589,173.854,314.642,172.698,316.006,172.343z M403.736,323.073l-12.441,32.087
			c-0.307,0.783-0.912,1.401-1.689,1.726l-31.108,12.772c-0.373,0.147-0.765,0.227-1.162,0.227c-0.398,0-0.79-0.079-1.163-0.227
			l-31.108-12.772c-0.776-0.324-1.389-0.942-1.688-1.726l-12.442-32.087c-0.3-0.771-0.27-1.635,0.073-2.387l13.422-29.138
			c0.324-0.71,0.911-1.268,1.64-1.561l30.123-12.112c0.728-0.3,1.548-0.3,2.282,0l30.123,12.112c0.729,0.293,1.31,0.851,1.64,1.561
			l13.428,29.138C404.012,321.445,404.036,322.302,403.736,323.073z M398.424,259.492c-12.521,0-22.705-10.184-22.705-22.705
			s10.184-22.705,22.705-22.705s22.706,10.184,22.706,22.705S410.945,259.492,398.424,259.492z M450.487,298.396
			c-12.521,0-22.705-10.184-22.705-22.705s10.184-22.705,22.705-22.705s22.705,10.184,22.705,22.705
			S463.009,298.396,450.487,298.396z M450.487,220.581c-12.521,0-22.705-10.184-22.705-22.705s10.184-22.705,22.705-22.705
			s22.705,10.184,22.705,22.705S463.009,220.581,450.487,220.581z M502.874,259.492c-12.521,0-22.705-10.184-22.705-22.705
			s10.184-22.705,22.705-22.705s22.705,10.184,22.705,22.705S515.396,259.492,502.874,259.492z"/>
		<path d="M357.335,284.015l-27.853,11.2l-12.368,26.854l11.493,29.657l28.728,11.8l28.727-11.8l11.5-29.657l-12.375-26.854
			L357.335,284.015z M356.845,356.867c-18.299,0-33.183-14.89-33.183-33.183s14.884-33.183,33.183-33.183
			s33.183,14.89,33.183,33.183S375.144,356.867,356.845,356.867z"/>
		<circle cx="247.377" cy="236.603" r="7.797"/>
		<path d="M212.946,296.622c-14.92,0-27.062,12.136-27.062,27.062s12.142,27.062,27.062,27.062
			c14.921,0,27.063-12.136,27.063-27.062S227.867,296.622,212.946,296.622z"/>
		<path d="M134.12,194.779l-22.638-0.214l-0.214,29.217H82.259l-0.214,22.638l29.217,0.214v29.002l22.644,0.214
			c0.122,0,0.214-0.098,0.214-0.214v-29.002h29.009l0.214-22.638l-29.223-0.214V194.779L134.12,194.779z"/>
		<circle cx="450.487" cy="197.876" r="16.585"/>
		<circle cx="327.487" cy="236.603" r="7.797"/>
		<path d="M213.436,284.015l-27.852,11.2l-12.369,26.854l11.5,29.657l28.721,11.8l28.727-11.8l11.5-29.657l-12.368-26.854
			L213.436,284.015z M212.946,356.867c-18.299,0-33.183-14.89-33.183-33.183s14.884-33.183,33.183-33.183
			s33.183,14.89,33.183,33.183S231.245,356.867,212.946,356.867z"/>
		<circle cx="450.487" cy="275.691" r="16.585"/>
		<circle cx="398.424" cy="236.786" r="16.585"/>
	</g>
</g>
<g>
</g>
<g>
</g>
<g>
</g>
<g>
</g>
<g>
</g>
<g>
</g>
<g>
</g>
<g>
</g>
<g>
</g>
<g>
</g>
<g>
</g>
<g>
</g>
<g>
</g>
<g>
</g>
<g>
</g>
</svg>
