<?xml version="1.0" encoding="iso-8859-1"?>
<!-- Generator: Adobe Illustrator 16.0.0, SVG Export Plug-In . SVG Version: 6.00 Build 0)  -->
<!DOCTYPE svg PUBLIC "-//W3C//DTD SVG 1.1//EN" "http://www.w3.org/Graphics/SVG/1.1/DTD/svg11.dtd">
<svg version="1.1" id="Capa_1" xmlns="http://www.w3.org/2000/svg" xmlns:xlink="http://www.w3.org/1999/xlink" x="0px" y="0px"
	 width="589.154px" height="589.154px" viewBox="0 0 589.154 589.154" style="enable-background:new 0 0 589.154 589.154;"
	 xml:space="preserve">
<g>
	<g>
		<path d="M96.066,251.914c0.502-1.034,0.569-2.203,0.232-3.439c-0.367-1.267-1.671-2.038-3.904-2.301h-7.516v7.448h7.65
			C94.365,253.518,95.564,252.949,96.066,251.914z"/>
		<path d="M171.299,264.001c1.2,1.199,2.675,1.805,4.376,1.805s3.17-0.6,4.376-1.805c1.199-1.2,1.799-2.668,1.799-4.376
			c0-1.701-0.6-3.17-1.799-4.376c-1.206-1.199-2.675-1.805-4.376-1.805s-3.176,0.6-4.376,1.805c-1.199,1.2-1.799,2.668-1.799,4.376
			C169.494,261.327,170.1,262.795,171.299,264.001z"/>
		<path d="M194.904,265.604c1.836,0,3.409-0.967,4.712-2.938s1.934-4.375,1.934-7.215s-0.667-5.245-1.971-7.179
			c-1.334-1.934-2.907-2.907-4.743-2.907s-3.335,0.967-4.578,2.907c-1.236,1.934-1.873,4.339-1.873,7.179s0.636,5.245,1.903,7.215
			C191.532,264.638,193.068,265.604,194.904,265.604z"/>
		<path d="M112.626,245.403c-2.301,0-4.241,0.967-5.875,2.907c-1.634,1.971-2.436,4.309-2.436,7.081c0,2.772,0.802,5.11,2.436,7.044
			c1.64,1.971,3.574,2.938,5.875,2.938c2.301,0,4.241-0.967,5.875-2.938c1.64-1.934,2.436-4.272,2.436-7.044
			c0-2.772-0.802-5.11-2.436-7.081C116.868,246.37,114.928,245.403,112.626,245.403z"/>
		<path d="M92.694,256.223h-7.815v8.581h8.017c1.102-0.098,2.069-0.502,2.907-1.2c0.967-0.833,1.469-1.805,1.469-2.907
			c0.031-1.438-0.502-2.57-1.604-3.409C94.897,256.651,93.893,256.284,92.694,256.223z"/>
		<path d="M557.135,204.925H357.531h-3.061h-3.061v23.311h-3.059h-3.061v-23.311H32.02c-14.645,0-26.861,9.89-30.667,23.311h-0.74
			v2.656C0.233,232.856,0,234.87,0,236.938v115.27c0,17.682,14.333,32.021,32.02,32.021h313.271v-100.95h3.061h3.059v100.95h3.061
			h3.061h199.604c17.686,0,32.02-14.334,32.02-32.021v-115.27C589.154,219.258,574.814,204.925,557.135,204.925z M357.531,280.219
			h-3.061h-3.061h-3.059h-3.061H3.672v-6.609h341.619h3.061h3.059h3.061h3.061h47.479c9.848,0,17.857-8.011,17.857-17.852
			c0-9.841-8.01-17.858-17.857-17.858h-47.479h-3.061h-3.061h-3.059h-3.061H3.672v-6.609h341.619h3.061h3.059h3.061h3.061h47.479
			c13.488,0,24.461,10.973,24.461,24.468s-10.973,24.461-24.461,24.461H357.531z M47.014,249.919
			c0.361-1.989,5.526-3.708,5.655-4.063c2.723,2.448,4.468,5.961,4.468,9.908c0,3.905-1.702,7.387-4.376,9.829
			C56.225,258.885,47.014,249.919,47.014,249.919z M52.724,265.623c-2.375,2.154-5.496,3.507-8.954,3.507
			c-3.562,0-6.775-1.414-9.174-3.684c0.067-1.188,0.863-6.163,9.058-12.497C52.62,259.87,52.73,265.127,52.724,265.623z
			 M43.654,246.626c-0.582-0.416-3.568-2.276-7.932-1.481c2.246-1.701,5.012-2.754,8.042-2.754c3.042,0,5.82,1.059,8.066,2.772
			C47.32,244.24,44.248,246.198,43.654,246.626z M40.3,249.919c0,0-8.954,8.752-5.826,15.422c-2.509-2.429-4.076-5.82-4.076-9.583
			c0-3.886,1.683-7.356,4.333-9.804C35.558,246.486,39.964,248.095,40.3,249.919z M59.799,243.695h3.341l6.879,9.284l6.879-9.284
			h3.342l-8.55,11.518l9.352,12.589h-3.335l-7.681-10.318l-7.681,10.318h-3.335l9.352-12.589L59.799,243.695z M100.436,261.027
			c-0.067,2.24-1.034,3.941-2.907,5.178c-1.499,0.967-3.139,1.505-4.908,1.604H82.002v-11.585h-4.976l1.738-2.607h3.237v-9.92
			h11.591c3.642,0.202,5.575,2.24,5.808,6.077c0,2.436-0.802,4.106-2.405,5.042C99.273,256.388,100.405,258.457,100.436,261.027z
			 M142.816,267.808h-3.335l-7.68-10.318l-7.681,10.318h-3.335l9.351-12.589l-8.549-11.518h3.341l6.879,9.284l6.879-9.284h3.341
			l-8.549,11.518L142.816,267.808z M123.71,255.549c-0.031,3.439-1.102,6.347-3.274,8.752c-1.769,1.971-3.837,3.14-6.211,3.507
			c-0.502,0.098-1.035,0.134-1.604,0.134c-0.569,0-1.065-0.03-1.567-0.134c-2.368-0.367-4.474-1.536-6.249-3.507
			c-2.167-2.405-3.237-5.312-3.237-8.752s1.071-6.346,3.237-8.751c1.371-1.505,2.876-2.54,4.578-3.103
			c1.035-0.337,2.105-0.502,3.238-0.502c1.132,0,2.203,0.165,3.237,0.502c1.701,0.569,3.207,1.603,4.578,3.103
			C122.608,249.209,123.679,252.11,123.71,255.549z M150.663,261.296c0.104,0.936,0.704,1.934,1.873,3.042
			c1.169,1.071,2.601,1.567,4.339,1.469c1.738-0.098,3.201-0.636,4.443-1.604c1.236-1.003,1.836-2.271,1.836-3.776
			c-0.031-1.505-0.667-2.772-1.903-3.874c-0.202-0.165-0.533-0.336-1.004-0.465c-0.501-0.166-1.199-0.27-2.105-0.233
			c-0.937,0-1.836,0.031-2.736,0.098v-2.369c0.502-0.031,1.071-0.031,1.64-0.031c1.567,0,2.938-0.434,4.039-1.267
			c1.102-0.833,1.665-1.873,1.665-3.072s-0.569-2.24-1.665-3.072c-1.102-0.832-2.472-1.267-4.039-1.267
			c-1.573,0-2.876,0.397-3.911,1.236c-1.034,0.802-1.604,1.567-1.671,2.338c-0.067,0.765-0.067,1.267-0.03,1.536h-2.271
			c0.03-0.232,0.067-0.465,0.067-0.704c0-1.769,0.765-3.274,2.271-4.511c1.505-1.236,3.341-1.873,5.477-1.873
			c2.136,0,3.972,0.637,5.478,1.873c1.505,1.236,2.271,2.736,2.271,4.511s-0.765,3.274-2.271,4.51c-0.202,0.166-0.398,0.3-0.6,0.465
			c0.263,0.202,0.532,0.397,0.802,0.636c1.634,1.469,2.472,3.238,2.472,5.275c0,2.038-0.838,3.807-2.472,5.245
			c-1.64,1.469-3.642,2.203-5.979,2.203s-4.339-0.734-5.979-2.203c-1.634-1.438-2.473-3.207-2.473-5.245
			c0-0.3,0.031-0.569,0.067-0.832h2.369C150.564,259.693,150.564,260.329,150.663,261.296z M169.897,253.683
			c1.634-1.634,3.642-2.436,5.942-2.436c2.301,0,4.272,0.802,5.912,2.436c1.634,1.634,2.473,3.641,2.473,5.979
			c0,2.301-0.838,4.309-2.473,5.942c-1.64,1.634-3.604,2.473-5.912,2.473c-2.307,0-4.308-0.833-5.942-2.473
			c-1.64-1.634-2.436-3.641-2.436-5.942c0-0.031,0-0.031,0-0.067c-0.233-2.172-0.233-4.572,0-7.215
			c0.134-2.473,1.034-4.676,2.674-6.609c2.607-2.436,5.575-3.238,8.88-2.338c3.042,1.267,4.712,3.507,4.945,6.677h-2.607
			c-0.196-2.436-1.634-3.972-4.339-4.608c-2.24-0.435-4.039,0.202-5.343,1.836c-1.304,1.634-2.007,3.874-2.068,6.677
			C169.696,253.916,169.793,253.781,169.897,253.683z M186.024,255.384c0-3.47,0.869-6.377,2.607-8.715
			c1.701-2.338,3.77-3.507,6.212-3.507s4.51,1.169,6.249,3.507c1.701,2.338,2.57,5.245,2.57,8.715s-0.869,6.377-2.57,8.715
			c-1.738,2.338-3.807,3.507-6.249,3.507s-4.511-1.169-6.212-3.507C186.893,261.761,186.024,258.86,186.024,255.384z
			 M345.291,270.556v-29.59h3.061h3.059v29.59h-3.059H345.291z M364.623,255.758l10.111-6.292v12.589L364.623,255.758z
			 M376.912,262.049v-12.583h3.066v12.583H376.912z M389.33,255.758c0-6.463,5.238-11.708,11.707-11.708
			c6.463,0,11.709,5.238,11.709,11.708c0,6.469-5.24,11.708-11.709,11.708C394.574,267.465,389.33,262.22,389.33,255.758z
			 M551.137,351.536c0,5.227-4.48,9.479-9.988,9.479H425.965c-5.502,0-9.982-4.252-9.982-9.479v-21.072
			c0-5.227,4.475-9.473,9.982-9.473h115.184c5.502,0,9.988,4.246,9.988,9.473V351.536L551.137,351.536z"/>
		<rect x="449.178" y="327.13" width="18.029" height="27.734"/>
		<path d="M541.148,327.13h-67.797v27.734h67.797c2.117,0,3.838-1.492,3.838-3.328v-21.072
			C544.986,328.628,543.266,327.13,541.148,327.13z"/>
		<path d="M422.127,330.464v21.072c0,1.836,1.721,3.328,3.838,3.328h17.068V327.13h-17.068
			C423.848,327.13,422.127,328.628,422.127,330.464z"/>
	</g>
</g>
<g>
</g>
<g>
</g>
<g>
</g>
<g>
</g>
<g>
</g>
<g>
</g>
<g>
</g>
<g>
</g>
<g>
</g>
<g>
</g>
<g>
</g>
<g>
</g>
<g>
</g>
<g>
</g>
<g>
</g>
</svg>
