<?xml version="1.0" encoding="iso-8859-1"?>
<!-- Generator: Adobe Illustrator 16.0.0, SVG Export Plug-In . SVG Version: 6.00 Build 0)  -->
<!DOCTYPE svg PUBLIC "-//W3C//DTD SVG 1.1//EN" "http://www.w3.org/Graphics/SVG/1.1/DTD/svg11.dtd">
<svg version="1.1" id="Capa_1" xmlns="http://www.w3.org/2000/svg" xmlns:xlink="http://www.w3.org/1999/xlink" x="0px" y="0px"
	 width="559.906px" height="559.906px" viewBox="0 0 559.906 559.906" style="enable-background:new 0 0 559.906 559.906;"
	 xml:space="preserve">
<g>
	<g>
		<path d="M102.33,556.375h128.581c10.141,0,18.36-8.219,18.36-18.359l-0.264-2.963c-23.58-23.237-38.225-55.515-38.225-91.236
			c0-27.596,8.807-53.085,23.647-74.003l-3.017-34.218L249.271,18.36c0-10.141-8.219-18.36-18.36-18.36H102.33
			C92.189,0,83.97,8.219,83.97,18.36l18.36,314.629l-18.36,205.02C83.97,548.156,92.189,556.375,102.33,556.375z M180.978,38.947
			c0-5.073,4.107-9.18,9.18-9.18s9.18,4.106,9.18,9.18v213.276c0,5.073-4.107,9.18-9.18,9.18s-9.18-4.106-9.18-9.18V38.947z
			 M166.62,341.6c18.752,0,33.948,15.202,33.948,33.948c0,18.751-15.202,33.947-33.948,33.947s-33.948-15.202-33.948-33.947
			C132.672,356.796,147.869,341.6,166.62,341.6z"/>
		<circle cx="166.62" cy="375.548" r="11.512"/>
		<path d="M397.827,430.823c0.35,2.246,0.588,4.529,0.588,6.873c0,24.639-20.043,44.688-44.688,44.688
			c-11.512,0-21.99-4.413-29.922-11.592l-46.462,62.271c20.923,16.78,47.472,26.842,76.384,26.842
			c30.227,0,57.834-11.028,79.168-29.204c26.303-22.418,43.041-55.735,43.041-93c0-3.904-0.201-7.76-0.562-11.573l-9.607,0.582
			L397.827,430.823z"/>
		<path d="M396.579,425.113l65.479-16.383l9.785-2.448c-1.549-5.826-3.506-11.476-5.857-16.928l-9.229,4.137l-61.572,27.607
			C395.71,422.408,396.175,423.742,396.579,425.113z"/>
		<path d="M353.728,476.956c21.646,0,39.254-17.607,39.254-39.254s-17.607-39.254-39.254-39.254s-39.254,17.607-39.254,39.254
			C314.474,459.343,332.087,476.956,353.728,476.956z M353.728,417.354c11.236,0,20.342,9.106,20.342,20.343
			s-9.105,20.343-20.342,20.343s-20.344-9.106-20.344-20.343C333.384,426.466,342.497,417.354,353.728,417.354z"/>
		<path d="M303.788,449.881l-61.47,9.346l-10.857,1.652c2.111,15.27,7.252,29.553,14.731,42.308
			c3.917,6.671,8.433,12.949,13.568,18.678l53.784-49.627C308.286,466.057,304.778,458.352,303.788,449.881z"/>
		<path d="M231.603,434.477l8.556,0.288l68.917,2.325c0.324-24.357,20.221-44.082,44.658-44.082c16.695,0,31.254,9.217,38.924,22.81
			l55.605-38.544l8.225-5.698c-21.75-33.733-59.633-56.09-102.754-56.09c-3.189,0-6.316,0.227-9.443,0.472
			c-50.582,3.88-92.467,38.482-107.088,85.239C233.891,411.76,231.902,422.897,231.603,434.477z"/>
	</g>
</g>
<g>
</g>
<g>
</g>
<g>
</g>
<g>
</g>
<g>
</g>
<g>
</g>
<g>
</g>
<g>
</g>
<g>
</g>
<g>
</g>
<g>
</g>
<g>
</g>
<g>
</g>
<g>
</g>
<g>
</g>
</svg>
