<?xml version="1.0" encoding="iso-8859-1"?>
<!-- Generator: Adobe Illustrator 16.0.0, SVG Export Plug-In . SVG Version: 6.00 Build 0)  -->
<!DOCTYPE svg PUBLIC "-//W3C//DTD SVG 1.1//EN" "http://www.w3.org/Graphics/SVG/1.1/DTD/svg11.dtd">
<svg version="1.1" id="Capa_1" xmlns="http://www.w3.org/2000/svg" xmlns:xlink="http://www.w3.org/1999/xlink" x="0px" y="0px"
	 width="565.078px" height="565.078px" viewBox="0 0 565.078 565.078" style="enable-background:new 0 0 565.078 565.078;"
	 xml:space="preserve">
<g>
	<g>
		<path d="M278.846,94.166c58.213,0,110.35,26.493,145.02,68.042V83.302h-282.64v70.588
			C175.699,117.17,224.622,94.166,278.846,94.166z"/>
		<path d="M278.846,471.861c-54.224,0-103.146-23.006-137.621-59.725v70.588h282.64v-78.906
			C389.189,445.367,337.059,471.861,278.846,471.861z"/>
		<path d="M39.015,352.863c6.658,0,12.411-3.715,15.471-9.137c1.457-2.582,2.356-5.514,2.356-8.684s-0.899-6.107-2.356-8.691
			c-3.06-5.428-8.807-9.143-15.471-9.143c-9.829,0-17.828,7.998-17.828,17.828C21.181,344.871,29.18,352.863,39.015,352.863z"/>
		<path d="M135.105,482.73v-77.43c-28.097-32.975-45.11-75.674-45.11-122.291c0-46.616,17.014-89.309,45.11-122.283V83.302v-9.437H0
			v417.348h135.099v-8.482H135.105z M39.015,311.096c5.924,0,11.285,2.246,15.471,5.82c5.141,4.393,8.476,10.844,8.476,18.127
			c0,7.275-3.335,13.727-8.476,18.121c-4.186,3.58-9.547,5.82-15.471,5.82c-13.207,0-23.948-10.74-23.948-23.947
			C15.061,321.836,25.808,311.096,39.015,311.096z M9.976,424.639c0-25.098,19.743-45.617,44.504-46.982
			c0.869-0.049,1.732-0.135,2.613-0.135c25.979,0,47.118,21.139,47.118,47.117c0,25.98-21.139,47.113-47.118,47.113
			c-0.881,0-1.738-0.086-2.613-0.135C29.719,470.258,9.976,449.738,9.976,424.639z"/>
		<path d="M57.093,465.637c22.607,0,40.998-18.391,40.998-40.99c0-22.607-18.391-40.998-40.998-40.998
			c-0.881,0-1.744,0.078-2.613,0.135c-21.383,1.357-38.384,19.137-38.384,40.863c0,21.719,16.995,39.504,38.384,40.863
			C55.349,465.559,56.212,465.637,57.093,465.637z"/>
		<path d="M429.979,396.113v86.617v8.482h135.1V73.865h-135.1v9.437v86.617c23.666,31.548,37.712,70.716,37.712,113.097
			C467.69,325.396,453.651,364.564,429.979,396.113z M551.516,424.242c0,25.201-20.502,45.703-45.704,45.703
			c-0.881,0-1.744-0.086-2.613-0.135c-23.984-1.363-43.091-21.254-43.091-45.568s19.106-44.205,43.091-45.57
			c0.869-0.049,1.732-0.135,2.613-0.135C531.014,378.537,551.516,399.039,551.516,424.242z"/>
		<path d="M466.233,424.242c0,20.941,16.365,38.096,36.972,39.449c0.868,0.055,1.731,0.135,2.613,0.135
			c21.823,0,39.584-17.754,39.584-39.584s-17.754-39.584-39.584-39.584c-0.882,0-1.745,0.072-2.613,0.135
			C482.593,386.145,466.233,403.299,466.233,424.242z"/>
		<path d="M258.472,182.905c1.683,1.194,3.58,1.726,5.435,1.745c1.414,0,2.595-0.202,3.715-0.618c0.08-0.031,0.141-0.086,0.22-0.116
			c0.012-0.006,0.031,0,0.049-0.006c1.598-0.6,2.95-1.53,3.941-2.932c1.334-1.885,1.646-3.941,0.845-6.12
			c-0.563-1.53-1.591-2.705-2.962-3.568c-0.673-0.428-1.358-0.759-2.056-1.003c-2.16-0.845-4.431-0.881-6.781-0.135
			c-1.665,0.533-3.078,1.475-4.143,2.882c-1.432,1.897-1.83,3.997-1.059,6.261C256.189,180.812,257.175,181.987,258.472,182.905z"/>
		<path d="M96.115,283.01c0,42.467,14.602,81.562,38.99,112.621c1.016,1.291,2.014,2.594,3.06,3.861
			c0.998,1.199,2.038,2.355,3.06,3.531c33.525,38.391,82.767,62.719,137.621,62.719c59.033,0,111.592-28.166,145.02-71.74
			c1.04-1.357,2.056-2.729,3.06-4.117c1.028-1.428,2.068-2.846,3.061-4.303c19.92-29.266,31.591-64.578,31.591-102.572
			c0-37.992-11.664-73.305-31.591-102.571c-0.992-1.457-2.032-2.876-3.061-4.302c-1.004-1.389-2.02-2.76-3.06-4.119
			c-33.428-43.574-85.986-71.739-145.02-71.739c-54.854,0-104.095,24.327-137.621,62.718c-1.022,1.175-2.062,2.332-3.06,3.531
			c-1.046,1.261-2.044,2.57-3.06,3.862C110.711,201.455,96.115,240.55,96.115,283.01z M267.101,395.398
			c-0.024,0.41-0.869,1.039-1.401,1.125c-9.498,1.592-18.739,0.57-27.711-2.906c-0.771-0.301-1.493-0.76-2.172-1.236
			c-3.415-2.418-3.409-5.625,0.08-7.857c1.518-0.975,3.133-1.867,4.816-2.486c8.623-3.176,17.283-6.26,26.389-9.541
			c0,3.201,0.062,6.145-0.073,9.082c-0.019,0.404-0.955,0.9-1.548,1.121c-4.773,1.75-9.578,3.414-14.352,5.178
			c-1.107,0.41-2.111,1.09-3.164,1.646c0.024,0.27,0.043,0.531,0.067,0.801c1.046,0.361,2.124,1.09,3.14,1.021
			c2.95-0.207,5.924-0.543,8.807-1.193c2.338-0.52,4.56-1.566,7.185-2.502C267.163,390.441,267.23,392.926,267.101,395.398z
			 M286.508,344.908c-0.331,0.789-0.245,1.775-0.245,2.68c-0.006,18.477,0,36.953,0,55.43c0,0.875,0,1.756,0,2.963
			c-5.422-1.721-10.453-3.299-15.465-4.951c-0.392-0.129-0.753-0.754-0.869-1.219c-0.153-0.588-0.055-1.242-0.055-1.873
			c0.024-21.824,0.049-43.641,0.067-65.465c0-0.76,0-1.518,0-2.57c1.493,0.293,2.785,0.453,4.021,0.812
			c7.081,2.076,14.161,4.139,21.199,6.342c1.843,0.574,3.58,1.547,5.282,2.49c5.557,3.084,8.775,7.803,9.571,14.131
			c0.551,4.383,0.747,8.74-0.667,13.029c-2.399,7.252-9.076,9.297-16.114,5.949c-0.545-0.264-0.905-1.463-0.912-2.229
			c-0.061-7.387,0.025-14.779-0.085-22.166c-0.019-1.463-0.429-3.066-1.157-4.314c-0.435-0.746-1.896-1.346-2.79-1.225
			C287.591,342.809,286.869,344.039,286.508,344.908z M329.042,389.621c-2.362,1.529-5.043,2.65-7.705,3.629
			c-10.196,3.752-20.435,7.381-30.661,11.047c-0.447,0.158-0.912,0.25-1.72,0.465c0-3.023-0.086-5.74,0.073-8.439
			c0.03-0.557,0.899-1.311,1.542-1.543c7.387-2.705,14.811-5.318,22.222-7.967c0.985-0.35,2.001-0.656,2.907-1.158
			c0.545-0.299,0.905-0.936,1.353-1.42c-0.514-0.391-0.973-1.004-1.549-1.15c-3.28-0.826-6.505-0.416-9.657,0.68
			c-4.798,1.664-9.59,3.385-14.382,5.074c-0.704,0.244-1.42,0.459-2.484,0.801c0-3.25-0.049-6.211,0.055-9.174
			c0.013-0.398,0.734-0.967,1.23-1.125c12.552-3.955,24.957-3.832,37.16,1.406c0.509,0.221,0.992,0.516,1.457,0.82
			C332.684,384.1,332.854,387.148,329.042,389.621z M314.55,168.009c4.517,0,9.026,0,13.543,0c0.05,0.159,0.062,2.375,0.013,2.705
			c-0.073,0.006-0.153,0.019-0.232,0.019c-0.466,0-0.931,0-1.396-0.006c-0.055,0-0.104,0-0.159,0.006
			c-0.184,0.03-0.288,0.147-0.251,0.331c0.03,0.141,0.086,0.288,0.165,0.41c0.141,0.202,0.307,0.392,0.472,0.576
			c1.328,1.457,2.662,2.907,3.99,4.357c0.036,0.037,0.073,0.067,0.122,0.11c0.062-0.067,0.116-0.128,0.172-0.184
			c1.505-1.646,3.011-3.298,4.517-4.945c0.036-0.037,0.073-0.08,0.098-0.123c0.098-0.159,0.073-0.3-0.067-0.416
			c-0.116-0.098-0.251-0.116-0.397-0.116c-0.472,0.006-0.943,0.006-1.414,0c-0.067,0-0.135-0.012-0.214-0.019
			c0-0.906,0-1.799,0-2.705c3.659,0,7.312,0,10.979,0c0,0.9,0,1.793,0,2.717c-0.079,0-0.159,0-0.238,0c-0.894,0-1.781,0-2.675,0
			c-0.146,0-0.251,0.043-0.349,0.147c-2.883,3.079-5.765,6.151-8.653,9.223c-0.099,0.098-0.135,0.202-0.135,0.337
			c0.006,1.181,0,2.368,0,3.55c0,0.055,0,0.104,0.006,0.159c0.019,0.233,0.141,0.367,0.38,0.404c0.104,0.012,0.208,0,0.312,0
			c1.004,0,2.008,0,3.012,0c0.03,0,0.055,0.012,0.098,0.018c0,0.808,0,1.616,0,2.436c-4.431,0-8.855,0-13.293,0
			c0-0.814,0-1.616,0-2.448c0.086,0,0.172,0,0.251,0c0.856,0,1.708,0,2.564,0c0.092,0,0.178,0,0.27-0.006
			c0.275-0.031,0.428-0.19,0.446-0.471c0-0.043,0-0.092,0-0.135c0-1.236,0-2.473,0-3.709c0-0.141-0.036-0.251-0.135-0.361
			c-2.735-2.993-5.465-5.985-8.194-8.978c-0.104-0.116-0.214-0.159-0.367-0.159c-0.998,0.006-1.995,0.006-2.986,0.006
			c-0.08,0-0.159,0-0.258,0C314.55,169.815,314.55,168.921,314.55,168.009z M281.747,168.009c0.098-0.006,0.189-0.012,0.288-0.012
			c3.005,0,6.01,0,9.009,0c0.135,0,0.269,0.012,0.403,0c0.159-0.012,0.282,0.037,0.404,0.147c0.826,0.753,1.658,1.5,2.484,2.246
			c3.396,3.06,6.787,6.12,10.184,9.174c0.067,0.061,0.135,0.116,0.245,0.214c0-0.135,0.006-0.22,0.006-0.306c0-2.43,0-4.853,0-7.283
			c0-0.19-0.006-0.374,0-0.563c0.007-0.306-0.135-0.533-0.386-0.692c-0.232-0.146-0.489-0.214-0.765-0.214
			c-0.838,0.006-1.677,0-2.516,0c-0.079,0-0.158,0-0.257,0c0-0.918,0-1.806,0-2.693c0.007-0.006,0.007-0.012,0.013-0.012
			s0.012-0.012,0.019-0.012c3.751-0.006,7.503-0.006,11.254-0.012c0.043,0,0.086,0.006,0.147,0.012c0,0.906,0,1.799,0,2.723
			c-0.086,0-0.165,0-0.245,0c-0.808,0-1.615,0-2.43-0.006c-0.679,0-0.985,0.288-1.01,0.979c-0.006,0.104-0.006,0.208-0.006,0.312
			c0,4.921,0,9.841,0,14.762c0,0.098,0,0.189,0,0.3c-0.086,0.006-0.147,0.019-0.215,0.019c-1.272,0-2.546,0-3.818,0
			c-0.129,0-0.227-0.037-0.318-0.123c-4.865-4.333-9.736-8.666-14.608-12.993c-0.062-0.055-0.122-0.098-0.221-0.184
			c0,0.122,0,0.189,0,0.263c0,3.256,0,6.518,0,9.773c0,0.128,0.013,0.257,0.031,0.379c0.019,0.141,0.11,0.232,0.251,0.245
			c0.165,0.019,0.33,0.031,0.489,0.031c0.912,0,1.83,0,2.742,0c0.079,0,0.159,0,0.257,0c0,0.875,0,1.726,0,2.583
			c-3.795,0-7.57,0-11.371,0c0-0.856,0-1.707,0-2.583c0.086,0,0.165,0,0.245,0c0.833,0,1.665,0,2.498,0c0.098,0,0.195,0,0.293-0.012
			c0.294-0.043,0.459-0.232,0.478-0.532c0-0.062,0-0.123,0-0.178c0-4.149,0-8.299,0-12.448c0-0.061,0-0.122,0-0.177
			c-0.012-0.349-0.141-0.508-0.478-0.575c-0.159-0.031-0.324-0.043-0.489-0.049c-0.777-0.006-1.561,0-2.338,0
			c-0.08,0-0.165,0-0.275,0C281.747,169.674,281.747,168.854,281.747,168.009z M250.859,172.722c0.79-1.291,1.824-2.35,3.042-3.244
			c1.659-1.218,3.5-2.032,5.483-2.558c1.971-0.526,3.978-0.716,6.01-0.624c2.503,0.116,4.902,0.661,7.173,1.744
			c1.585,0.753,3.005,1.738,4.205,3.029c1.059,1.145,1.848,2.448,2.252,3.966c0.539,2.044,0.3,4.009-0.655,5.887
			c-0.79,1.555-1.946,2.797-3.335,3.825c-1.689,1.255-3.574,2.081-5.606,2.613c-1.169,0.306-2.356,0.496-3.562,0.575
			c-0.472,0.031-0.943,0.006-1.414,0.006c0,0.006,0,0.012,0,0.024c-0.606-0.019-1.211-0.006-1.817-0.061
			c-3.158-0.288-6.096-1.224-8.69-3.097c-1.359-0.979-2.491-2.179-3.299-3.66c-0.722-1.322-1.089-2.735-1.046-4.247
			C249.628,175.396,250.075,174.007,250.859,172.722z M222.07,169.674c0.661-0.673,1.444-1.187,2.283-1.616
			c1.242-0.636,2.558-1.052,3.917-1.346c1.401-0.3,2.821-0.471,4.259-0.453c1.12,0.012,2.228,0.146,3.323,0.361
			c1.585,0.312,3.127,0.759,4.614,1.377c0.3,0.128,0.588,0.294,0.888,0.428c0.104,0.049,0.232,0.074,0.343,0.062
			c0.226-0.012,0.293-0.098,0.293-0.331s0-0.459,0-0.686c0.184-0.049,2.57-0.061,2.833-0.012c0,2.191,0,4.388,0,6.598
			c-0.912,0-1.817,0-2.735,0c-0.012-0.098-0.024-0.196-0.037-0.288c-0.11-0.795-0.478-1.457-1.053-2.007
			c-0.545-0.526-1.193-0.899-1.885-1.199c-0.948-0.41-1.94-0.661-2.95-0.845c-1.438-0.251-2.882-0.361-4.339-0.312
			c-1.077,0.037-2.154,0.122-3.207,0.392c-0.428,0.11-0.845,0.251-1.242,0.453c-0.288,0.146-0.557,0.324-0.771,0.569
			c-0.245,0.275-0.392,0.6-0.41,0.973c-0.019,0.318,0.092,0.582,0.336,0.771c0.202,0.153,0.422,0.282,0.655,0.386
			c0.539,0.239,1.114,0.349,1.689,0.447c1.138,0.196,2.289,0.3,3.433,0.41c1.83,0.177,3.666,0.349,5.483,0.673
			c1.401,0.251,2.785,0.576,4.106,1.126c0.833,0.349,1.616,0.777,2.308,1.377c1.071,0.93,1.665,2.093,1.787,3.506
			c0.159,1.824-0.465,3.317-1.848,4.504c-0.844,0.729-1.824,1.224-2.858,1.616c-1.218,0.459-2.473,0.753-3.758,0.949
			c-1.083,0.165-2.167,0.269-3.268,0.275c-0.679,0-1.346-0.085-2.007-0.196c-2.172-0.361-4.314-0.869-6.42-1.512
			c-0.275-0.085-0.551-0.177-0.808-0.331c-0.245-0.147-0.545-0.141-0.851-0.128c0,0.404,0,0.795,0,1.206c-1.096,0-2.161,0-3.231,0
			c-0.049-0.153-0.074-7.068-0.024-7.491c0.165-0.049,2.839-0.055,3.066-0.006c0.024,0.208,0.043,0.417,0.086,0.618
			c0.165,0.863,0.618,1.567,1.254,2.154c0.71,0.655,1.542,1.108,2.43,1.463c1.022,0.41,2.081,0.673,3.158,0.851
			c1.438,0.239,2.889,0.324,4.345,0.269c1.096-0.042,2.173-0.208,3.201-0.618c0.569-0.226,1.089-0.526,1.542-0.948
			c0.239-0.221,0.435-0.471,0.594-0.759c0.073-0.135,0.092-0.264,0.061-0.41c-0.073-0.379-0.282-0.673-0.575-0.912
			c-0.288-0.232-0.612-0.397-0.955-0.532c-0.692-0.275-1.414-0.441-2.142-0.575c-1.224-0.227-2.46-0.361-3.69-0.508
			c-1.763-0.202-3.525-0.392-5.275-0.71c-1.408-0.257-2.797-0.587-4.113-1.169c-0.802-0.355-1.542-0.795-2.154-1.432
			c-0.777-0.808-1.157-1.781-1.175-2.901C220.559,171.828,221.104,170.659,222.07,169.674z"/>
	</g>
</g>
<g>
</g>
<g>
</g>
<g>
</g>
<g>
</g>
<g>
</g>
<g>
</g>
<g>
</g>
<g>
</g>
<g>
</g>
<g>
</g>
<g>
</g>
<g>
</g>
<g>
</g>
<g>
</g>
<g>
</g>
</svg>
