<?xml version="1.0" encoding="iso-8859-1"?>
<!-- Generator: Adobe Illustrator 16.0.0, SVG Export Plug-In . SVG Version: 6.00 Build 0)  -->
<!DOCTYPE svg PUBLIC "-//W3C//DTD SVG 1.1//EN" "http://www.w3.org/Graphics/SVG/1.1/DTD/svg11.dtd">
<svg version="1.1" id="Capa_1" xmlns="http://www.w3.org/2000/svg" xmlns:xlink="http://www.w3.org/1999/xlink" x="0px" y="0px"
	 width="584.742px" height="584.742px" viewBox="0 0 584.742 584.742" style="enable-background:new 0 0 584.742 584.742;"
	 xml:space="preserve">
<g>
	<g>
		<path d="M478.704,263.332c-9.438,0-17.111,7.674-17.111,17.112c0,9.437,7.674,17.111,17.111,17.111
			c9.437,0,17.111-7.675,17.111-17.111C495.815,271.006,488.135,263.332,478.704,263.332z"/>
		<circle cx="532.364" cy="260.272" r="17.112"/>
		<path d="M570.767,192.578c-5.238-32.583-26.769-43.06-39.571-43.06c-12.804,0-68.079-1.744-73.899-12.222
			c-5.82-10.471-27.932-10.471-27.932-10.471H292.368H155.366c0,0-22.111,0-27.932,10.471c-5.82,10.471-61.096,12.222-73.899,12.222
			s-34.333,10.471-39.572,43.06C8.73,225.161,0.003,368.89,0.003,368.89s-1.163,29.676,40.735,41.315
			c41.897,11.641,64.59,19.786,97.173,28.514c32.583,8.727,62.779,19.198,154.457,19.198s121.874-10.472,154.463-19.204
			c32.589-8.733,55.275-16.873,97.173-28.514c41.897-11.64,40.735-41.316,40.735-41.316S576.006,225.161,570.767,192.578z
			 M90.347,301.777c0,3.611-2.938,6.555-6.555,6.555H69.827c-3.611,0-6.548-2.938-6.548-6.555v-18.66H44.612
			c-3.611,0-6.548-2.937-6.548-6.554v-13.966c0-3.611,2.938-6.548,6.548-6.548h18.666v-18.666c0-3.611,2.938-6.548,6.548-6.548
			h13.966c3.611,0,6.555,2.938,6.555,6.548v18.666h18.66c3.611,0,6.555,2.938,6.555,6.548v13.966c0,3.611-2.938,6.554-6.555,6.554
			h-18.66V301.777z M112.501,396.778c-8.103,0-14.7-6.598-14.7-14.7s6.597-14.694,14.7-14.694s14.694,6.592,14.694,14.694
			S120.604,396.778,112.501,396.778z M112.501,364.189c-8.103,0-14.7-6.592-14.7-14.694s6.597-14.7,14.7-14.7
			s14.694,6.598,14.694,14.7S120.604,364.189,112.501,364.189z M403.942,416.105c-40.814,8.556-92.779,12.644-108.515,13.739v0.392
			l-3.965-0.147l-3.574,0.245v-0.489c-15.734-1.096-67.699-5.184-108.514-13.739c-50.294-10.545-45.906-48.783-45.857-49.162
			c0.165-5.502,4.639-141.868,5.416-151.911c0.067-0.863,0.116-1.842,0.166-2.919c0.575-11.548,1.769-35.582,31.034-40.974
			c25.888-4.767,99.921-5.985,117.749-6.206v-0.073l3.794,0.024l3.751-0.037v0.085c17.834,0.227,91.861,1.438,117.755,6.206
			c29.267,5.392,30.46,29.425,31.035,40.974c0.055,1.077,0.104,2.056,0.165,2.925c0.771,10.037,5.251,146.403,5.44,152.199
			C449.848,367.322,454.236,405.561,403.942,416.105z M478.704,303.675c-12.81,0-23.231-10.423-23.231-23.232
			s10.422-23.231,23.231-23.231c12.809,0,23.231,10.422,23.231,23.231S491.513,303.675,478.704,303.675z M532.364,283.503
			c-12.81,0-23.231-10.422-23.231-23.231s10.422-23.231,23.231-23.231c12.809,0,23.231,10.422,23.231,23.231
			S545.179,283.503,532.364,283.503z"/>
		<rect x="168.836" y="202.811" width="247.064" height="155.258"/>
		<circle cx="112.501" cy="349.495" r="8.58"/>
		<path d="M109.441,276.563v-13.966l-25.214-0.428v-24.786l-14.4-0.428l-0.428,25.214H44.612l-0.429,14.394l25.215,0.435v24.78
			l14.394,0.435c0.239,0,0.435-0.196,0.435-0.435v-24.78h24.78C109.246,276.998,109.441,276.802,109.441,276.563z"/>
		<circle cx="112.501" cy="382.078" r="8.58"/>
		<path d="M438.281,215.504c-0.067-0.912-0.122-1.952-0.178-3.084c-0.569-11.5-1.53-30.747-26.028-35.257
			c-27.338-5.037-110.361-6.041-119.738-6.139l-0.808-0.006l-0.551,0.006c-9.376,0.098-92.4,1.108-119.732,6.139
			c-24.504,4.51-25.459,23.758-26.028,35.257c-0.055,1.138-0.11,2.172-0.177,3.084c-0.765,9.908-5.379,150.516-5.429,151.935
			c-0.189,1.628-3.574,33.33,41.022,42.682c43.409,9.101,99.683,13.108,110.521,13.812l0.508,0.03l0.508-0.03
			c10.838-0.71,67.106-4.712,110.521-13.812c44.816-9.4,41.218-41.041,41.047-42.388
			C443.661,366.019,439.04,225.412,438.281,215.504z M422.021,364.189H162.716V196.691h259.305V364.189z"/>
	</g>
</g>
<g>
</g>
<g>
</g>
<g>
</g>
<g>
</g>
<g>
</g>
<g>
</g>
<g>
</g>
<g>
</g>
<g>
</g>
<g>
</g>
<g>
</g>
<g>
</g>
<g>
</g>
<g>
</g>
<g>
</g>
</svg>
