<?xml version="1.0" encoding="iso-8859-1"?>
<!-- Generator: Adobe Illustrator 16.0.0, SVG Export Plug-In . SVG Version: 6.00 Build 0)  -->
<!DOCTYPE svg PUBLIC "-//W3C//DTD SVG 1.1//EN" "http://www.w3.org/Graphics/SVG/1.1/DTD/svg11.dtd">
<svg version="1.1" id="Capa_1" xmlns="http://www.w3.org/2000/svg" xmlns:xlink="http://www.w3.org/1999/xlink" x="0px" y="0px"
	 width="575.294px" height="575.294px" viewBox="0 0 575.294 575.294" style="enable-background:new 0 0 575.294 575.294;"
	 xml:space="preserve">
<g>
	<g>
		<path d="M313.544,199.157c0-8.146-3.776-15.349-9.578-20.208c-3.482,1.646-9.254,4.4-9.811,7.46c0,0,15.258,14.841,14.205,28.33
			C311.579,210.357,313.544,205.002,313.544,199.157z"/>
		<path d="M279.517,186.409c-0.539-2.968-5.992-5.649-9.499-7.313c-5.698,4.859-9.4,11.995-9.4,20.062
			c0,5.557,1.738,10.704,4.676,14.97C264.743,200.81,279.517,186.409,279.517,186.409z"/>
		<path d="M298.728,175.516c-3.531-1.75-7.448-2.821-11.653-2.821c-4.198,0-8.109,1.071-11.64,2.815
			c6.273,0.336,10.404,3.011,11.396,3.721C287.846,178.502,292.185,175.73,298.728,175.516z"/>
		<path d="M286.836,193.013c-13.574,10.478-17.821,19.241-19.149,23.997c4.841,5.251,11.708,8.604,19.4,8.604
			c7.484,0,14.217-3.152,19.033-8.158C304.921,212.811,300.826,203.814,286.836,193.013z"/>
		<path d="M352.956,262.799c-16.805,0-30.478,13.672-30.478,30.478c0,16.805,13.673,30.471,30.478,30.471
			c16.806,0,30.478-13.666,30.478-30.471C383.434,276.471,369.762,262.799,352.956,262.799z"/>
		<circle cx="447.712" cy="246.318" r="18.017"/>
		<circle cx="490.002" cy="204.029" r="18.017"/>
		<path d="M123.493,162.29c-16.806,0-30.478,13.672-30.478,30.478c0,16.805,13.672,30.471,30.478,30.471
			s30.478-13.666,30.478-30.471C153.971,175.962,140.299,162.29,123.493,162.29z"/>
		<circle cx="405.423" cy="204.029" r="18.017"/>
		<circle cx="447.712" cy="161.74" r="18.017"/>
		<path d="M387.92,102.688c-26.133,26.133-100.276,23.52-100.276,23.52s-74.144,2.613-100.276-23.52
			c-26.132-26.132-106.482-2.289-128.361,33.966S-8.932,289.512,1.521,403.834c10.453,114.321,64.021,77.735,107.786,41.806
			c5.686-4.67,10.869-9.254,15.863-13.709v-23.482c0-20.569,16.738-37.308,37.308-37.308h233.974
			c18.513,0,33.923,13.556,36.818,31.261c9.92,4.621,16.854,14.713,16.854,26.242v3.293c4.987,4.455,10.177,9.039,15.862,13.709
			c43.771,35.931,97.333,72.51,107.786-41.806c10.452-114.315-35.601-230.926-57.485-267.181
			C494.396,100.399,414.046,76.555,387.92,102.688z M447.712,137.602c13.312,0,24.138,10.827,24.138,24.137
			c0,13.312-10.826,24.138-24.138,24.138c-13.311,0-24.137-10.826-24.137-24.138C423.575,148.429,434.407,137.602,447.712,137.602z
			 M294.352,158.747l-0.515,3.017l0.82-2.962c16.775,3.176,29.964,16.549,32.889,33.293c0.288,1.665-0.826,3.25-2.49,3.537
			c-0.178,0.037-0.355,0.049-0.526,0.049c-1.463,0-2.754-1.047-3.012-2.534c-2.484-14.253-13.708-25.631-27.925-28.323
			c-1.652-0.312-2.901-1.922-2.602-3.574C291.279,159.598,292.699,158.465,294.352,158.747z M246.744,191.507
			c3.17-16.75,16.591-29.945,33.397-32.822c1.701-0.288,3.25,0.838,3.531,2.503c0.288,1.659-0.832,3.244-2.497,3.531
			c-14.296,2.442-25.722,13.672-28.421,27.932c-0.282,1.481-1.598,2.601-3.06,2.601c-0.166,0-0.337-0.012-0.502-0.042
			c-1.652-0.3-2.778-1.75-2.503-3.409C246.695,191.783,246.738,191.532,246.744,191.507z M123.493,235.485
			c-23.556,0-42.718-19.162-42.718-42.711s19.162-42.717,42.718-42.717s42.718,19.167,42.718,42.717
			S147.055,235.485,123.493,235.485z M206.694,355.199c-29.578,0-53.647-24.064-53.647-53.648c0-29.577,24.063-53.647,53.647-53.647
			c29.584,0,53.648,24.064,53.648,53.647C260.342,331.134,236.279,355.199,206.694,355.199z M280.122,239.567
			c-0.165,0-0.336-0.012-0.501-0.042l-0.11-0.019c-16.873-3.188-30.086-16.659-32.926-33.525c-0.281-1.665,0.845-3.244,2.509-3.525
			c1.646-0.3,3.244,0.844,3.525,2.509c2.423,14.352,13.654,25.814,27.962,28.513c1.653,0.312,2.791,1.903,2.497,3.55
			C282.821,238.521,281.573,239.567,280.122,239.567z M254.504,199.157c0-17.968,14.615-32.583,32.577-32.583
			c17.968,0,32.583,14.621,32.583,32.583c0,17.962-14.615,32.577-32.583,32.577C269.119,231.734,254.504,217.125,254.504,199.157z
			 M293.299,239.708c-1.469,0-2.767-1.065-3.018-2.558c-0.275-1.665,0.851-3.244,2.521-3.519
			c14.4-2.387,25.894-13.629,28.611-27.975c0.312-1.652,1.928-2.987,3.58-2.656c1.652,0.294,2.797,1.652,2.521,3.305
			c-0.006,0.037-0.092,0.49-0.098,0.533c-3.183,16.818-16.695,30.031-33.617,32.828
			C293.629,239.696,293.458,239.708,293.299,239.708z M352.956,335.994c-23.556,0-42.717-19.161-42.717-42.711
			s19.161-42.717,42.717-42.717c23.557,0,42.718,19.167,42.718,42.717S376.513,335.994,352.956,335.994z M405.423,228.166
			c-13.311,0-24.137-10.826-24.137-24.137s10.826-24.137,24.137-24.137c13.312,0,24.138,10.826,24.138,24.137
			S418.734,228.166,405.423,228.166z M447.712,270.455c-13.311,0-24.137-10.826-24.137-24.137s10.826-24.137,24.137-24.137
			c13.312,0,24.138,10.826,24.138,24.137S461.023,270.455,447.712,270.455z M490.002,228.166c-13.312,0-24.138-10.826-24.138-24.137
			s10.826-24.137,24.138-24.137c13.311,0,24.137,10.826,24.137,24.137S503.312,228.166,490.002,228.166z"/>
		<path d="M206.694,254.023c-26.206,0-47.528,21.322-47.528,47.527c0,26.206,21.322,47.528,47.528,47.528
			c26.206,0,47.528-21.322,47.528-47.528C254.223,275.345,232.9,254.023,206.694,254.023z M191.395,331.391v3.397
			c-7.901-3.654-14.278-10.025-17.932-17.932h3.391h3.604c2.656,4.528,6.402,8.28,10.937,10.93V331.391z M191.395,271.71v3.604
			c-4.529,2.656-8.28,6.401-10.937,10.937h-3.604h-3.391c3.654-7.901,10.031-14.278,17.932-17.932V271.71z M222,334.789v-3.397
			v-3.598c4.529-2.656,8.281-6.402,10.931-10.931h3.604h3.396C236.272,324.757,229.901,331.134,222,334.789z M236.536,286.251
			h-3.604c-2.656-4.529-6.402-8.28-10.937-10.937v-3.604v-3.397c7.901,3.654,14.278,10.031,17.932,17.932h-3.391V286.251z"/>
		<path d="M429.897,414.483c-2.454-1.512-5.294-2.454-8.379-2.521v-3.52c0-0.085-0.024-0.158-0.024-0.238
			c-0.135-13.733-11.285-24.829-25.043-24.829h-38.96H217.802h-55.325c-13.843,0-25.067,11.225-25.067,25.067v12.669v37.473
			c0,13.844,11.224,25.067,25.067,25.067h233.974c13.844,0,25.067-11.224,25.067-25.067v-3.519
			c9.063-0.19,16.365-7.564,16.365-16.678v-9.749c0-4.388-1.72-8.348-4.492-11.322C432.235,416.362,431.072,415.419,429.897,414.483
			z M224.338,453.278c0,8.06-6.536,14.59-14.59,14.59h-39.523c-8.06,0-14.59-6.536-14.59-14.59v-39.523
			c0-3.311,1.145-6.328,2.999-8.776c2.289-3.011,5.691-5.079,9.621-5.618c0.648-0.085,1.297-0.195,1.971-0.195h39.523
			c8.06,0,14.59,6.536,14.59,14.59V453.278z M312.772,453.278c0,8.06-6.53,14.59-14.59,14.59H258.66
			c-8.06,0-14.59-6.536-14.59-14.59v-39.523c0-8.06,6.536-14.59,14.59-14.59h39.523c8.06,0,14.59,6.536,14.59,14.59V453.278z
			 M404.688,453.278c0,8.06-6.536,14.59-14.59,14.59h-39.522c-8.061,0-14.591-6.536-14.591-14.59v-39.523
			c0-8.06,6.536-14.59,14.591-14.59h39.522c8.061,0,14.59,6.536,14.59,14.59V453.278z"/>
	</g>
</g>
<g>
</g>
<g>
</g>
<g>
</g>
<g>
</g>
<g>
</g>
<g>
</g>
<g>
</g>
<g>
</g>
<g>
</g>
<g>
</g>
<g>
</g>
<g>
</g>
<g>
</g>
<g>
</g>
<g>
</g>
</svg>
