<?xml version="1.0" encoding="iso-8859-1"?>
<!-- Generator: Adobe Illustrator 16.0.0, SVG Export Plug-In . SVG Version: 6.00 Build 0)  -->
<!DOCTYPE svg PUBLIC "-//W3C//DTD SVG 1.1//EN" "http://www.w3.org/Graphics/SVG/1.1/DTD/svg11.dtd">
<svg version="1.1" id="Capa_1" xmlns="http://www.w3.org/2000/svg" xmlns:xlink="http://www.w3.org/1999/xlink" x="0px" y="0px"
	 width="570.44px" height="570.44px" viewBox="0 0 570.44 570.44" style="enable-background:new 0 0 570.44 570.44;"
	 xml:space="preserve">
<g>
	<g>
		<path d="M86.582,299.236c34.492-43.036,70.16-87.54,154.934-139.854c126.757-78.213,289.193-73.213,291.801-73.134
			c0.049-12.735-3.464-26.315-18.14-28.574c-28.685-4.412-98.201-6.573-98.201-6.573s-6.285-0.643-6.646-3.935
			c-0.361-3.293-1.457-26.311-1.457-26.311s6.139-1.958,12.186-3.506c0.483-0.123,0.789-0.398,1.145-0.631
			c-0.337,0.037-0.68,0.049-1.028-0.024c-0.373-0.104-37.412-8.733-78.71,5.759c0.533,0.515,1.225,0.961,2.234,1.249
			c0,0,5.141,1.144,10.899,0.96l2.008,27.718c0,0,1.475,6.39-18.881,8.061c-20.361,1.664-144.064,35.704-224.811,158.227
			c-62.987,95.575-87.583,125.429-85.007,145.661C51.986,342.364,68.822,321.402,86.582,299.236z"/>
		<path d="M529.982,109.792c0,0,2.246-7.84,3.048-17.424c-3.379-0.146-163.484-4.792-288.301,72.229
			c-83.875,51.757-119.206,95.839-153.374,138.471c-17.454,21.774-35.496,44.284-59.609,67.026l-2.05-2.179
			c1.291,4.266,3.843,8.231,7.607,12.497c4.725,5.354,11.438,12.148,20.221,18.439c-18.018,31.475-18.52,73.183,10.092,100.093
			c18.439,17.344,38.434,24.7,63.354,28.011c37.044,4.921,84.224-3.996,104.028,36.646c7.828,16.065,31.059,0.845,23.323-15.036
			c-15.374-31.562-48.36-44.297-82.039-46.457c-26.23-1.684-52.105-0.894-76.39-12.454c-31.286-14.891-32.479-52.045-17.668-77.847
			c34.229,12.13,85.655,8.121,156.721-55.668c116.066-104.181,98.611-162.229,232.896-116.077c0,0,4.865,3.91,14.425-12.24
			c0,0,8.042,2.454,16.053,6.683c8.012,4.229,10.545-9.149,18.207-26.42s17.045-30.955,6.304-35.777
			c-10.74-4.822-16.267-10.655-16.267-10.655l9.822,2.479l2.062-9.553c0,0,2.436,1.952,7.895,3.133
			c5.459,1.182,11.262-28.99,11.371-36.107C541.824,114.498,529.982,109.792,529.982,109.792z M507.38,172.796
			c-1.004,1.341-2.883,1.628-4.235,0.637c-0.128-0.086-1.48-0.961-5.783-2.705c-3.391,2.84-10.232,20.551-13.219,28.287
			c-2.008,5.201-3.599,9.309-4.713,11.499c-1.261,2.467-1.021,3.403-0.967,3.562c0.214,0.588,1.634,1.163,2.668,1.592l1.176,0.495
			c1.536,0.698,2.215,2.516,1.518,4.052c-0.515,1.132-1.628,1.793-2.791,1.793c-0.422,0-0.856-0.092-1.267-0.275l-0.955-0.397
			c-1.964-0.808-4.938-2.02-6.089-5.129c-0.875-2.35-0.466-5.122,1.254-8.476c0.974-1.903,2.583-6.077,4.456-10.918
			c7.735-20.037,12.228-29.934,16.83-31.94c1.542-0.674,2.833-0.435,3.647-0.116c5.654,2.246,7.447,3.439,7.864,3.751
			C508.127,169.529,508.396,171.451,507.38,172.796z M520.936,113.482c-0.514,1.597-2.228,2.473-3.825,1.982
			c-0.526-0.153-2.16-0.416-3.335,0.288c-0.918,0.544-1.566,1.671-1.928,3.348l-0.257,1.193c-1.592,7.276-3.99,18.28,0.643,22.166
			c1.291,1.084,1.462,3.012,0.379,4.309c-0.605,0.723-1.475,1.096-2.35,1.096c-0.691,0-1.39-0.232-1.965-0.716
			c-7.473-6.255-4.706-18.917-2.687-28.164l0.257-1.176c0.931-4.302,3.17-6.383,4.884-7.374c3.733-2.148,7.767-0.942,8.213-0.802
			C520.563,110.146,521.451,111.873,520.936,113.482z"/>
		<path d="M422.613,10.739c0.066,0.019,0.122,0.067,0.189,0.092c-1.836-3.549-6.536-7.539-14.376-9.425
			c-14.597-3.513-40.809,0.466-49.731,2.111c-5.403,0.992-13.06,7.118-16.053,12.442C384.766,1.896,421.051,10.36,422.613,10.739z"
			/>
	</g>
</g>
<g>
</g>
<g>
</g>
<g>
</g>
<g>
</g>
<g>
</g>
<g>
</g>
<g>
</g>
<g>
</g>
<g>
</g>
<g>
</g>
<g>
</g>
<g>
</g>
<g>
</g>
<g>
</g>
<g>
</g>
</svg>
