<?xml version="1.0" encoding="iso-8859-1"?>
<!-- Generator: Adobe Illustrator 16.0.0, SVG Export Plug-In . SVG Version: 6.00 Build 0)  -->
<!DOCTYPE svg PUBLIC "-//W3C//DTD SVG 1.1//EN" "http://www.w3.org/Graphics/SVG/1.1/DTD/svg11.dtd">
<svg version="1.1" id="Capa_1" xmlns="http://www.w3.org/2000/svg" xmlns:xlink="http://www.w3.org/1999/xlink" x="0px" y="0px"
	 width="559.467px" height="559.467px" viewBox="0 0 559.467 559.467" style="enable-background:new 0 0 559.467 559.467;"
	 xml:space="preserve">
<g>
	<g>
		<path d="M37.929,456.607H60.83v97.441c0,2.994,2.424,5.418,5.417,5.418h34.137V0H37.929c-2.993,0-5.416,2.423-5.416,5.416v445.781
			C32.513,454.184,34.936,456.607,37.929,456.607z"/>
		<rect x="106.497" width="105.76" height="559.467"/>
		<polygon points="302.632,414.482 267.264,414.482 284.95,441.539 		"/>
		<path d="M224.497,559.467H493.22c2.992,0,5.416-2.424,5.416-5.418v-97.441h22.902c2.992,0,5.416-2.424,5.416-5.416V5.416
			c0-2.993-2.424-5.416-5.416-5.416H469.72v373.602c0,6.359-5.172,11.535-11.537,11.535H242.545c-6.359,0-11.536-5.17-11.536-11.535
			V0h-6.512h-3.06h-3.06v559.467h3.06H224.497z M313.935,408.363l-28.99,44.363l-28.991-44.363H313.935z"/>
		<path d="M242.545,379.012h209.519h6.119c2.992,0,5.416-2.424,5.416-5.416V0h-6.119h-3.061h-3.061h-214.23v372.891v0.705
			c0,0.855,0.239,1.633,0.594,2.35C238.604,377.75,240.409,379.012,242.545,379.012z"/>
	</g>
</g>
<g>
</g>
<g>
</g>
<g>
</g>
<g>
</g>
<g>
</g>
<g>
</g>
<g>
</g>
<g>
</g>
<g>
</g>
<g>
</g>
<g>
</g>
<g>
</g>
<g>
</g>
<g>
</g>
<g>
</g>
</svg>
