<?xml version="1.0" encoding="iso-8859-1"?>
<!-- Generator: Adobe Illustrator 16.0.0, SVG Export Plug-In . SVG Version: 6.00 Build 0)  -->
<!DOCTYPE svg PUBLIC "-//W3C//DTD SVG 1.1//EN" "http://www.w3.org/Graphics/SVG/1.1/DTD/svg11.dtd">
<svg version="1.1" id="Capa_1" xmlns="http://www.w3.org/2000/svg" xmlns:xlink="http://www.w3.org/1999/xlink" x="0px" y="0px"
	 width="575.374px" height="575.374px" viewBox="0 0 575.374 575.374" style="enable-background:new 0 0 575.374 575.374;"
	 xml:space="preserve">
<g>
	<g>
		<path d="M57.297,122.834c1.334-2.044,3.054-3.868,5.196-5.49v-4.621l5.392-3.642c0.741-0.501,18.439-12.24,44.755-12.24
			c12.124,0,24.229,2.466,35.974,7.319l1.787,0.741l1.469,1.254c2.001,1.708,3.329,3.911,4.216,6.23
			c0.19,0.073,0.38,0.147,0.569,0.226c3.011,1.218,5.141,1.444,6.163,1.481l0.22-0.086h1.591h246.116l0.471-0.245l1.279,0.336
			c0.729-0.012,2.956-0.165,6.23-1.487c0.189-0.073,0.379-0.153,0.569-0.226c0.887-2.32,2.215-4.529,4.217-6.23l1.469-1.254
			l1.787-0.741c11.75-4.859,23.855-7.319,35.973-7.319c26.311,0,44.016,11.738,44.756,12.24l5.397,3.642v4.615
			c2.13,1.603,3.832,3.396,5.123,5.385c1.059,1.585,25.961,39.119,33.58,66.127c3.544,12.57,14.731,57.362,23.703,105.76
			c-1.536-64.188-29.156-177.916-35.484-200.357c-7.172-25.459-31.977-62.663-31.977-62.663c-1.298-1.995-3.831-3.678-7.179-5.08
			v-5.202c0,0-29.749-20.067-69.211-3.751c0,0-1.255,1.065-1.738,6.591c-2.484,0.551-4.639,1.181-6.396,1.891
			c-7.668,3.103-12.564,2.283-12.564,2.283H164.642c0,0-4.896,0.814-12.564-2.283c-1.756-0.71-3.911-1.34-6.396-1.891
			c-0.49-5.526-1.738-6.591-1.738-6.591c-39.461-16.316-69.211,3.751-69.211,3.751v5.202c-3.348,1.401-5.881,3.079-7.179,5.08
			c0,0-24.804,37.204-31.983,62.657c-6.328,22.442-33.948,136.17-35.484,200.356c8.972-48.397,20.159-93.189,23.703-105.76
			C31.403,161.843,56.312,124.309,57.297,122.834z"/>
		<path d="M23.79,286.771c7.62-27.001,32.522-64.542,33.507-66.017c1.334-2.044,3.054-3.868,5.196-5.49v-4.621l5.392-3.641
			c0.741-0.502,18.439-12.24,44.755-12.24c12.124,0,24.229,2.466,35.974,7.32l1.787,0.74l1.469,1.255
			c2.001,1.707,3.329,3.911,4.216,6.23c0.19,0.073,0.38,0.147,0.569,0.227c3.011,1.218,5.141,1.444,6.163,1.481l0.22-0.086h1.591
			h246.116l0.471-0.245l1.279,0.336c0.729-0.012,2.956-0.165,6.23-1.487c0.189-0.074,0.379-0.153,0.569-0.227
			c0.887-2.319,2.215-4.529,4.217-6.23l1.469-1.255l1.787-0.74c11.75-4.859,23.855-7.32,35.973-7.32
			c26.311,0,44.016,11.738,44.756,12.24l5.397,3.641v4.615c2.13,1.604,3.832,3.396,5.123,5.385
			c1.059,1.585,25.961,39.119,33.58,66.127c2.228,7.908,7.485,28.593,13.312,54.866c3.439,15.502,7.062,32.933,10.392,50.889
			c-0.404-16.965-2.626-37.363-5.802-58.648c-8.844-59.26-25.024-125.197-29.683-141.709c-7.179-25.453-31.982-62.657-31.982-62.657
			c-1.298-1.995-3.831-3.678-7.179-5.08v-5.202c0,0-15.043-10.147-37.914-10.147c-9.302,0-19.89,1.677-31.297,6.395
			c0,0-1.255,1.065-1.738,6.591c-2.485,0.551-4.639,1.181-6.396,1.891c-5.024,2.032-8.861,2.381-10.906,2.381
			c-1.077,0-1.658-0.098-1.658-0.098H164.642c0,0-0.582,0.098-1.659,0.098c-2.044,0-5.881-0.349-10.906-2.381
			c-1.756-0.71-3.911-1.34-6.396-1.891c-0.49-5.526-1.738-6.591-1.738-6.591c-11.407-4.718-22.001-6.389-31.297-6.395
			c-22.876,0-37.914,10.147-37.914,10.147v5.202c-3.348,1.402-5.881,3.079-7.179,5.08c0,0-24.804,37.204-31.983,62.657
			c-4.658,16.512-20.839,82.449-29.682,141.709c-3.176,21.285-5.398,41.684-5.802,58.648c3.329-17.956,6.952-35.393,10.392-50.888
			C16.299,315.357,21.556,294.678,23.79,286.771z"/>
		<path d="M570.936,441.772c-0.446-3.28-0.924-6.591-1.419-9.921c-4.003-26.817-9.499-54.976-14.762-79.333
			c-6.371-29.48-12.381-53.385-14.933-62.424c-7.179-25.454-31.983-62.657-31.983-62.657c-1.298-1.995-3.831-3.678-7.179-5.08
			v-5.202c0,0-15.043-10.147-37.913-10.147c-9.303,0-19.891,1.677-31.298,6.396c0,0-1.255,1.065-1.738,6.591
			c-2.484,0.551-4.639,1.181-6.396,1.891c-5.024,2.032-8.861,2.38-10.906,2.38c-1.076,0-1.658-0.098-1.658-0.098H164.642
			c0,0-0.582,0.098-1.659,0.098c-2.044,0-5.881-0.349-10.906-2.38c-1.756-0.71-3.911-1.34-6.396-1.891
			c-0.49-5.526-1.738-6.591-1.738-6.591c-11.407-4.719-22.001-6.389-31.297-6.396c-22.876,0-37.914,10.147-37.914,10.147v5.202
			c-3.348,1.401-5.881,3.078-7.179,5.08c0,0-24.804,37.204-31.983,62.657c-2.552,9.045-8.562,32.943-14.933,62.424
			c-5.263,24.363-10.759,52.516-14.761,79.333c-0.496,3.33-0.973,6.646-1.42,9.927c-0.392,2.858-0.759,5.692-1.108,8.489
			c-3.09,24.963-4.406,47.533-2.375,63.048c4.296,32.81,35.71,50.894,64.86,50.894c19.566,0,38.103-8.14,46.751-25.44
			c21.536-43.079,35.9-95.295,35.9-95.295s8.482-6.199,10.44-6.199c0,0,15.355,12.748,36.904,12.748
			c11.701,0,25.239-3.758,39.131-15.361h105.454c13.893,11.598,27.43,15.361,39.131,15.361c21.555,0,36.904-12.748,36.904-12.748
			c1.958,0,10.44,6.199,10.44,6.199s14.357,52.216,35.899,95.295c8.647,17.295,27.191,25.44,46.751,25.44
			c29.149,0,60.563-18.084,64.859-50.894c2.032-15.515,0.717-38.085-2.374-63.048C571.695,447.463,571.321,444.63,570.936,441.772z
			 M270.028,390.083l-17.779-27.081l-17.944,27.081h-27.087l25.802-36.849l5.729-8.176l-1.561-2.191l-3.605-5.055L208.54,302.67
			h28.232l15.477,24.033l16.298-24.033h27.16l-24.388,34.076l-4.382,6.12l-0.863,1.206l3.458,4.914l28.893,41.096H270.028z
			 M386.302,357.836c-0.208,2.16-0.624,4.235-1.182,6.261c-1.737,6.291-5.122,11.922-10.232,16.849
			c-7.735,7.46-17.368,11.193-28.893,11.193c-10.918,0-19.976-3.14-27.16-9.425s-11.358-14.499-12.51-24.651l22.388-2.718
			c0.71,5.71,2.631,10.067,5.759,13.085c3.127,3.017,6.915,4.528,11.358,4.528c4.773,0,8.795-1.812,12.057-5.435
			c1.487-1.652,2.595-3.599,3.402-5.771c0.674-1.812,1.09-3.819,1.292-5.992c0.085-0.948,0.201-1.872,0.201-2.889
			c0-1.254-0.104-2.423-0.251-3.562c-0.526-4.155-1.982-7.595-4.437-10.263c-3.127-3.403-6.94-5.104-11.444-5.104
			c-2.962,0-6.506,0.575-10.618,1.726l2.552-18.85c6.255,0.165,11.028-1.193,14.321-4.075c3.292-2.883,4.938-6.708,4.938-11.481
			c0-4.063-1.206-7.302-3.623-9.713s-5.624-3.623-9.633-3.623c-3.953,0-7.325,1.371-10.122,4.113
			c-2.797,2.741-4.499,6.75-5.104,12.02l-21.322-3.623c1.481-7.302,3.721-13.128,6.708-17.492c2.992-4.363,7.16-7.791,12.509-10.288
			s11.347-3.746,17.987-3.746c11.358,0,20.465,3.623,27.325,10.863c5.655,5.924,8.477,12.62,8.477,20.086
			c0,10.594-5.79,19.039-17.369,25.354c6.916,1.481,12.442,4.805,16.586,9.958c3.708,4.62,5.667,10.146,6.053,16.48
			c0.042,0.741,0.165,1.438,0.165,2.203C386.497,355.217,386.431,356.539,386.302,357.836z"/>
	</g>
</g>
<g>
</g>
<g>
</g>
<g>
</g>
<g>
</g>
<g>
</g>
<g>
</g>
<g>
</g>
<g>
</g>
<g>
</g>
<g>
</g>
<g>
</g>
<g>
</g>
<g>
</g>
<g>
</g>
<g>
</g>
</svg>
