<?xml version="1.0" encoding="iso-8859-1"?>
<!-- Generator: Adobe Illustrator 16.0.0, SVG Export Plug-In . SVG Version: 6.00 Build 0)  -->
<!DOCTYPE svg PUBLIC "-//W3C//DTD SVG 1.1//EN" "http://www.w3.org/Graphics/SVG/1.1/DTD/svg11.dtd">
<svg version="1.1" id="Capa_1" xmlns="http://www.w3.org/2000/svg" xmlns:xlink="http://www.w3.org/1999/xlink" x="0px" y="0px"
	 width="559.389px" height="559.389px" viewBox="0 0 559.389 559.389" style="enable-background:new 0 0 559.389 559.389;"
	 xml:space="preserve">
<g>
	<path d="M179.047,380.351c2.762,2.762,4.286,6.423,4.286,10.328c0,3.897-1.524,7.56-4.286,10.322
		c-5.52,5.518-15.126,5.528-20.656,0c-2.762-2.758-4.286-6.425-4.286-10.322c0-3.905,1.53-7.566,4.286-10.328
		c2.756-2.763,6.423-4.28,10.322-4.28C172.62,376.07,176.286,377.588,179.047,380.351z M128.003,416.78
		c-3.905,0-7.566,1.524-10.328,4.28c-5.697,5.696-5.697,14.965,0,20.662c5.518,5.513,15.132,5.513,20.662,0
		c5.696-5.697,5.696-14.966,0-20.662C135.568,418.299,131.901,416.78,128.003,416.78z M124.891,497.089l3.641-3.635l-3.634-3.64
		l-3.64,3.634L124.891,497.089z M367.097,170.537c-5.852,0-11.354,2.28-15.495,6.418c-4.144,4.137-6.417,9.644-6.417,15.501
		c0,5.846,2.279,11.352,6.417,15.495c8.28,8.269,22.704,8.269,30.984,0c4.137-4.138,6.417-9.644,6.417-15.495
		s-2.28-11.358-6.417-15.501C378.448,172.812,372.948,170.537,367.097,170.537z M456.597,90.633c-0.595-0.595-1.625-0.595-2.22,0
		l-17.454,17.454L419.47,90.633c-0.298-0.298-0.691-0.458-1.113-0.458c-0.423,0-0.814,0.16-1.112,0.458l-12.162,12.162
		c-0.612,0.613-0.612,1.607,0,2.214l17.454,17.46l-17.454,17.453c-0.612,0.613-0.612,1.613,0.006,2.227l12.156,12.156
		c0.595,0.595,1.625,0.595,2.221,0l17.453-17.46l17.453,17.453c0.596,0.596,1.632,0.59,2.215,0.007l12.168-12.162
		c0.297-0.298,0.464-0.69,0.458-1.119c0-0.411-0.161-0.81-0.452-1.102l-17.46-17.459l17.454-17.46
		c0.297-0.298,0.464-0.69,0.464-1.107c0-0.416-0.167-0.815-0.458-1.106L456.597,90.633z M552.729,119.344L297.175,374.897h-31.36
		c-20.013,0-36.288,16.281-36.288,36.288v31.354L119.335,552.731c-8.875,8.876-23.264,8.876-32.139,0L6.66,472.196
		c-8.875-8.876-8.875-23.27,0-32.146L440.054,6.657c8.87-8.876,23.264-8.876,32.14,0l80.535,80.541
		C561.604,96.074,561.604,110.468,552.729,119.344z M234.319,306.856c2.572,2.572,6.562-1.416,3.988-3.987
		C235.736,300.297,231.749,304.285,234.319,306.856z M77.612,454.866l8.69,8.687l8.691-8.687l-8.691-8.679L77.612,454.866z
		 M91.059,490.978c-0.227-0.697-0.81-1.405-1.44-1.78c-1.244-0.731-2.888-0.397-3.703,0.75c-0.673,0.94-0.69,2.286-0.054,3.25
		c0.417,0.625,1.25,1.186,2.006,1.353c1.376,0.298,2.822-0.577,3.227-1.946C91.213,492.202,91.196,491.388,91.059,490.978z
		 M57.265,434.515l8.679,8.68l8.691-8.68l-8.691-8.691L57.265,434.515z M66.795,497.626c0.714-0.269,4.28-2.238,14.811-8.19
		c2.208-1.244,4.042-2.28,4.077-2.298c0.054-0.024-0.321-0.429-1.81-1.911l-1.881-1.875l-7.453,4.423
		c-4.643,2.756-7.435,4.388-7.411,4.321c0.024-0.053,1.137-1.964,2.471-4.238c3.959-6.756,4.965-8.506,5.215-9.106
		c0.416-0.982,0.381-1.982-0.113-2.815c-0.232-0.394-0.965-1.125-1.363-1.357c-0.762-0.445-1.702-0.518-2.602-0.195
		c-0.667,0.237-2.006,1-10.232,5.814l-3.465,2.03l4.417-7.436c2.429-4.09,4.417-7.458,4.417-7.494s-0.833-0.888-1.857-1.899
		l-1.857-1.839l-1.065,1.887c-7.102,12.566-9.066,16.091-9.399,16.854c-0.494,1.137-0.458,2.57,0.09,3.536
		c0.208,0.368,0.97,1.125,1.362,1.356c1.09,0.644,2.482,0.571,3.982-0.209c0.697-0.362,3.167-1.75,7.924-4.464
		c2.167-1.238,3.923-2.209,3.898-2.161c-0.018,0.048-0.868,1.536-1.881,3.311c-4.31,7.535-4.929,8.66-5.202,9.459
		c-0.167,0.487-0.203,0.708-0.203,1.298c0,0.756,0.096,1.153,0.423,1.708c0.232,0.398,0.929,1.09,1.327,1.321
		C64.373,498.02,65.593,498.085,66.795,497.626z M74.832,508.758l5.673-5.667l5.673-5.673l-1.768-1.769l-1.762-1.769l-5.674,5.667
		l-5.667,5.674l1.763,1.768L74.832,508.758z M93.279,504.525l-1.768-1.768l-1.762-1.77l-5.673,5.668l-5.674,5.674l1.769,1.762
		l1.762,1.768l5.673-5.673L93.279,504.525z M98.161,498.072c-0.227-0.689-0.804-1.404-1.435-1.773
		c-0.959-0.565-2.196-0.506-3.102,0.143c-1.179,0.846-1.482,2.613-0.655,3.857c0.417,0.625,1.251,1.185,2.007,1.352
		c1.381,0.305,2.852-0.595,3.227-1.971C98.315,499.252,98.297,498.488,98.161,498.072z M114.269,474.153l-8.68-8.69l-8.685,8.69
		l8.685,8.691L114.269,474.153z M133.568,493.441l-8.691-8.679l-8.69,8.679l8.69,8.687L133.568,493.441z M142.545,416.847
		c-7.774-7.774-21.316-7.763-29.079,0c-8.019,8.019-8.019,21.062,0,29.08c3.881,3.887,9.042,6.022,14.537,6.022
		c5.482,0,10.655-2.143,14.536-6.022C150.557,437.907,150.557,424.864,142.545,416.847z M189.287,390.679
		c0-5.489-2.148-10.656-6.029-14.537c-7.77-7.763-21.306-7.773-29.074,0c-3.887,3.881-6.03,9.042-6.03,14.537
		c0,5.481,2.149,10.644,6.03,14.53c3.882,3.888,9.043,6.029,14.531,6.029s10.655-2.148,14.536-6.029
		C187.137,401.327,189.28,396.167,189.287,390.679z M199.239,341.937c-2.22-2.226-5.673,1.222-3.445,3.447
		C198.019,347.609,201.46,344.163,199.239,341.937z M204.09,337.085c2.572,2.572,6.561-1.416,3.988-3.988
		C205.502,330.525,201.519,334.514,204.09,337.085z M208.442,351.14c-2.22-2.227-5.673,1.221-3.445,3.447
		C207.222,356.812,210.664,353.366,208.442,351.14z M217.456,360.152c-2.228-2.227-5.68,1.222-3.452,3.446
		C216.228,365.819,219.681,362.379,217.456,360.152z M217.485,342.098c-2.834-2.834-7.232,1.565-4.398,4.399
		C215.919,349.33,220.318,344.931,217.485,342.098z M218.461,322.721c-3.333-3.327-8.5,1.834-5.167,5.168
		C216.623,331.216,221.783,326.055,218.461,322.721z M226.29,351.312c-2.571-2.57-6.561,1.417-3.988,3.988
		S228.86,353.884,226.29,351.312z M227.658,331.924c-3.333-3.327-8.501,1.834-5.167,5.167
		C225.825,340.419,230.986,335.258,227.658,331.924z M229.104,312.07c-3.333-3.326-8.5,1.835-5.167,5.167
		C227.271,320.566,232.438,315.399,229.104,312.07z M236.67,340.931c-3.334-3.327-8.501,1.834-5.167,5.167
		C234.832,349.432,240.004,344.259,236.67,340.931z M238.307,321.274c-3.333-3.326-8.5,1.834-5.167,5.167
		C236.474,329.77,241.641,324.603,238.307,321.274z M247.314,330.281c-3.327-3.328-8.494,1.833-5.161,5.167
		C245.481,338.782,250.641,333.615,247.314,330.281z M247.712,311.869c-2.839-2.834-7.238,1.564-4.398,4.398
		C246.153,319.102,250.552,314.703,247.712,311.869z M243.147,298.023c2.228,2.227,5.679-1.221,3.453-3.446
		C244.379,292.35,240.926,295.803,243.147,298.023z M256.517,321.084c-2.572-2.571-6.561,1.417-3.988,3.988
		C255.1,327.645,259.088,323.655,256.517,321.084z M252.35,307.226c2.227,2.228,5.679-1.22,3.452-3.446
		C253.583,301.553,250.129,305.006,252.35,307.226z M264.809,312.792c-2.221-2.228-5.673,1.22-3.446,3.446
		C263.588,318.459,267.037,315.013,264.809,312.792z M270.018,249.656c2.994-2.994,4.644-6.977,4.644-11.215
		c0-4.232-1.648-8.215-4.644-11.209c-5.995-5.995-16.441-5.989-22.424,0c-6.18,6.179-6.18,16.245,0,22.424
		c2.993,2.994,6.976,4.645,11.215,4.645C263.042,254.3,267.024,252.651,270.018,249.656z M305.729,269.515
		c0-4.238-1.648-8.221-4.644-11.215c-6-6.001-16.447-5.988-22.425,0c-3.001,2.994-4.648,6.977-4.644,11.215
		c0,4.232,1.648,8.215,4.644,11.208c2.995,2.994,6.978,4.645,11.216,4.645c4.231,0,8.215-1.649,11.209-4.645
		C304.08,277.729,305.729,273.747,305.729,269.515z M337.875,301.653c0-4.231-1.648-8.215-4.644-11.209
		c-5.995-5.994-16.441-5.988-22.425,0c-6.179,6.18-6.179,16.245,0,22.425c2.994,3,6.977,4.648,11.215,4.648
		c4.232,0,8.215-1.648,11.21-4.648C336.22,309.875,337.875,305.893,337.875,301.653z M394.963,192.456
		c0-7.447-2.899-14.448-8.162-19.71c-5.262-5.263-12.263-8.161-19.703-8.161c-7.441,0-14.441,2.898-19.704,8.161
		c-5.262,5.262-8.161,12.263-8.161,19.71c0,7.44,2.899,14.441,8.161,19.703c5.263,5.263,12.263,8.155,19.704,8.155
		c7.44,0,14.441-2.893,19.703-8.155C392.057,206.898,394.963,199.897,394.963,192.456z M459.716,122.475l13.239-13.245
		c1.429-1.429,2.215-3.315,2.215-5.321c0-2.013-0.786-3.905-2.209-5.322l-12.155-12.155c-2.84-2.857-7.792-2.857-10.644-0.006
		L436.917,99.67l-13.239-13.238c-2.845-2.857-7.792-2.857-10.644-0.006l-12.161,12.161c-2.93,2.929-2.93,7.703,0,10.632
		l13.245,13.251l-13.245,13.245c-2.93,2.929-2.93,7.696,0,10.638l12.167,12.167c1.423,1.411,3.311,2.197,5.315,2.197
		c2.013,0,3.904-0.786,5.321-2.203l13.245-13.251l13.245,13.245c2.846,2.852,7.798,2.846,10.638,0l12.161-12.155
		c1.423-1.429,2.209-3.316,2.203-5.328c0-2.012-0.786-3.905-2.203-5.315L459.716,122.475z M477.693,38.088
		c0-4.238-1.647-8.221-4.643-11.215c-5.995-5.995-16.442-5.989-22.425,0c-6.18,6.179-6.18,16.245,0,22.424
		c2.994,2.994,6.977,4.644,11.215,4.644c4.232,0,8.216-1.649,11.21-4.644C476.045,46.302,477.693,42.321,477.693,38.088z
		 M461.841,28.183c-2.648,0-5.131,1.029-7.006,2.898c-3.857,3.857-3.857,10.144,0,14.007c3.737,3.744,10.257,3.744,14.007,0
		c1.869-1.869,2.898-4.352,2.898-7c0-2.649-1.029-5.132-2.898-7.007S464.484,28.183,461.841,28.183z M289.878,259.61
		c-2.649,0-5.132,1.029-7.007,2.898c-1.875,1.87-2.905,4.358-2.899,7.007c0,2.638,1.03,5.125,2.899,7.001
		c3.737,3.738,10.257,3.75,14.007,0c1.869-1.869,2.898-4.352,2.898-7.001c0-2.648-1.029-5.131-2.898-7.007
		C295.008,260.633,292.525,259.61,289.878,259.61z M322.021,291.755c-2.647,0-5.131,1.029-7.006,2.897
		c-3.857,3.857-3.857,10.145,0,14.008c3.738,3.745,10.257,3.751,14.007,0c1.869-1.869,2.899-4.352,2.899-7.007
		c0-2.644-1.03-5.125-2.899-7.001C327.153,292.778,324.666,291.755,322.021,291.755z M101.93,474.147l3.64,3.634l3.63-3.636
		l-3.641-3.634L101.93,474.147z M69.58,434.515l-3.633-3.633l-3.632,3.633l3.632,3.633L69.58,434.515z M89.938,454.859l-3.632-3.633
		l-3.633,3.633l3.633,3.633L89.938,454.859z M258.809,228.542c-2.648,0-5.132,1.029-7.007,2.898c-3.857,3.857-3.857,10.144,0,14.007
		c3.738,3.738,10.257,3.751,14.007,0c1.869-1.869,2.899-4.352,2.899-7.006c0-2.644-1.03-5.126-2.899-7.001
		S261.452,228.542,258.809,228.542z M533.697,430.818v9.482c0,8.864-7.102,16.037-15.917,16.222v3.423
		c0,13.465-10.918,24.383-24.383,24.383H265.815c-13.471,0-24.383-10.918-24.383-24.383v-29.316v-19.448
		c0-13.465,10.918-24.383,24.383-24.383h19.455h208.128c13.465,0,24.383,10.918,24.383,24.383v3.423
		C526.596,414.786,533.697,421.96,533.697,430.818z M403.493,438.823l15.529-15.529c1.084-1.084,1.084-2.841,0-3.924L405.6,405.946
		c-1.084-1.083-2.84-1.083-3.923,0l-15.531,15.531l-15.531-15.531c-1.076-1.083-2.832-1.083-3.916,0l-13.424,13.424
		c-1.084,1.083-1.084,2.84,0,3.924l15.53,15.529l-15.53,15.531c-1.084,1.083-1.084,2.84,0,3.923l13.424,13.424
		c1.077,1.083,2.834,1.083,3.916,0l15.531-15.53l15.531,15.53c1.083,1.083,2.839,1.083,3.923,0l13.423-13.424
		c1.084-1.083,1.084-2.84,0-3.923L403.493,438.823z"/>
</g>
<g>
</g>
<g>
</g>
<g>
</g>
<g>
</g>
<g>
</g>
<g>
</g>
<g>
</g>
<g>
</g>
<g>
</g>
<g>
</g>
<g>
</g>
<g>
</g>
<g>
</g>
<g>
</g>
<g>
</g>
</svg>
