<?xml version="1.0" encoding="iso-8859-1"?>
<!-- Generator: Adobe Illustrator 16.0.0, SVG Export Plug-In . SVG Version: 6.00 Build 0)  -->
<!DOCTYPE svg PUBLIC "-//W3C//DTD SVG 1.1//EN" "http://www.w3.org/Graphics/SVG/1.1/DTD/svg11.dtd">
<svg version="1.1" id="Capa_1" xmlns="http://www.w3.org/2000/svg" xmlns:xlink="http://www.w3.org/1999/xlink" x="0px" y="0px"
	 width="583.569px" height="583.569px" viewBox="0 0 583.569 583.569" style="enable-background:new 0 0 583.569 583.569;"
	 xml:space="preserve">
<g>
	<g>
		<circle cx="291.788" cy="237.912" r="10.637"/>
		<path d="M118.133,185.733c-16.83,0-30.521,13.69-30.521,30.521s13.69,30.521,30.521,30.521c16.83,0,30.52-13.69,30.52-30.521
			S134.962,185.733,118.133,185.733z"/>
		<circle cx="401.373" cy="271.933" r="14.174"/>
		<path d="M220.649,298.854h-28.691v-28.69c0-0.753-0.612-1.365-1.365-1.365h-15.024c-0.747,0-1.359,0.612-1.359,1.365v28.69h-28.69
			c-0.747,0-1.358,0.612-1.358,1.359v15.024c0,0.746,0.612,1.358,1.358,1.358h28.69v28.69c0,0.747,0.612,1.359,1.359,1.359h15.024
			c0.753,0,1.365-0.612,1.365-1.359v-28.69h28.691c0.747,0,1.358-0.612,1.358-1.358v-15.024
			C222.007,299.461,221.396,298.854,220.649,298.854z"/>
		<path d="M508.969,125.23c-0.44-11.928-15.024-16.346-15.024-16.346c-6.628-5.747-22.094-13.256-22.094-13.256
			c-2.649-2.87-3.091-9.945-3.091-9.945c-16.126-16.573-34.247,0-34.247,0v10.386c0,0-2.65,0-43.306,17.234
			s-99.419,16.347-99.419,16.347s-58.771,0.881-99.419-16.347s-43.305-17.234-43.305-17.234V85.683c0,0-18.115-16.573-34.248,0
			c0,0-0.44,7.069-3.09,9.945c0,0-15.465,7.51-22.093,13.256c0,0-14.584,4.418-15.025,16.346c0,0-60.312,67.608-73.568,270.865
			c-13.256,203.258,104.285,64.511,129.909,42.418c0.349-0.3,0.698-0.606,1.046-0.906v-9.847c0-20.569,16.738-37.308,37.308-37.308
			h97.229c7.907-0.343,16.273-0.545,25.251-0.545c8.979,0,17.351,0.196,25.252,0.545h86.23c18.513,0,33.923,13.556,36.818,31.261
			c8.084,3.764,14.112,11.193,16.096,20.043c31.371,29.535,139.07,149.383,126.354-45.661
			C569.281,192.838,508.969,125.23,508.969,125.23z M401.373,251.639c11.188,0,20.287,9.101,20.287,20.294
			c0,11.188-9.1,20.288-20.287,20.288c-11.193,0-20.294-9.1-20.294-20.288C381.079,260.74,390.18,251.639,401.373,251.639z
			 M331.048,154.282c0.104-0.257,0.422-0.612,0.648-0.618c2.754-0.043,5.515-0.024,8.274-0.024c0.606,0,0.618,0.404,0.618,0.838
			c0,2.13,0,4.26,0,6.389c-0.006,0-0.006,0-0.012,0c0,2.05,0.061,4.101-0.019,6.145c-0.08,2.038-0.888,3.715-2.846,4.615
			c-2.748,1.249-6.065-0.471-6.536-3.452c-0.208-1.31-0.196-2.662-0.208-3.997c-0.024-2.95-0.013-5.894-0.007-8.843
			C330.956,154.98,330.919,154.594,331.048,154.282z M303.324,153.542c2.424-0.025,4.419,1.823,4.425,4.112
			c0.006,2.332-1.897,4.137-4.363,4.156c-2.399,0.012-4.333-1.806-4.352-4.082C299.021,155.482,300.98,153.566,303.324,153.542z
			 M307.106,189.876c0.006,0.734-0.202,1.016-0.973,0.998c-1.8-0.049-3.605-0.037-5.41,0c-0.686,0.012-0.985-0.178-0.979-0.918
			c0.019-7.515,0.012-15.031,0-22.54c0-0.637,0.227-0.875,0.863-0.869c1.885,0.024,3.77,0.03,5.654,0
			c0.661-0.012,0.845,0.257,0.845,0.875c-0.024,3.764-0.019,7.534-0.019,11.31C307.088,182.446,307.076,186.161,307.106,189.876z
			 M287.92,153.536c2.344,0.019,4.352,1.94,4.352,4.149c0,2.276-2.008,4.143-4.438,4.125c-2.448-0.019-4.345-1.867-4.309-4.211
			C283.562,155.347,285.545,153.511,287.92,153.536z M291.598,167.495c-0.024,7.485-0.018,14.964,0,22.448
			c0,0.734-0.263,0.942-0.96,0.931c-1.83-0.037-3.66-0.037-5.49,0c-0.722,0.012-0.949-0.251-0.942-0.955
			c0.024-3.739,0.012-7.485,0.012-11.224c0-3.66,0-7.319,0-10.979c0-1.163,0.006-1.163,1.199-1.163c1.72,0,3.439,0.019,5.159-0.018
			C291.292,166.516,291.604,166.706,291.598,167.495z M291.788,221.149c9.242,0,16.757,7.521,16.757,16.756
			c0,9.235-7.516,16.763-16.757,16.763c-9.241,0-16.756-7.521-16.756-16.756C275.031,228.677,282.546,221.149,291.788,221.149z
			 M118.133,252.9c-20.208,0-36.641-16.438-36.641-36.64c0-20.202,16.438-36.641,36.641-36.641c20.202,0,36.64,16.438,36.64,36.641
			C154.773,236.461,138.341,252.9,118.133,252.9z M228.127,315.231c0,4.125-3.354,7.479-7.479,7.479h-22.571v22.57
			c0,4.125-3.36,7.479-7.485,7.479h-15.024c-4.125,0-7.479-3.354-7.479-7.479v-22.57H145.52c-4.125,0-7.479-3.354-7.479-7.479
			v-15.024c0-4.125,3.354-7.479,7.479-7.479h22.571v-22.57c0-4.125,3.354-7.484,7.479-7.484h15.024c4.125,0,7.485,3.36,7.485,7.484
			v22.57h22.571c4.125,0,7.479,3.354,7.479,7.479V315.231z M227.968,237.912c0-8.268,6.726-14.994,14.988-14.994
			s14.994,6.732,14.994,14.994c0,8.262-6.732,14.988-14.994,14.988S227.968,246.174,227.968,237.912z M259.737,372.338
			c0,1.163-0.943,2.099-2.099,2.099h-5.606c-1.157,0-2.099-0.942-2.099-2.099v-5.6c0-1.163,0.942-2.1,2.099-2.1h5.606
			c1.156,0,2.099,0.942,2.099,2.1V372.338z M269.26,189.656c-2.344,2.271-6.267,1.928-7.968-0.863
			c-0.74-1.212-1.224-2.619-1.616-4.002c-1.628-5.759-3.182-11.536-4.761-17.307c-0.11-0.404-0.257-0.796-0.392-1.194
			c-0.092-0.006-0.184-0.012-0.275-0.024c-0.123,0.294-0.275,0.582-0.361,0.888c-1.732,6.267-3.439,12.54-5.189,18.8
			c-0.257,0.912-0.618,1.83-1.114,2.625c-2.026,3.244-6.402,3.458-8.697,0.386c-0.686-0.918-1.187-2.044-1.505-3.152
			c-2.748-9.639-5.441-19.296-8.14-28.954c-0.349-1.254-0.331-1.261,1.01-1.261c1.83,0,3.666,0.018,5.49-0.019
			c0.667-0.012,0.967,0.227,1.132,0.881c1.989,7.895,4.002,15.784,6.01,23.672c0.104,0.41,0.239,0.814,0.361,1.224
			c0.092,0.018,0.184,0.037,0.275,0.049c0.128-0.282,0.288-0.557,0.367-0.857c1.854-6.995,3.697-13.997,5.551-20.998
			c0.447-1.702,1.212-3.244,2.987-3.85c2.687-0.912,5.453-0.202,6.457,2.742c0.899,2.632,1.555,5.349,2.264,8.042
			c1.249,4.7,2.455,9.413,3.69,14.113c0.074,0.275,0.214,0.526,0.533,0.802c0.128-0.306,0.3-0.593,0.379-0.912
			c2.02-7.913,4.033-15.833,6.041-23.752c0.288-1.15,0.281-1.15,1.475-1.15c1.885,0,3.77,0.012,5.655-0.012
			c0.661-0.006,0.875,0.171,0.673,0.869c-1.15,4.076-2.252,8.165-3.396,12.24c-1.604,5.704-3.225,11.408-4.841,17.111
			C270.949,187.263,270.361,188.591,269.26,189.656z M283.905,372.338c0,1.163-0.936,2.099-2.099,2.099H276.2
			c-1.157,0-2.099-0.942-2.099-2.099v-5.6c0-1.163,0.942-2.1,2.099-2.1h5.605c1.163,0,2.099,0.942,2.099,2.1V372.338z
			 M275.031,307.723c0-9.241,7.521-16.756,16.756-16.756c9.236,0,16.757,7.521,16.757,16.756s-7.516,16.757-16.757,16.757
			C282.546,324.479,275.031,316.964,275.031,307.723z M309.475,372.338c0,1.163-0.942,2.099-2.099,2.099h-5.606
			c-1.162,0-2.099-0.942-2.099-2.099v-5.6c0-1.163,0.937-2.1,2.099-2.1h5.606c1.156,0,2.099,0.942,2.099,2.1V372.338z
			 M317.125,175.99c-0.086-1.389-0.043-2.778-0.049-4.174c-0.019-4.425-0.007-8.849-0.056-13.274c-0.03-3.005,1.72-4.859,4.707-4.89
			c1.064-0.012,2.136,0.037,3.194-0.018c0.802-0.043,1.034,0.288,1.034,1.052c-0.024,4.21-0.03,8.415,0,12.625
			c0.012,2.179,0.594,4.205,1.897,5.992c1.462,2.007,3.537,2.956,5.899,3.335c2.692,0.435,5.324,0.153,7.681-1.273
			c2.692-1.628,3.972-4.223,4.076-7.271c0.146-4.37,0.085-8.739,0.11-13.115c0.006-1.334,0.006-1.353,1.364-1.334
			c1.365,0.024,2.742-0.031,4.082,0.171c2.038,0.312,3.427,1.964,3.439,4.002c0.03,5.93,0.055,11.86-0.006,17.791
			c-0.037,3.427-2.454,5.814-5.985,5.888c-4.26,0.085-8.525,0.018-12.791,0.018c0,0.012,0,0.025,0,0.031
			c-3.745,0-7.491,0.012-11.23-0.012c-0.924-0.006-1.872-0.031-2.766-0.214C318.973,180.751,317.296,178.799,317.125,175.99z
			 M333.643,372.338c0,1.163-0.942,2.099-2.099,2.099h-5.606c-1.156,0-2.099-0.942-2.099-2.099v-5.6c0-1.163,0.942-2.1,2.099-2.1
			h5.606c1.156,0,2.099,0.942,2.099,2.1V372.338z M325.619,237.912c0-8.268,6.732-14.994,14.994-14.994s14.988,6.732,14.988,14.994
			c0,8.262-6.727,14.988-14.988,14.988S325.619,246.174,325.619,237.912z M364.034,329.559c-11.187,0-20.287-9.101-20.287-20.287
			c0-11.194,9.101-20.294,20.287-20.294c11.194,0,20.295,9.1,20.295,20.294C384.329,320.458,375.229,329.559,364.034,329.559z
			 M401.373,366.903c-11.193,0-20.294-9.101-20.294-20.294c0-11.188,9.101-20.288,20.294-20.288
			c11.188,0,20.287,9.101,20.287,20.288C421.667,357.803,412.561,366.903,401.373,366.903z M438.711,329.559
			c-11.188,0-20.288-9.101-20.288-20.287c0-11.194,9.101-20.294,20.288-20.294s20.288,9.1,20.288,20.294
			C458.999,320.458,449.898,329.559,438.711,329.559z M465.884,252.9c-20.208,0-36.641-16.438-36.641-36.64
			c0-20.202,16.438-36.641,36.641-36.641s36.641,16.438,36.641,36.641C502.524,236.461,486.092,252.9,465.884,252.9z"/>
		<circle cx="340.619" cy="237.906" r="8.874"/>
		<circle cx="242.956" cy="237.906" r="8.874"/>
		<path d="M401.373,332.436c-7.815,0-14.174,6.358-14.174,14.168c0,7.815,6.358,14.174,14.174,14.174
			c7.809,0,14.168-6.358,14.168-14.174C415.547,338.794,409.188,332.436,401.373,332.436z"/>
		<circle cx="364.034" cy="309.265" r="14.174"/>
		<circle cx="291.788" cy="307.723" r="10.637"/>
		<path d="M465.884,185.733c-16.83,0-30.521,13.69-30.521,30.521s13.69,30.521,30.521,30.521s30.521-13.69,30.521-30.521
			S482.714,185.733,465.884,185.733z"/>
		<circle cx="438.711" cy="309.265" r="14.174"/>
		<path d="M428.344,431.279v-3.519c0-3.599-0.783-6.995-2.148-10.092c-3.886-8.813-12.668-14.982-22.919-14.982H394.5H189.076
			h-19.774c-13.647,0-24.7,10.919-25.012,24.492c0,0.196-0.055,0.38-0.055,0.576v50.141c0,13.844,11.224,25.067,25.067,25.067
			h233.969c13.843,0,25.067-11.224,25.067-25.067v-3.519c9.063-0.19,16.364-7.564,16.364-16.678v-9.749
			C444.709,438.844,437.407,431.47,428.344,431.279z M231.163,472.59c0,8.06-6.53,14.59-14.59,14.59H177.05
			c-8.06,0-14.59-6.536-14.59-14.59v-39.523c0-8.06,6.53-14.59,14.59-14.59h39.523c8.06,0,14.59,6.536,14.59,14.59V472.59z"/>
	</g>
</g>
<g>
</g>
<g>
</g>
<g>
</g>
<g>
</g>
<g>
</g>
<g>
</g>
<g>
</g>
<g>
</g>
<g>
</g>
<g>
</g>
<g>
</g>
<g>
</g>
<g>
</g>
<g>
</g>
<g>
</g>
</svg>
