<?xml version="1.0" encoding="iso-8859-1"?>
<!-- Generator: Adobe Illustrator 16.0.0, SVG Export Plug-In . SVG Version: 6.00 Build 0)  -->
<!DOCTYPE svg PUBLIC "-//W3C//DTD SVG 1.1//EN" "http://www.w3.org/Graphics/SVG/1.1/DTD/svg11.dtd">
<svg version="1.1" id="Capa_1" xmlns="http://www.w3.org/2000/svg" xmlns:xlink="http://www.w3.org/1999/xlink" x="0px" y="0px"
	 width="559.389px" height="559.389px" viewBox="0 0 559.389 559.389" style="enable-background:new 0 0 559.389 559.389;"
	 xml:space="preserve">
<g>
	<path d="M296.877,262.508c3.857,3.864,3.857,10.15,0,14.008c-3.737,3.738-10.257,3.75-14.007,0
		c-1.869-1.876-2.898-4.357-2.898-7.001c0-2.655,1.023-5.137,2.898-7.007c1.875-1.869,4.357-2.898,7-2.898
		C292.521,259.61,295.002,260.639,296.877,262.508z M258.797,228.542c-2.643,0-5.125,1.029-7,2.898s-2.898,4.352-2.898,7.001
		c0,2.648,1.029,5.131,2.898,7.006c3.75,3.751,10.269,3.738,14.008,0c1.868-1.869,2.903-4.356,2.897-7.006
		c0-2.638-1.029-5.126-2.897-7.001C263.936,229.565,261.446,228.542,258.797,228.542z M168.713,376.07
		c-3.897,0-7.564,1.519-10.328,4.28c-5.696,5.696-5.696,14.959,0,20.656c5.524,5.522,15.139,5.522,20.662,0
		c5.697-5.697,5.697-14.96,0-20.656C176.285,377.588,172.618,376.064,168.713,376.07z M101.946,474.159l3.642,3.643l3.641-3.643
		l-3.641-3.641L101.946,474.159z M121.244,493.445l3.632,3.633l3.633-3.633l-3.633-3.632L121.244,493.445z M451.306,122.463
		l17.459-17.46c0.612-0.613,0.612-1.607,0-2.214l-12.161-12.162c-0.597-0.595-1.631-0.589-2.215-0.006l-17.459,17.46l-17.454-17.448
		c-0.298-0.298-0.69-0.458-1.113-0.458c-0.422,0-0.815,0.16-1.106,0.452l-12.168,12.168c-0.298,0.297-0.458,0.69-0.458,1.113
		c0,0.41,0.16,0.81,0.452,1.101l17.46,17.466l-17.454,17.453c-0.298,0.298-0.458,0.691-0.458,1.107
		c-0.006,0.423,0.16,0.821,0.458,1.119l12.161,12.162c0.597,0.595,1.619,0.601,2.228-0.006l17.447-17.454l17.453,17.454
		c0.597,0.595,1.625,0.595,2.222,0l12.161-12.156c0.612-0.613,0.612-1.613,0-2.22L451.306,122.463z M461.829,28.183
		c-2.644,0-5.125,1.029-7.001,2.898c-1.875,1.869-2.897,4.352-2.897,7.007c0,2.643,1.028,5.125,2.897,7
		c3.745,3.744,10.263,3.744,14.008,0c1.869-1.869,2.898-4.357,2.898-7c0.006-2.644-1.029-5.132-2.898-7.007
		S464.484,28.183,461.829,28.183z M322.01,291.755c-2.644,0-5.125,1.029-7.001,2.897c-1.875,1.869-2.897,4.353-2.897,7.002
		c0,2.647,1.029,5.131,2.897,7.006c3.758,3.751,10.275,3.745,14.008,0c1.869-1.869,2.904-4.357,2.898-7.006
		c0-2.639-1.029-5.127-2.898-7.002C327.147,292.778,324.658,291.755,322.01,291.755z M552.729,119.338L297.175,374.892h-24.223
		c-20.007,0-36.288,16.281-36.288,36.288v24.222l-117.329,117.33c-8.876,8.876-23.264,8.876-32.14,0L6.66,472.196
		c-8.876-8.876-8.876-23.27,0-32.146L440.048,6.657c8.876-8.876,23.271-8.876,32.146,0l80.535,80.535
		C561.604,96.069,561.604,110.462,552.729,119.338z M234.314,306.856c2.57,2.572,6.56-1.416,3.987-3.987
		C235.73,300.297,231.741,304.285,234.314,306.856z M77.611,454.866l8.691,8.691l8.679-8.691l-8.679-8.679L77.611,454.866z
		 M91.053,490.978c-0.226-0.697-0.804-1.405-1.435-1.78c-1.244-0.731-2.887-0.397-3.702,0.75c-0.673,0.94-0.69,2.286-0.054,3.25
		c0.417,0.625,1.244,1.186,2.006,1.353c1.375,0.298,2.821-0.577,3.227-1.946C91.214,492.202,91.196,491.388,91.053,490.978z
		 M57.259,434.515l8.691,8.68l8.691-8.68l-8.691-8.686L57.259,434.515z M66.795,497.626c0.715-0.269,4.28-2.238,14.812-8.19
		c2.202-1.244,4.035-2.28,4.077-2.298c0.054-0.024-0.321-0.429-1.81-1.911l-1.881-1.875l-7.453,4.423
		c-4.638,2.756-7.436,4.388-7.411,4.321c0.023-0.053,1.137-1.964,2.471-4.238c3.964-6.756,4.964-8.506,5.22-9.106
		c0.417-0.982,0.375-1.982-0.112-2.815c-0.232-0.394-0.965-1.125-1.363-1.357c-0.763-0.445-1.703-0.518-2.602-0.195
		c-0.667,0.237-2.006,1-10.233,5.814l-3.464,2.03l4.411-7.436c2.429-4.09,4.417-7.458,4.417-7.494s-0.834-0.888-1.857-1.899
		l-1.857-1.839l-1.065,1.887c-7.102,12.566-9.066,16.091-9.399,16.854c-0.494,1.137-0.459,2.57,0.089,3.536
		c0.209,0.368,0.971,1.125,1.363,1.356c1.09,0.644,2.482,0.571,3.982-0.209c0.696-0.362,3.167-1.75,7.923-4.464
		c2.167-1.238,3.923-2.209,3.899-2.161c-0.018,0.048-0.869,1.536-1.881,3.311c-4.31,7.535-4.929,8.66-5.203,9.459
		c-0.166,0.487-0.202,0.708-0.202,1.298c0,0.756,0.096,1.153,0.423,1.708c0.232,0.398,0.929,1.09,1.327,1.321
		C64.373,498.02,65.587,498.085,66.795,497.626z M74.832,508.758l5.673-5.667l5.667-5.673l-1.769-1.769l-1.762-1.769l-5.673,5.667
		l-5.667,5.674l1.768,1.768L74.832,508.758z M93.279,504.525l-1.768-1.768l-1.769-1.77l-5.667,5.668l-5.673,5.674l1.768,1.762
		l1.769,1.768l5.667-5.673L93.279,504.525z M98.161,498.072c-0.227-0.689-0.804-1.404-1.436-1.773
		c-0.958-0.565-2.196-0.506-3.101,0.143c-1.179,0.846-1.482,2.613-0.655,3.857c0.417,0.625,1.244,1.185,2.006,1.352
		c1.382,0.305,2.852-0.595,3.227-1.971C98.315,499.252,98.298,498.488,98.161,498.072z M114.275,474.153l-8.686-8.685l-8.686,8.685
		l8.686,8.687L114.275,474.153z M133.556,493.441l-8.679-8.679l-8.691,8.679l8.691,8.691L133.556,493.441z M142.545,416.847
		c-7.769-7.77-21.312-7.774-29.079,0c-8.019,8.019-8.019,21.062,0,29.08c3.881,3.887,9.048,6.022,14.536,6.022
		c5.488,0,10.655-2.143,14.537-6.022C150.552,437.907,150.552,424.864,142.545,416.847z M183.262,376.136
		c-7.769-7.774-21.311-7.763-29.079,0c-8.019,8.019-8.019,21.055,0,29.073c3.881,3.888,9.042,6.029,14.537,6.029
		c5.482,0,10.655-2.148,14.536-6.029C191.27,397.195,191.27,384.153,183.262,376.136z M199.239,341.937
		c-2.221-2.226-5.673,1.222-3.446,3.447C198.014,347.609,201.46,344.163,199.239,341.937z M204.091,337.085
		c2.571,2.572,6.561-1.416,3.988-3.988C205.502,330.525,201.515,334.514,204.091,337.085z M208.442,351.14
		c-2.221-2.227-5.673,1.221-3.446,3.447C207.216,356.812,210.663,353.366,208.442,351.14z M217.449,360.152
		c-2.221-2.227-5.674,1.222-3.447,3.446C216.229,365.819,219.669,362.379,217.449,360.152z M217.484,342.098
		c-2.839-2.834-7.232,1.565-4.398,4.399C215.919,349.33,220.318,344.931,217.484,342.098z M218.449,322.721
		c-3.328-3.327-8.495,1.834-5.161,5.168C216.621,331.216,221.782,326.055,218.449,322.721z M226.289,351.312
		c-2.572-2.57-6.561,1.417-3.988,3.988C224.872,357.872,228.86,353.884,226.289,351.312z M227.652,331.924
		c-3.328-3.327-8.495,1.834-5.161,5.167C225.818,340.419,230.985,335.258,227.652,331.924z M229.1,312.07
		c-3.328-3.326-8.495,1.835-5.161,5.167C227.266,320.566,232.433,315.405,229.1,312.07z M236.671,340.931
		c-3.334-3.327-8.501,1.834-5.167,5.167C234.831,349.432,240.004,344.259,236.671,340.931z M238.302,321.274
		c-3.327-3.326-8.494,1.834-5.16,5.167C236.468,329.77,241.635,324.608,238.302,321.274z M247.31,330.281
		c-3.328-3.328-8.495,1.833-5.161,5.167C245.48,338.782,250.643,333.615,247.31,330.281z M247.713,311.869
		c-2.84-2.834-7.237,1.564-4.398,4.398C246.147,319.102,250.547,314.703,247.713,311.869z M243.153,298.023
		c2.22,2.227,5.673-1.221,3.446-3.446C244.372,292.351,240.927,295.803,243.153,298.023z M256.518,321.084
		c-2.571-2.571-6.561,1.417-3.988,3.988C255.102,327.645,259.089,323.655,256.518,321.084z M252.356,307.226
		c2.22,2.228,5.673-1.22,3.446-3.446C253.575,301.554,250.13,305.006,252.356,307.226z M264.811,312.792
		c-2.222-2.228-5.675,1.22-3.447,3.446C263.589,318.459,267.035,315.013,264.811,312.792z M274.655,238.436
		c0-4.232-1.649-8.215-4.645-11.21c-5.981-5.982-16.43-5.988-22.424,0c-2.994,2.995-4.644,6.978-4.644,11.21
		c0,4.238,1.648,8.221,4.644,11.215c2.995,2.994,6.978,4.643,11.209,4.643c4.238,0,8.222-1.648,11.215-4.643
		C273.012,246.662,274.661,242.68,274.655,238.436z M301.086,258.3c-5.977-5.982-16.43-5.994-22.425,0
		c-2.994,2.994-4.643,6.977-4.643,11.215c0,4.232,1.647,8.215,4.643,11.208c2.995,2.994,6.978,4.645,11.209,4.645
		c4.238,0,8.222-1.649,11.216-4.645C307.266,274.545,307.266,264.485,301.086,258.3z M337.868,301.653
		c0-4.231-1.649-8.215-4.644-11.209c-5.978-5.982-16.425-5.988-22.425,0c-2.993,2.994-4.644,6.978-4.644,11.209
		c0,4.238,1.648,8.222,4.644,11.216c2.994,3,6.978,4.648,11.209,4.648c4.238,0,8.222-1.648,11.216-4.648
		C336.226,309.875,337.874,305.893,337.868,301.653z M394.961,192.462c0-7.447-2.897-14.447-8.161-19.71
		c-5.262-5.263-12.263-8.161-19.71-8.161c-7.439,0-14.44,2.897-19.702,8.161c-10.864,10.864-10.864,28.544,0,39.407
		c5.262,5.263,12.263,8.155,19.702,8.155c7.447,0,14.448-2.893,19.71-8.155C392.063,206.898,394.961,199.897,394.961,192.462z
		 M472.967,135.696l-13.251-13.244l13.251-13.251c2.93-2.929,2.93-7.703,0-10.632l-12.16-12.162c-2.853-2.852-7.806-2.852-10.639,0
		l-13.245,13.245l-13.245-13.245c-2.852-2.852-7.805-2.852-10.638,0l-12.155,12.156c-1.43,1.429-2.209,3.315-2.209,5.327
		c0,2.007,0.78,3.899,2.202,5.316l13.245,13.251l-13.238,13.238c-1.423,1.423-2.209,3.311-2.209,5.322
		c-0.006,2.012,0.78,3.905,2.202,5.328l12.162,12.161c1.423,1.417,3.311,2.202,5.321,2.202c2.007,0,3.898-0.785,5.322-2.202
		l13.245-13.251l13.238,13.239c2.846,2.857,7.792,2.857,10.645,0.006l12.167-12.161
		C475.901,143.404,475.901,138.637,472.967,135.696z M477.688,38.088c0.006-4.238-1.645-8.221-4.645-11.215
		c-5.981-5.983-16.43-5.989-22.424,0c-2.994,2.994-4.644,6.977-4.644,11.215c0,4.232,1.648,8.215,4.644,11.209
		c2.995,2.994,6.978,4.644,11.209,4.644c4.238,0,8.221-1.649,11.215-4.644C476.038,46.302,477.693,42.321,477.688,38.088z
		 M367.09,170.537c-5.846,0-11.352,2.28-15.494,6.418c-8.549,8.548-8.549,22.447,0,30.99c8.285,8.274,22.716,8.269,30.989,0
		c4.139-4.138,6.418-9.644,6.418-15.495s-2.279-11.358-6.418-15.502C378.448,172.806,372.948,170.537,367.09,170.537z
		 M65.937,430.863l-3.64,3.633l3.634,3.642l3.64-3.634L65.937,430.863z M127.996,416.78c-3.899,0-7.566,1.524-10.328,4.28
		c-5.697,5.696-5.697,14.965,0,20.662c5.53,5.513,15.144,5.513,20.662,0c5.697-5.697,5.697-14.966,0-20.662
		C135.568,418.299,131.907,416.78,127.996,416.78z M89.943,454.861l-3.633-3.633l-3.633,3.633l3.633,3.633L89.943,454.861z
		 M540.829,430.818v9.482c0,8.864-7.103,16.037-15.918,16.222v3.423c0,13.465-10.918,24.383-24.383,24.383H272.952
		c-13.465,0-24.382-10.918-24.382-24.383v-36.449v-12.315c0-13.465,10.917-24.383,24.382-24.383h12.316h215.266
		c13.465,0,24.383,10.918,24.383,24.383v3.423C533.733,414.786,540.829,421.96,540.829,430.818z M333.117,416.341
		c0-7.834-6.352-14.191-14.191-14.191h-38.442c-7.833,0-14.191,6.353-14.191,14.191v38.442c0,7.834,6.353,14.191,14.191,14.191
		h38.442c7.841,0,14.191-6.352,14.191-14.191V416.341z M419.143,416.341c0-7.834-6.357-14.191-14.197-14.191h-38.443
		c-7.84,0-14.196,6.353-14.196,14.191v38.442c0,7.834,6.356,14.191,14.196,14.191h38.443c7.84,0,14.197-6.352,14.197-14.191V416.341
		z M508.547,416.341c0-7.834-6.352-14.191-14.19-14.191h-38.443c-7.84,0-14.19,6.353-14.19,14.191v38.442
		c0,7.834,6.352,14.191,14.19,14.191h38.443c7.84,0,14.19-6.352,14.19-14.191V416.341z"/>
</g>
<g>
</g>
<g>
</g>
<g>
</g>
<g>
</g>
<g>
</g>
<g>
</g>
<g>
</g>
<g>
</g>
<g>
</g>
<g>
</g>
<g>
</g>
<g>
</g>
<g>
</g>
<g>
</g>
<g>
</g>
</svg>
