<?xml version="1.0" encoding="iso-8859-1"?>
<!-- Generator: Adobe Illustrator 16.0.0, SVG Export Plug-In . SVG Version: 6.00 Build 0)  -->
<!DOCTYPE svg PUBLIC "-//W3C//DTD SVG 1.1//EN" "http://www.w3.org/Graphics/SVG/1.1/DTD/svg11.dtd">
<svg version="1.1" id="Capa_1" xmlns="http://www.w3.org/2000/svg" xmlns:xlink="http://www.w3.org/1999/xlink" x="0px" y="0px"
	 width="583.576px" height="583.576px" viewBox="0 0 583.576 583.576" style="enable-background:new 0 0 583.576 583.576;"
	 xml:space="preserve">
<g>
	<g>
		<circle cx="291.788" cy="362.314" r="10.637"/>
		<circle cx="340.619" cy="292.497" r="8.868"/>
		<path d="M220.649,353.447h-28.691v-28.691c0-0.746-0.612-1.358-1.365-1.358h-15.024c-0.747,0-1.359,0.612-1.359,1.358v28.691
			h-28.69c-0.747,0-1.358,0.611-1.358,1.358v15.024c0,0.747,0.612,1.358,1.358,1.358h28.69v28.69c0,0.747,0.612,1.359,1.359,1.359
			h15.024c0.753,0,1.365-0.612,1.365-1.359v-28.696h28.691c0.747,0,1.358-0.612,1.358-1.358v-15.024
			C222.007,354.058,221.396,353.447,220.649,353.447z"/>
		<circle cx="291.788" cy="292.498" r="10.637"/>
		<circle cx="242.956" cy="292.497" r="8.868"/>
		<path d="M508.969,179.822c-0.44-11.928-15.024-16.346-15.024-16.346c-6.628-5.747-22.094-13.256-22.094-13.256
			c-2.649-2.87-3.091-9.945-3.091-9.945c-16.126-16.573-34.247,0-34.247,0v10.386c0,0-2.65,0-43.306,17.234
			c-40.648,17.228-99.419,16.347-99.419,16.347s-58.771,0.881-99.419-16.347c-40.655-17.234-43.305-17.234-43.305-17.234v-10.386
			c0,0-18.115-16.573-34.248,0c0,0-0.44,7.069-3.09,9.945c0,0-15.465,7.51-22.093,13.256c0,0-14.584,4.418-15.025,16.346
			c0,0-60.312,67.608-73.568,270.865c-13.256,203.258,104.285,64.511,129.909,42.418c25.631-22.094,52.143-48.605,160.84-48.605
			c108.698,0,135.209,26.512,160.84,48.605c25.631,22.093,143.165,160.84,129.909-42.418
			C569.281,247.43,508.969,179.822,508.969,179.822z M401.373,306.231c11.188,0,20.287,9.1,20.287,20.287
			c0,11.193-9.1,20.294-20.287,20.294c-11.193,0-20.294-9.101-20.294-20.294C381.079,315.331,390.18,306.231,401.373,306.231z
			 M331.048,208.874c0.104-0.257,0.422-0.612,0.648-0.618c2.754-0.043,5.515-0.024,8.274-0.024c0.606,0,0.618,0.404,0.618,0.838
			c0,2.13,0,4.26,0,6.389h-0.012c0,2.05,0.061,4.101-0.019,6.145c-0.08,2.038-0.888,3.715-2.846,4.615
			c-2.748,1.249-6.065-0.471-6.536-3.452c-0.208-1.31-0.196-2.662-0.208-3.997c-0.024-2.95-0.013-5.894-0.007-8.843
			C330.956,209.571,330.919,209.186,331.048,208.874z M303.324,208.133c2.424-0.025,4.419,1.824,4.425,4.112
			c0.006,2.332-1.897,4.137-4.363,4.156c-2.399,0.012-4.333-1.812-4.352-4.082C299.021,210.073,300.98,208.158,303.324,208.133z
			 M307.106,244.467c0.006,0.734-0.202,1.016-0.973,0.998c-1.8-0.049-3.605-0.037-5.41,0c-0.686,0.012-0.985-0.177-0.979-0.918
			c0.019-7.515,0.012-15.031,0-22.54c0-0.637,0.227-0.875,0.863-0.869c1.885,0.024,3.77,0.03,5.654,0
			c0.661-0.012,0.845,0.257,0.845,0.875c-0.019,3.77-0.006,7.54-0.006,11.31C307.088,237.038,307.076,240.752,307.106,244.467z
			 M287.92,208.121c2.344,0.019,4.351,1.94,4.351,4.149c0,2.277-2.007,4.144-4.437,4.125c-2.448-0.019-4.345-1.867-4.309-4.21
			C283.562,209.938,285.545,208.103,287.92,208.121z M291.598,222.081c-0.024,7.485-0.018,14.963,0,22.448
			c0,0.734-0.263,0.942-0.96,0.93c-1.83-0.037-3.66-0.037-5.49,0c-0.722,0.012-0.949-0.251-0.942-0.955
			c0.024-3.739,0.012-7.485,0.012-11.224c0-3.66,0-7.32,0-10.979c0-1.163,0.006-1.163,1.199-1.163
			c1.72-0.006,3.439,0.018,5.159-0.019C291.292,221.107,291.604,221.297,291.598,222.081z M291.788,275.741
			c9.242,0,16.757,7.521,16.757,16.757c0,9.234-7.516,16.756-16.757,16.756c-9.241,0-16.756-7.521-16.756-16.756
			C275.031,283.262,282.546,275.741,291.788,275.741z M118.133,307.485c-20.208,0-36.641-16.438-36.641-36.64
			c0-20.202,16.438-36.634,36.641-36.634c20.202,0,36.64,16.438,36.64,36.634C154.773,291.053,138.341,307.485,118.133,307.485z
			 M228.127,369.83c0,4.125-3.354,7.479-7.479,7.479h-22.571v22.57c0,4.125-3.36,7.479-7.485,7.479h-15.024
			c-4.125,0-7.479-3.354-7.479-7.479v-22.576H145.52c-4.125,0-7.479-3.354-7.479-7.479v-15.024c0-4.125,3.354-7.479,7.479-7.479
			h22.571v-22.57c0-4.125,3.354-7.479,7.479-7.479h15.024c4.125,0,7.485,3.354,7.485,7.479v22.57h22.571
			c4.125,0,7.479,3.354,7.479,7.479V369.83z M227.968,292.498c0-8.269,6.726-14.988,14.988-14.988s14.994,6.726,14.994,14.988
			c0,8.262-6.732,14.987-14.994,14.987S227.968,300.765,227.968,292.498z M259.737,426.929c0,1.163-0.943,2.1-2.099,2.1h-5.606
			c-1.157,0-2.099-0.943-2.099-2.1v-5.6c0-1.163,0.942-2.1,2.099-2.1h5.606c1.156,0,2.099,0.942,2.099,2.1V426.929z M269.26,244.247
			c-2.344,2.271-6.267,1.928-7.968-0.863c-0.74-1.212-1.224-2.619-1.616-4.002c-1.628-5.759-3.182-11.536-4.761-17.301
			c-0.11-0.404-0.257-0.795-0.392-1.193c-0.092-0.006-0.184-0.012-0.275-0.024c-0.123,0.293-0.275,0.581-0.361,0.887
			c-1.732,6.267-3.439,12.54-5.189,18.801c-0.257,0.912-0.618,1.83-1.114,2.625c-2.026,3.244-6.402,3.458-8.697,0.385
			c-0.686-0.918-1.187-2.044-1.505-3.151c-2.748-9.639-5.441-19.303-8.14-28.954c-0.349-1.254-0.331-1.261,1.01-1.261
			c1.83,0,3.666,0.019,5.49-0.018c0.667-0.012,0.967,0.227,1.132,0.881c1.989,7.895,4.002,15.783,6.01,23.672
			c0.104,0.41,0.239,0.814,0.361,1.224c0.092,0.019,0.184,0.037,0.275,0.049c0.128-0.281,0.288-0.557,0.367-0.851
			c1.854-6.995,3.697-13.997,5.551-20.998c0.447-1.702,1.212-3.244,2.987-3.85c2.687-0.912,5.453-0.202,6.457,2.742
			c0.899,2.632,1.555,5.349,2.264,8.042c1.249,4.7,2.455,9.412,3.69,14.112c0.074,0.275,0.214,0.526,0.533,0.802
			c0.128-0.306,0.3-0.594,0.379-0.912c2.02-7.913,4.033-15.833,6.041-23.752c0.288-1.15,0.281-1.15,1.475-1.15
			c1.885,0,3.77,0.012,5.655-0.012c0.661-0.006,0.875,0.171,0.673,0.869c-1.15,4.076-2.252,8.164-3.396,12.24
			c-1.604,5.704-3.225,11.408-4.841,17.112C270.949,241.854,270.361,243.182,269.26,244.247z M283.905,426.929
			c0,1.163-0.936,2.1-2.099,2.1H276.2c-1.157,0-2.099-0.943-2.099-2.1v-5.6c0-1.163,0.942-2.1,2.099-2.1h5.605
			c1.163,0,2.099,0.942,2.099,2.1V426.929z M275.031,362.314c0-9.241,7.521-16.756,16.756-16.756
			c9.236,0,16.757,7.521,16.757,16.756c0,9.235-7.516,16.763-16.757,16.763C282.546,379.077,275.031,371.555,275.031,362.314z
			 M309.475,426.929c0,1.163-0.942,2.1-2.099,2.1h-5.606c-1.162,0-2.099-0.943-2.099-2.1v-5.6c0-1.163,0.937-2.1,2.099-2.1h5.606
			c1.156,0,2.099,0.942,2.099,2.1V426.929z M317.125,230.575c-0.086-1.389-0.043-2.779-0.049-4.174
			c-0.019-4.425-0.007-8.85-0.056-13.274c-0.03-3.005,1.72-4.859,4.707-4.89c1.064-0.012,2.136,0.037,3.194-0.019
			c0.802-0.037,1.034,0.288,1.034,1.053c-0.024,4.21-0.03,8.415,0,12.625c0.012,2.179,0.594,4.205,1.897,5.992
			c1.462,2.007,3.537,2.956,5.899,3.335c2.692,0.435,5.324,0.153,7.687-1.273c2.693-1.628,3.966-4.223,4.076-7.271
			c0.146-4.37,0.086-8.739,0.11-13.115c0.006-1.334,0.006-1.353,1.364-1.334c1.365,0.024,2.742-0.031,4.082,0.171
			c2.038,0.312,3.428,1.964,3.439,4.002c0.031,5.93,0.056,11.861-0.006,17.791c-0.037,3.427-2.454,5.814-5.985,5.887
			c-4.26,0.086-8.525,0.019-12.791,0.019c0,0.012,0,0.024,0,0.031c-3.745,0-7.49,0.012-11.23-0.013
			c-0.924-0.006-1.872-0.03-2.766-0.214C318.973,235.343,317.296,233.39,317.125,230.575z M333.643,426.929
			c0,1.163-0.942,2.1-2.099,2.1h-5.606c-1.156,0-2.099-0.943-2.099-2.1v-5.6c0-1.163,0.942-2.1,2.099-2.1h5.606
			c1.156,0,2.099,0.942,2.099,2.1V426.929z M325.619,292.498c0-8.269,6.732-14.988,14.994-14.988s14.988,6.726,14.988,14.988
			c0,8.262-6.727,14.987-14.988,14.987S325.619,300.765,325.619,292.498z M364.034,384.157c-11.187,0-20.287-9.101-20.287-20.288
			c0-11.193,9.101-20.294,20.287-20.294c11.194,0,20.295,9.101,20.295,20.294C384.329,375.05,375.229,384.157,364.034,384.157z
			 M401.373,421.489c-11.193,0-20.294-9.101-20.294-20.288c0-11.193,9.101-20.294,20.294-20.294
			c11.188,0,20.287,9.101,20.287,20.294C421.667,412.388,412.561,421.489,401.373,421.489z M438.711,384.157
			c-11.188,0-20.288-9.101-20.288-20.288c0-11.193,9.101-20.294,20.288-20.294s20.288,9.101,20.288,20.294
			C458.999,375.05,449.898,384.157,438.711,384.157z M465.884,307.485c-20.208,0-36.641-16.438-36.641-36.64
			c0-20.202,16.438-36.634,36.641-36.634s36.641,16.438,36.641,36.634C502.53,291.053,486.092,307.485,465.884,307.485z"/>
		<path d="M465.884,240.331c-16.83,0-30.521,13.69-30.521,30.514c0,16.83,13.69,30.52,30.521,30.52s30.521-13.69,30.521-30.52
			C496.41,254.021,482.714,240.331,465.884,240.331z"/>
		<circle cx="438.711" cy="363.863" r="14.174"/>
		<circle cx="364.034" cy="363.863" r="14.174"/>
		<path d="M401.373,387.021c-7.815,0-14.174,6.358-14.174,14.174c0,7.809,6.358,14.168,14.174,14.168
			c7.809,0,14.168-6.359,14.168-14.168C415.547,393.379,409.188,387.021,401.373,387.021z"/>
		<path d="M118.133,240.331c-16.83,0-30.521,13.69-30.521,30.514c0,16.83,13.69,30.52,30.521,30.52c16.83,0,30.52-13.69,30.52-30.52
			C148.653,254.021,134.962,240.331,118.133,240.331z"/>
		<circle cx="401.373" cy="326.524" r="14.174"/>
		<circle cx="291.598" cy="125.115" r="18.751"/>
		<path d="M329.261,117.062c0,6.756,5.483,12.24,12.24,12.24c6.756,0,12.24-5.483,12.24-12.24c0-29.346-27.877-53.213-62.137-53.213
			c-34.26,0-62.136,23.868-62.136,53.213c0,6.756,5.483,12.24,12.24,12.24c6.757,0,12.24-5.483,12.24-12.24
			c0-15.845,16.897-28.733,37.656-28.733C312.363,88.328,329.261,101.217,329.261,117.062z"/>
		<path d="M383.312,123.53c6.757,0,12.24-5.483,12.24-12.24c0-48.274-46.628-87.546-103.949-87.546
			c-57.32,0-103.948,39.272-103.948,87.546c0,6.757,5.483,12.24,12.24,12.24c6.756,0,12.24-5.483,12.24-12.24
			c0-34.774,35.649-63.066,79.468-63.066c43.82,0,79.468,28.292,79.468,63.066C371.072,118.047,376.557,123.53,383.312,123.53z"/>
	</g>
</g>
<g>
</g>
<g>
</g>
<g>
</g>
<g>
</g>
<g>
</g>
<g>
</g>
<g>
</g>
<g>
</g>
<g>
</g>
<g>
</g>
<g>
</g>
<g>
</g>
<g>
</g>
<g>
</g>
<g>
</g>
</svg>
