<?xml version="1.0" encoding="iso-8859-1"?>
<!-- Generator: Adobe Illustrator 16.0.0, SVG Export Plug-In . SVG Version: 6.00 Build 0)  -->
<!DOCTYPE svg PUBLIC "-//W3C//DTD SVG 1.1//EN" "http://www.w3.org/Graphics/SVG/1.1/DTD/svg11.dtd">
<svg version="1.1" id="Capa_1" xmlns="http://www.w3.org/2000/svg" xmlns:xlink="http://www.w3.org/1999/xlink" x="0px" y="0px"
	 width="559.383px" height="559.383px" viewBox="0 0 559.383 559.383" style="enable-background:new 0 0 559.383 559.383;"
	 xml:space="preserve">
<g>
	<path d="M468.756,139.91c0.303,0.298,0.464,0.69,0.464,1.113s-0.161,0.815-0.458,1.113L456.6,154.297
		c-0.595,0.596-1.619,0.596-2.221,0l-17.453-17.453l-17.453,17.453c-0.596,0.596-1.62,0.596-2.221,0l-12.162-12.161
		c-0.297-0.298-0.458-0.69-0.458-1.113s0.161-0.815,0.458-1.113l17.454-17.453l-17.454-17.454c-0.613-0.607-0.613-1.607,0-2.22
		l12.156-12.162c0.605-0.596,1.637-0.589,2.227,0l17.453,17.454l17.453-17.454c0.596-0.596,1.626-0.596,2.221,0l12.156,12.162
		c0.612,0.606,0.612,1.606,0,2.22l-17.454,17.454L468.756,139.91z M461.833,28.183c-2.644,0-5.131,1.029-7,2.898
		s-2.905,4.352-2.905,7.007c0,2.643,1.03,5.125,2.898,7c3.738,3.744,10.27,3.744,14.008,0c1.869-1.869,2.897-4.352,2.897-7
		c0-2.649-1.028-5.132-2.897-7.007S464.476,28.183,461.833,28.183z M322.013,291.755c-2.648,0-5.131,1.029-7.006,2.897
		c-1.869,1.869-2.899,4.353-2.899,7.002c0,2.647,1.03,5.131,2.899,7.006c3.738,3.738,10.263,3.745,14.007,0
		c3.857-3.857,3.857-10.145,0-14.007C327.145,292.784,324.656,291.755,322.013,291.755z M168.707,376.064
		c-3.899,0-7.572,1.523-10.328,4.28c-5.697,5.696-5.697,14.971,0,20.662c5.518,5.512,15.144,5.512,20.662,0
		c5.695-5.691,5.695-14.966,0-20.662C176.277,377.588,172.61,376.064,168.707,376.064z M258.794,228.542
		c-2.644,0-5.131,1.029-7,2.898s-2.899,4.352-2.899,7.001c0,2.648,1.03,5.131,2.899,7.006c3.744,3.745,10.269,3.745,14.007,0
		c1.869-1.869,2.898-4.352,2.898-7.006c0-2.644-1.029-5.126-2.898-7.001C263.926,229.566,261.444,228.542,258.794,228.542z
		 M367.094,170.537c-5.852,0-11.358,2.28-15.495,6.418c-4.138,4.137-6.417,9.637-6.417,15.495c0,5.857,2.279,11.352,6.417,15.495
		c8.274,8.28,22.704,8.28,30.99,0c4.137-4.138,6.417-9.638,6.417-15.495c0-5.858-2.28-11.353-6.417-15.495
		C378.452,172.812,372.939,170.537,367.094,170.537z M289.869,259.61c-2.645,0-5.133,1.029-7.001,2.898
		c-1.869,1.87-2.898,4.352-2.898,7.007c0,2.644,1.029,5.125,2.898,7.001c3.737,3.744,10.269,3.744,14.007,0
		c1.869-1.869,2.898-4.352,2.898-7.001c0-2.648-1.029-5.131-2.898-7.007C295.005,260.633,292.511,259.61,289.869,259.61z
		 M86.281,451.213l-3.64,3.634l3.634,3.64l3.64-3.634L86.281,451.213z M552.726,119.338L119.338,552.726
		c-8.875,8.876-23.27,8.876-32.145,0L6.657,472.19c-8.875-8.876-8.875-23.27,0-32.146L440.045,6.657
		c8.876-8.876,23.27-8.876,32.146,0l80.535,80.535C561.602,96.069,561.602,110.462,552.726,119.338z M234.311,306.856
		c2.571,2.572,6.561-1.416,3.988-3.987C235.728,300.297,231.74,304.285,234.311,306.856z M77.616,454.866l8.685,8.687l8.686-8.687
		l-8.686-8.685L77.616,454.866z M91.063,490.978c-0.232-0.697-0.804-1.405-1.44-1.78c-1.244-0.731-2.888-0.397-3.703,0.75
		c-0.667,0.94-0.69,2.286-0.054,3.25c0.417,0.625,1.244,1.186,2.006,1.353c1.369,0.298,2.816-0.577,3.221-1.946
		C91.206,492.202,91.188,491.382,91.063,490.978z M57.256,434.509l8.686,8.686l8.686-8.686l-8.686-8.679L57.256,434.509z
		 M66.788,497.626c0.714-0.269,4.279-2.238,14.811-8.19c2.202-1.244,4.042-2.28,4.077-2.298c0.054-0.024-0.327-0.429-1.81-1.911
		l-1.881-1.875l-7.459,4.423c-4.638,2.756-7.436,4.388-7.411,4.321c0.023-0.053,1.137-1.964,2.471-4.238
		c3.958-6.756,4.958-8.506,5.214-9.106c0.417-0.982,0.375-1.982-0.112-2.815c-0.232-0.394-0.965-1.125-1.363-1.357
		c-0.757-0.445-1.697-0.518-2.596-0.195c-0.667,0.237-2.006,1-10.233,5.814l-3.464,2.03l4.417-7.436
		c2.429-4.09,4.417-7.458,4.417-7.494s-0.834-0.888-1.857-1.899l-1.857-1.839l-1.065,1.887c-7.102,12.566-9.066,16.091-9.399,16.854
		c-0.494,1.137-0.459,2.57,0.089,3.536c0.209,0.368,0.971,1.125,1.363,1.356c1.09,0.644,2.482,0.571,3.982-0.209
		c0.696-0.362,3.167-1.75,7.924-4.464c2.166-1.238,3.923-2.209,3.898-2.161c-0.018,0.048-0.869,1.536-1.881,3.311
		c-4.31,7.535-4.929,8.66-5.203,9.459c-0.166,0.487-0.202,0.708-0.202,1.298c0,0.75,0.096,1.153,0.423,1.708
		c0.232,0.398,0.929,1.09,1.327,1.321C64.365,498.02,65.585,498.078,66.788,497.626z M74.83,508.758l5.667-5.673l5.673-5.667
		l-1.768-1.769l-1.769-1.769l-5.667,5.673l-5.673,5.668l1.768,1.768L74.83,508.758z M93.271,504.514l-1.768-1.769l-1.769-1.769
		l-5.667,5.673l-5.673,5.668l1.769,1.769l1.768,1.768l5.673-5.667L93.271,504.514z M98.153,498.066
		c-0.227-0.689-0.798-1.404-1.435-1.772c-0.959-0.565-2.197-0.507-3.102,0.143c-1.185,0.846-1.482,2.613-0.655,3.857
		c0.417,0.625,1.244,1.185,2.006,1.352c1.382,0.304,2.852-0.596,3.227-1.971C98.313,499.252,98.295,498.488,98.153,498.066z
		 M114.267,474.153l-8.686-8.685l-8.686,8.685l8.686,8.681L114.267,474.153z M133.554,493.441l-8.686-8.685l-8.686,8.685
		l8.686,8.687L133.554,493.441z M142.537,416.847c-7.769-7.77-21.312-7.77-29.079,0c-8.013,8.013-8.013,21.056,0,29.08
		c3.881,3.887,9.048,6.022,14.536,6.022c5.488,0,10.655-2.143,14.537-6.022C150.549,437.902,150.549,424.859,142.537,416.847z
		 M183.253,376.13c-7.77-7.77-21.311-7.77-29.079,0c-8.013,8.023-8.013,21.065,0,29.079c3.881,3.888,9.048,6.023,14.537,6.023
		c5.487,0,10.654-2.144,14.536-6.023C191.26,397.201,191.26,384.153,183.253,376.13z M199.231,341.937
		c-2.221-2.226-5.673,1.222-3.445,3.447C198.011,347.609,201.453,344.163,199.231,341.937z M204.083,337.085
		c2.57,2.572,6.561-1.416,3.987-3.988C205.5,330.525,201.511,334.514,204.083,337.085z M208.434,351.14
		c-2.221-2.227-5.673,1.221-3.446,3.447C207.213,356.807,210.655,353.366,208.434,351.14z M217.447,360.146
		c-2.221-2.227-5.673,1.222-3.446,3.446C216.22,365.819,219.668,362.373,217.447,360.146z M217.476,342.098
		c-2.839-2.834-7.231,1.565-4.397,4.399C215.917,349.33,220.316,344.931,217.476,342.098z M218.454,322.715
		c-3.334-3.327-8.494,1.834-5.167,5.167C216.613,331.216,221.788,326.043,218.454,322.715z M226.281,351.312
		c-2.57-2.57-6.561,1.417-3.987,3.988C224.864,357.872,228.852,353.884,226.281,351.312z M227.656,331.918
		c-3.334-3.327-8.501,1.834-5.167,5.167C225.816,340.419,230.99,335.246,227.656,331.918z M229.096,312.07
		c-3.333-3.326-8.501,1.835-5.167,5.167C227.263,320.566,232.43,315.399,229.096,312.07z M236.664,340.931
		c-3.334-3.327-8.501,1.834-5.167,5.167C234.83,349.426,239.997,344.259,236.664,340.931z M238.299,321.274
		c-3.334-3.326-8.501,1.834-5.167,5.167C236.466,329.77,241.633,324.603,238.299,321.274z M247.312,330.281
		c-3.334-3.328-8.501,1.833-5.167,5.167C245.472,338.782,250.645,333.608,247.312,330.281z M247.706,311.869
		c-2.84-2.834-7.232,1.564-4.399,4.398C246.145,319.102,250.544,314.703,247.706,311.869z M243.151,298.023
		c2.222,2.227,5.674-1.221,3.446-3.446C244.373,292.35,240.93,295.797,243.151,298.023z M256.508,321.084
		c-2.571-2.571-6.561,1.417-3.988,3.988C255.092,327.645,259.086,323.655,256.508,321.084z M252.348,307.22
		c2.22,2.228,5.673-1.22,3.446-3.446C253.575,301.553,250.127,304.994,252.348,307.22z M264.807,312.786
		c-2.221-2.228-5.673,1.22-3.447,3.445C263.582,318.459,267.027,315.013,264.807,312.786z M270.009,249.656
		c2.995-2.994,4.644-6.977,4.644-11.215c0-4.232-1.647-8.215-4.644-11.209c-5.988-5.989-16.43-5.989-22.424,0
		c-2.994,2.994-4.644,6.977-4.644,11.209c0,4.238,1.648,8.221,4.644,11.215c2.995,2.994,6.977,4.645,11.209,4.645
		C263.034,254.3,267.015,252.645,270.009,249.656z M305.726,269.515c0-4.238-1.647-8.221-4.643-11.215
		c-5.995-6.001-16.437-6.001-22.424,0c-2.994,2.994-4.644,6.977-4.644,11.215c0,4.232,1.648,8.215,4.644,11.208
		c2.994,2.994,6.977,4.645,11.209,4.645c4.231,0,8.215-1.649,11.209-4.645C304.078,277.73,305.72,273.747,305.726,269.515z
		 M333.222,290.445c-6-5.994-16.436-5.988-22.424,0c-2.994,2.994-4.645,6.978-4.645,11.209c0,4.238,1.649,8.222,4.645,11.216
		c3,2.993,6.981,4.644,11.215,4.644s8.215-1.648,11.209-4.644C339.408,306.685,339.408,296.624,333.222,290.445z M394.953,192.45
		c0-7.441-2.894-14.442-8.161-19.704c-5.269-5.263-12.264-8.161-19.703-8.161c-7.441,0-14.441,2.898-19.704,8.161
		c-5.263,5.262-8.161,12.263-8.161,19.704c0,7.44,2.898,14.441,8.161,19.703c5.263,5.263,12.263,8.161,19.704,8.161
		c7.439,0,14.44-2.898,19.703-8.161C392.054,206.892,394.953,199.891,394.953,192.45z M475.173,141.018
		c0-2.006-0.78-3.899-2.203-5.322l-13.245-13.244l13.239-13.245c2.935-2.929,2.935-7.703,0-10.638l-12.161-12.162
		c-2.84-2.839-7.793-2.839-10.638,0L436.92,99.652l-13.245-13.245c-2.84-2.839-7.792-2.839-10.638,0l-12.161,12.162
		c-2.936,2.935-2.936,7.709,0,10.638l13.245,13.245l-13.245,13.244c-1.423,1.429-2.203,3.316-2.203,5.322
		c0,2.012,0.78,3.905,2.203,5.322l12.155,12.161c2.846,2.852,7.805,2.852,10.644,0l13.245-13.245l13.239,13.245
		c1.423,1.423,3.31,2.202,5.32,2.202s3.905-0.779,5.322-2.202l12.155-12.161C474.381,144.923,475.168,143.029,475.173,141.018z
		 M477.69,38.088c0-4.238-1.647-8.221-4.644-11.215c-5.994-6.001-16.437-6.001-22.424,0c-2.994,2.994-4.644,6.977-4.644,11.215
		c0,4.232,1.648,8.215,4.644,11.209c2.995,2.994,6.977,4.644,11.209,4.644c4.231,0,8.215-1.649,11.209-4.644
		C476.035,46.302,477.685,42.321,477.69,38.088z M101.936,474.153l3.639,3.636l3.631-3.635l-3.639-3.635L101.936,474.153z
		 M69.586,434.515l-3.638-3.636l-3.632,3.635l3.639,3.635L69.586,434.515z M124.877,497.084l3.639-3.636l-3.636-3.639l-3.638,3.636
		L124.877,497.084z M127.994,416.78c-3.898,0-7.571,1.524-10.328,4.28c-5.696,5.69-5.696,14.965,0,20.662
		c5.519,5.513,15.145,5.513,20.662,0c5.697-5.697,5.697-14.972,0-20.662C135.566,418.299,131.893,416.78,127.994,416.78z"/>
</g>
<g>
</g>
<g>
</g>
<g>
</g>
<g>
</g>
<g>
</g>
<g>
</g>
<g>
</g>
<g>
</g>
<g>
</g>
<g>
</g>
<g>
</g>
<g>
</g>
<g>
</g>
<g>
</g>
<g>
</g>
</svg>
