<?xml version="1.0" encoding="iso-8859-1"?>
<!-- Generator: Adobe Illustrator 16.0.0, SVG Export Plug-In . SVG Version: 6.00 Build 0)  -->
<!DOCTYPE svg PUBLIC "-//W3C//DTD SVG 1.1//EN" "http://www.w3.org/Graphics/SVG/1.1/DTD/svg11.dtd">
<svg version="1.1" id="Capa_1" xmlns="http://www.w3.org/2000/svg" xmlns:xlink="http://www.w3.org/1999/xlink" x="0px" y="0px"
	 width="559.388px" height="559.389px" viewBox="0 0 559.388 559.389" style="enable-background:new 0 0 559.388 559.389;"
	 xml:space="preserve">
<g>
	<path d="M138.336,421.062c5.696,5.696,5.696,14.965,0,20.662c-5.524,5.513-15.138,5.513-20.662,0
		c-5.697-5.697-5.697-14.966,0-20.662c2.762-2.756,6.423-4.28,10.328-4.28C131.901,416.78,135.568,418.299,138.336,421.062z
		 M101.931,474.146l3.64,3.634l3.63-3.636l-3.641-3.633L101.931,474.146z M322.022,291.755c-2.648,0-5.132,1.029-7.007,2.897
		c-3.856,3.857-3.856,10.145,0,14.008c3.744,3.745,10.263,3.751,14.007,0c1.869-1.869,2.899-4.352,2.899-7.007
		c0-2.644-1.03-5.125-2.899-7.001C327.153,292.778,324.666,291.755,322.022,291.755z M69.58,434.516l-3.632-3.633l-3.633,3.633
		l3.633,3.632L69.58,434.516z M258.809,228.542c-2.648,0-5.131,1.029-7.006,2.898c-3.857,3.857-3.857,10.144,0,14.007
		c3.737,3.738,10.256,3.751,14.006,0c1.869-1.869,2.899-4.352,2.899-7.006c0-2.644-1.03-5.126-2.899-7.001
		S261.453,228.542,258.809,228.542z M289.876,259.61c-2.648,0-5.131,1.029-7.006,2.898c-1.876,1.87-2.905,4.358-2.899,7.007
		c0,2.638,1.029,5.125,2.899,7.001c3.743,3.738,10.262,3.75,14.007,0c1.869-1.869,2.897-4.352,2.897-7.001
		c0-2.648-1.028-5.131-2.897-7.007C295.008,260.633,292.526,259.61,289.876,259.61z M124.892,497.089l3.64-3.635l-3.634-3.64
		l-3.64,3.634L124.892,497.089z M367.096,170.537c-5.852,0-11.352,2.28-15.495,6.418c-4.143,4.137-6.417,9.644-6.417,15.501
		c0,5.846,2.28,11.352,6.417,15.495c8.28,8.269,22.704,8.269,30.984,0c4.138-4.138,6.417-9.644,6.417-15.495
		s-2.279-11.358-6.417-15.501C378.45,172.812,372.949,170.537,367.096,170.537z M461.841,28.183c-2.649,0-5.132,1.029-7.007,2.898
		c-3.857,3.857-3.857,10.144,0,14.007c3.738,3.744,10.257,3.744,14.007,0c1.869-1.869,2.899-4.352,2.899-7
		c0-2.649-1.03-5.132-2.899-7.007S464.484,28.183,461.841,28.183z M552.729,119.338L297.174,374.892h-25.406
		c-20.007,0-36.288,16.281-36.288,36.288v25.406L119.341,552.731c-8.882,8.876-23.27,8.876-32.146,0L6.66,472.196
		c-8.876-8.876-8.876-23.27,0-32.146L440.048,6.657c8.881-8.876,23.27-8.876,32.145,0l80.536,80.535
		C561.604,96.069,561.604,110.462,552.729,119.338z M234.32,306.856c2.571,2.572,6.561-1.416,3.988-3.987
		C235.736,300.297,231.743,304.285,234.32,306.856z M77.612,454.866l8.691,8.687l8.69-8.687l-8.69-8.679L77.612,454.866z
		 M91.065,490.978c-0.226-0.697-0.804-1.405-1.44-1.78c-1.244-0.731-2.887-0.397-3.702,0.75c-0.667,0.94-0.691,2.286-0.054,3.25
		c0.416,0.625,1.244,1.186,2.006,1.353c1.369,0.298,2.815-0.577,3.221-1.946C91.214,492.202,91.196,491.388,91.065,490.978z
		 M57.265,434.515l8.679,8.68l8.691-8.68l-8.691-8.691L57.265,434.515z M66.795,497.626c0.715-0.269,4.28-2.238,14.811-8.19
		c2.203-1.244,4.042-2.28,4.078-2.298c0.054-0.024-0.328-0.429-1.81-1.911l-1.882-1.875l-7.452,4.423
		c-4.638,2.756-7.436,4.388-7.411,4.321c0.023-0.053,1.137-1.964,2.47-4.238c3.959-6.756,4.959-8.506,5.215-9.106
		c0.417-0.982,0.375-1.982-0.113-2.815c-0.232-0.394-0.964-1.125-1.363-1.357c-0.762-0.445-1.702-0.518-2.601-0.195
		c-0.667,0.237-2.007,1-10.233,5.814l-3.465,2.03l4.417-7.436c2.429-4.09,4.417-7.458,4.417-7.494s-0.833-0.888-1.857-1.899
		l-1.856-1.839l-1.065,1.887c-7.103,12.566-9.066,16.091-9.4,16.854c-0.493,1.137-0.458,2.57,0.09,3.536
		c0.208,0.368,0.97,1.125,1.363,1.356c1.089,0.644,2.482,0.571,3.982-0.209c0.696-0.362,3.161-1.75,7.923-4.464
		c2.167-1.238,3.923-2.209,3.899-2.161c-0.018,0.048-0.869,1.536-1.881,3.311c-4.311,7.535-4.93,8.66-5.203,9.459
		c-0.167,0.487-0.202,0.708-0.202,1.298c0,0.756,0.101,1.153,0.422,1.708c0.232,0.398,0.929,1.09,1.328,1.321
		C64.374,498.02,65.593,498.085,66.795,497.626z M74.837,508.758l5.668-5.667l5.673-5.673l-1.769-1.769l-1.768-1.769l-5.667,5.667
		l-5.673,5.674l1.768,1.768L74.837,508.758z M93.28,504.525l-1.769-1.768l-1.762-1.77l-5.673,5.668l-5.667,5.674l1.762,1.762
		l1.762,1.768l5.674-5.673L93.28,504.525z M98.161,498.072c-0.226-0.689-0.804-1.404-1.435-1.773
		c-0.958-0.565-2.196-0.506-3.102,0.143c-1.185,0.846-1.481,2.613-0.654,3.857c0.417,0.625,1.244,1.185,2.006,1.352
		c1.381,0.305,2.852-0.595,3.227-1.971C98.316,499.252,98.297,498.488,98.161,498.072z M114.269,474.153l-8.679-8.69l-8.686,8.69
		l8.686,8.691L114.269,474.153z M133.568,493.441l-8.69-8.679l-8.691,8.679l8.691,8.687L133.568,493.441z M142.545,416.847
		c-7.769-7.774-21.317-7.763-29.08,0c-8.019,8.019-8.019,21.062,0,29.08c3.882,3.887,9.043,6.022,14.537,6.022
		c5.482,0,10.655-2.143,14.536-6.022C150.557,437.907,150.557,424.864,142.545,416.847z M189.288,390.679
		c0-5.489-2.149-10.656-6.03-14.537c-7.763-7.763-21.306-7.773-29.073,0c-3.888,3.881-6.03,9.042-6.03,14.537
		c0,5.481,2.148,10.644,6.03,14.53c3.881,3.888,9.042,6.029,14.53,6.029s10.655-2.148,14.537-6.029
		C187.137,401.327,189.282,396.167,189.288,390.679z M199.241,341.937c-2.222-2.226-5.674,1.222-3.447,3.447
		C198.019,347.609,201.459,344.163,199.241,341.937z M204.091,337.085c2.571,2.572,6.56-1.416,3.988-3.988
		C205.501,330.525,201.513,334.514,204.091,337.085z M208.443,351.14c-2.221-2.227-5.674,1.221-3.446,3.447
		C207.222,356.812,210.664,353.366,208.443,351.14z M217.45,360.152c-2.221-2.227-5.674,1.222-3.446,3.446
		C216.229,365.819,219.675,362.373,217.45,360.152z M217.485,342.098c-2.84-2.834-7.231,1.565-4.398,4.399
		C215.919,349.33,220.326,344.931,217.485,342.098z M218.457,322.721c-3.334-3.327-8.495,1.834-5.168,5.168
		C216.623,331.216,221.79,326.049,218.457,322.721z M226.29,351.312c-2.571-2.57-6.561,1.417-3.988,3.988
		S228.861,353.884,226.29,351.312z M227.659,331.924c-3.333-3.327-8.494,1.834-5.167,5.167
		C225.826,340.419,230.993,335.252,227.659,331.924z M229.105,312.07c-3.334-3.326-8.501,1.835-5.167,5.167
		C227.271,320.566,232.438,315.399,229.105,312.07z M236.67,340.931c-3.333-3.327-8.494,1.834-5.167,5.167
		C234.833,349.432,240.004,344.259,236.67,340.931z M238.308,321.274c-3.334-3.326-8.501,1.834-5.167,5.167
		C236.474,329.77,241.641,324.603,238.308,321.274z M247.314,330.281c-3.333-3.328-8.494,1.833-5.167,5.167
		C245.481,338.782,250.648,333.608,247.314,330.281z M247.713,311.869c-2.84-2.834-7.232,1.564-4.399,4.398
		C246.155,319.102,250.552,314.703,247.713,311.869z M243.153,298.023c2.222,2.227,5.675-1.221,3.447-3.446
		C244.379,292.35,240.927,295.803,243.153,298.023z M256.517,321.084c-2.571-2.571-6.56,1.417-3.988,3.988
		C255.1,327.645,259.088,323.656,256.517,321.084z M252.356,307.226c2.222,2.228,5.674-1.22,3.447-3.446
		C253.583,301.553,250.13,305.006,252.356,307.226z M264.809,312.792c-2.22-2.228-5.673,1.22-3.445,3.446
		C263.589,318.459,267.03,315.019,264.809,312.792z M274.657,238.436c0-4.232-1.649-8.215-4.645-11.21
		c-5.994-5.994-16.447-5.988-22.424,0c-6.18,6.18-6.18,16.246,0,22.425c2.994,2.994,6.977,4.643,11.215,4.643
		c4.232,0,8.215-1.648,11.209-4.643C273.006,246.662,274.663,242.68,274.657,238.436z M305.729,269.515
		c0-4.238-1.648-8.221-4.644-11.215c-5.994-6.001-16.441-5.988-22.424,0c-3,2.994-4.649,6.977-4.645,11.215
		c0,4.232,1.649,8.215,4.645,11.208c2.995,2.994,6.977,4.645,11.215,4.645c4.231,0,8.215-1.649,11.209-4.645
		C304.08,277.729,305.729,273.747,305.729,269.515z M337.875,301.653c0-4.231-1.649-8.215-4.645-11.209
		c-5.994-5.994-16.44-5.988-22.424,0c-6.18,6.18-6.18,16.245,0,22.425c2.994,3,6.978,4.648,11.215,4.648
		c4.232,0,8.215-1.648,11.209-4.648C336.219,309.875,337.875,305.893,337.875,301.653z M394.961,192.456
		c0-7.447-2.899-14.448-8.161-19.71c-5.263-5.263-12.263-8.161-19.704-8.161c-7.439,0-14.441,2.898-19.703,8.161
		c-5.263,5.262-8.162,12.263-8.162,19.71c0,7.44,2.899,14.441,8.162,19.703c5.262,5.263,12.264,8.155,19.703,8.155
		c7.441,0,14.441-2.893,19.704-8.155C392.056,206.898,394.961,199.897,394.961,192.456z M459.716,122.475l13.239-13.245
		c1.428-1.429,2.214-3.315,2.214-5.321c0-2.013-0.786-3.905-2.208-5.322l-12.156-12.155c-2.839-2.857-7.792-2.857-10.644-0.006
		L436.917,99.67l-13.238-13.238c-2.846-2.857-7.793-2.857-10.645-0.006l-12.161,12.161c-2.93,2.929-2.93,7.703,0,10.632
		l13.245,13.251l-13.245,13.245c-2.93,2.929-2.93,7.696,0,10.638l12.168,12.167c1.423,1.411,3.31,2.197,5.314,2.197
		c2.013,0,3.905-0.786,5.322-2.203l13.244-13.251l13.245,13.245c2.846,2.852,7.799,2.846,10.638,0l12.162-12.155
		c1.423-1.429,2.208-3.316,2.202-5.328c0-2.012-0.786-3.905-2.202-5.315L459.716,122.475z M477.694,38.088
		c0-4.238-1.648-8.221-4.644-11.215c-5.994-5.995-16.441-5.989-22.424,0c-6.181,6.179-6.181,16.245,0,22.424
		c2.994,2.994,6.977,4.644,11.215,4.644c4.232,0,8.215-1.649,11.209-4.644C476.044,46.302,477.694,42.321,477.694,38.088z
		 M456.597,90.633c-0.596-0.595-1.626-0.595-2.221,0l-17.454,17.454l-17.453-17.454c-0.298-0.298-0.689-0.458-1.113-0.458
		c-0.423,0-0.814,0.16-1.112,0.458l-12.161,12.162c-0.613,0.613-0.613,1.607,0,2.214l17.453,17.46l-17.453,17.453
		c-0.613,0.613-0.613,1.613,0.006,2.227l12.155,12.156c0.596,0.595,1.625,0.595,2.221,0l17.453-17.46l17.454,17.453
		c0.595,0.596,1.631,0.59,2.214,0.007l12.168-12.162c0.298-0.298,0.465-0.69,0.458-1.119c0-0.411-0.16-0.81-0.452-1.102
		L451.3,122.463l17.453-17.46c0.298-0.298,0.465-0.69,0.465-1.107c0-0.416-0.167-0.815-0.459-1.106L456.597,90.633z M168.713,376.07
		c-3.899,0-7.565,1.519-10.322,4.28c-2.756,2.762-4.286,6.423-4.286,10.328c0,3.897,1.524,7.564,4.286,10.322
		c5.53,5.528,15.14,5.518,20.656,0c2.763-2.764,4.286-6.425,4.286-10.322c0-3.905-1.523-7.566-4.286-10.328
		C176.287,377.588,172.62,376.07,168.713,376.07z M89.939,454.859l-3.633-3.633l-3.633,3.633l3.633,3.633L89.939,454.859z
		 M539.65,430.818v9.482c0,8.864-7.102,16.037-15.917,16.222v3.423c0,13.465-10.918,24.383-24.383,24.383H271.768
		c-13.465,0-24.383-10.918-24.383-24.383v-35.265V411.18c0-13.465,10.918-24.383,24.383-24.383h13.501H499.35
		c13.465,0,24.383,10.918,24.383,24.383v3.423C532.554,414.786,539.65,421.96,539.65,430.818z M331.939,416.341
		c0-7.834-6.356-14.191-14.196-14.191h-38.443c-7.834,0-14.191,6.353-14.191,14.191v38.442c0,7.834,6.353,14.191,14.191,14.191
		h38.443c7.84,0,14.196-6.352,14.196-14.191V416.341z M417.958,416.341c0-7.834-6.353-14.191-14.191-14.191h-38.442
		c-7.841,0-14.197,6.353-14.197,14.191v38.442c0,7.834,6.356,14.191,14.197,14.191h38.442c7.84,0,14.191-6.352,14.191-14.191
		V416.341z"/>
</g>
<g>
</g>
<g>
</g>
<g>
</g>
<g>
</g>
<g>
</g>
<g>
</g>
<g>
</g>
<g>
</g>
<g>
</g>
<g>
</g>
<g>
</g>
<g>
</g>
<g>
</g>
<g>
</g>
<g>
</g>
</svg>
