<?xml version="1.0" encoding="iso-8859-1"?>
<!-- Generator: Adobe Illustrator 16.0.0, SVG Export Plug-In . SVG Version: 6.00 Build 0)  -->
<!DOCTYPE svg PUBLIC "-//W3C//DTD SVG 1.1//EN" "http://www.w3.org/Graphics/SVG/1.1/DTD/svg11.dtd">
<svg version="1.1" id="Capa_1" xmlns="http://www.w3.org/2000/svg" xmlns:xlink="http://www.w3.org/1999/xlink" x="0px" y="0px"
	 width="580.047px" height="580.047px" viewBox="0 0 580.047 580.047" style="enable-background:new 0 0 580.047 580.047;"
	 xml:space="preserve">
<g>
	<g>
		<path d="M365.295,320.688c-23.685,0-42.963,19.267-42.963,42.957s19.272,42.962,42.963,42.962s42.962-19.271,42.962-42.962
			S388.979,320.688,365.295,320.688z M365.295,396.888c-18.33,0-33.244-14.92-33.244-33.25c0-18.329,14.914-33.243,33.244-33.243
			c18.329,0,33.243,14.914,33.243,33.243C398.538,381.968,383.624,396.888,365.295,396.888z"/>
		<path d="M365.295,336.515c-14.951,0-27.124,12.166-27.124,27.123c0,14.958,12.166,27.131,27.124,27.131
			c14.957,0,27.123-12.167,27.123-27.131C392.412,348.688,380.246,336.515,365.295,336.515z"/>
		<path d="M305.049,192.976c-3.182,1.512-8.127,3.941-8.616,6.634c0,0,13.482,13.134,12.895,25.245
			c2.754-3.874,4.412-8.581,4.412-13.685C313.739,203.827,310.312,197.333,305.049,192.976z"/>
		<circle cx="438.043" cy="315.167" r="18.77"/>
		<circle cx="479.103" cy="275.07" r="18.77"/>
		<path d="M289.792,205.602c-12.001,9.266-15.967,17.062-17.283,21.444c4.339,4.786,10.545,7.852,17.503,7.852
			c6.769,0,12.846-2.883,17.173-7.448C306.004,223.153,302.179,215.167,289.792,205.602z"/>
		<path d="M505.761,214.702c-16.255-10.392-4.528-16.328-21.353-29.192s-85.104-34.639-96.983-24.743s-25.233,11.873-25.233,11.873
			h-72.105h-0.128h-72.118c0,0-13.36-1.977-25.233-11.873c-11.873-9.896-80.16,11.873-96.983,24.743
			c-16.824,12.871-5.098,18.801-21.353,29.192c-16.254,10.392-58.801,153.887-58.801,153.887s-55.423,159.824,43.544,179.12
			c0,0,24.241-15.336,45.025-40.079c20.783-24.743,61.353-59.872,83.128-60.368c21.297-0.483,99.389-0.019,102.792,0l0,0
			c0,0,0.024,0,0.067,0c0.043,0,0.067,0,0.067,0l0,0c3.403-0.019,81.494-0.483,102.792,0c21.769,0.496,62.344,35.625,83.128,60.368
			c20.783,24.736,45.024,40.079,45.024,40.079c98.961-19.296,43.544-179.12,43.544-179.12S522.016,225.094,505.761,214.702z
			 M438.043,212.083c13.728,0,24.89,11.163,24.89,24.89c0,13.727-11.169,24.89-24.89,24.89s-24.89-11.169-24.89-24.89
			C413.153,223.251,424.315,212.083,438.043,212.083z M399.922,250.18c13.727,0,24.89,11.169,24.89,24.89
			c0,13.722-11.169,24.891-24.89,24.891c-13.722,0-24.891-11.169-24.891-24.891C375.031,261.349,386.2,250.18,399.922,250.18z
			 M332.143,259.146c8.782,0,15.931,7.148,15.931,15.93c0,8.782-7.148,15.924-15.931,15.924s-15.931-7.143-15.931-15.924
			C316.212,266.293,323.36,259.146,332.143,259.146z M93.059,274.078c0-27.062,22.014-49.076,49.076-49.076
			s49.083,22.014,49.083,49.076s-22.02,49.082-49.083,49.082S93.059,301.141,93.059,274.078z M256.401,380.554
			c0,1.689-1.371,3.061-3.06,3.061h-22.454v22.454c0,1.688-1.371,3.06-3.06,3.06h-24.235c-1.689,0-3.06-1.371-3.06-3.06v-22.454
			h-22.454c-1.689,0-3.06-1.371-3.06-3.061v-24.235c0-1.688,1.371-3.06,3.06-3.06h22.454v-22.454c0-1.689,1.371-3.061,3.06-3.061
			h24.235c1.689,0,3.06,1.371,3.06,3.061v22.454h22.454c1.689,0,3.06,1.371,3.06,3.06V380.554z M249.015,290.994
			c-8.782,0-15.924-7.143-15.924-15.925s7.142-15.93,15.924-15.93s15.93,7.148,15.93,15.93S257.791,290.994,249.015,290.994z
			 M290.019,241.018c-16.451,0-29.841-13.39-29.841-29.841s13.391-29.841,29.841-29.841c16.45,0,29.841,13.391,29.841,29.841
			S306.469,241.018,290.019,241.018z M365.295,412.721c-27.063,0-49.083-22.02-49.083-49.083c0-27.062,22.02-49.076,49.083-49.076
			c27.062,0,49.082,22.014,49.082,49.076C414.377,390.701,392.357,412.721,365.295,412.721z M438.043,340.058
			c-13.728,0-24.89-11.169-24.89-24.89c0-13.722,11.162-24.891,24.89-24.891s24.89,11.169,24.89,24.891
			C462.933,328.889,451.771,340.058,438.043,340.058z M479.103,299.96c-13.728,0-24.891-11.169-24.891-24.891
			c0-13.721,11.169-24.89,24.891-24.89c13.721,0,24.89,11.169,24.89,24.89C503.992,288.791,492.823,299.96,479.103,299.96z"/>
		<path d="M142.135,246.96c-14.951,0-27.124,12.167-27.124,27.124s12.167,27.124,27.124,27.124
			c14.958,0,27.124-12.167,27.124-27.124S157.086,246.96,142.135,246.96z"/>
		<circle cx="332.143" cy="275.07" r="9.804"/>
		<circle cx="399.922" cy="275.07" r="18.77"/>
		<circle cx="438.043" cy="236.973" r="18.77"/>
		<path d="M299.981,189.726c-3.041-1.42-6.395-2.271-9.963-2.271c-3.604,0-6.989,0.869-10.049,2.313
			c5.392,0.416,8.953,2.705,9.822,3.329C290.68,192.462,294.37,190.062,299.981,189.726z"/>
		<path d="M142.135,231.128c-23.684,0-42.956,19.266-42.956,42.956s19.266,42.963,42.956,42.963s42.962-19.272,42.962-42.963
			S165.819,231.128,142.135,231.128z M142.135,307.322c-18.329,0-33.244-14.915-33.244-33.244c0-18.33,14.915-33.244,33.244-33.244
			c18.33,0,33.244,14.915,33.244,33.244C175.379,292.407,160.464,307.322,142.135,307.322z"/>
		<path d="M274.823,193.11c-5.166,4.352-8.525,10.79-8.525,18.066c0,4.829,1.463,9.309,3.954,13.06
			c-0.11-11.934,12.907-24.621,12.907-24.621C282.681,197.003,278.011,194.634,274.823,193.11z"/>
		<circle cx="249.015" cy="275.07" r="9.804"/>
		<path d="M224.767,356.318v-22.454h-18.115v22.454c0,1.689-1.371,3.061-3.06,3.061h-22.454v18.115h22.454
			c1.689,0,3.06,1.37,3.06,3.06v22.454h18.115v-22.454c0-1.689,1.371-3.06,3.06-3.06h22.454v-18.115h-22.454
			C226.138,359.379,224.767,358.008,224.767,356.318z"/>
		<circle cx="289.792" cy="133.716" r="18.752"/>
		<path d="M327.454,125.656c0,6.756,5.484,12.24,12.24,12.24c6.757,0,12.24-5.484,12.24-12.24c0-29.345-27.877-53.213-62.136-53.213
			c-34.26,0-62.143,23.868-62.143,53.213c0,6.756,5.483,12.24,12.24,12.24c6.757,0,12.24-5.484,12.24-12.24
			c0-15.845,16.897-28.733,37.663-28.733C310.558,96.922,327.454,109.811,327.454,125.656z"/>
		<path d="M381.507,132.125c6.756,0,12.239-5.483,12.239-12.24c0-48.274-46.628-87.547-103.948-87.547
			S185.844,71.61,185.844,119.885c0,6.756,5.484,12.24,12.24,12.24s12.24-5.483,12.24-12.24c0-34.774,35.649-63.067,79.475-63.067
			c43.819,0,79.468,28.293,79.468,63.067C369.267,126.641,374.75,132.125,381.507,132.125z"/>
	</g>
</g>
<g>
</g>
<g>
</g>
<g>
</g>
<g>
</g>
<g>
</g>
<g>
</g>
<g>
</g>
<g>
</g>
<g>
</g>
<g>
</g>
<g>
</g>
<g>
</g>
<g>
</g>
<g>
</g>
<g>
</g>
</svg>
