<?xml version="1.0" encoding="iso-8859-1"?>
<!-- Generator: Adobe Illustrator 16.0.0, SVG Export Plug-In . SVG Version: 6.00 Build 0)  -->
<!DOCTYPE svg PUBLIC "-//W3C//DTD SVG 1.1//EN" "http://www.w3.org/Graphics/SVG/1.1/DTD/svg11.dtd">
<svg version="1.1" id="Capa_1" xmlns="http://www.w3.org/2000/svg" xmlns:xlink="http://www.w3.org/1999/xlink" x="0px" y="0px"
	 width="563.041px" height="563.041px" viewBox="0 0 563.041 563.041" style="enable-background:new 0 0 563.041 563.041;"
	 xml:space="preserve">
<g>
	<g>
		<path d="M461.938,288.798h15.582c0.611,0,0.893-0.172,0.955-0.258c0.061-0.092,0.127-0.41-0.092-0.984l-8.764-23.587
			l-8.582,23.562c-0.184,0.508-0.164,0.875-0.078,1.004C461.062,288.657,461.398,288.798,461.938,288.798z"/>
		<path d="M470.346,374.214c51.115,0,92.695-41.578,92.695-92.693c0-51.114-41.58-92.693-92.695-92.693
			c-51.113,0-92.693,41.579-92.693,92.693C377.652,332.636,419.238,374.214,470.346,374.214z M419.875,324.618l34.438-88.422
			c1.615-4.155,6.199-7.289,10.66-7.289h9.707c4.449,0,9.045,3.115,10.697,7.24l35.41,88.459c0.943,2.355,0.771,4.768-0.477,6.615
			s-3.422,2.906-5.961,2.906h-10.312c-4.461,0-9.039-3.145-10.637-7.312l-4.535-11.812c-0.68-1.773-3.029-3.385-4.932-3.385h-28.158
			c-1.879,0-4.168,1.611-4.811,3.373l-4.266,11.738c-1.537,4.217-6.078,7.398-10.57,7.398h-9.76c-2.535,0-4.713-1.053-5.975-2.895
			C419.152,329.392,418.957,326.979,419.875,324.618z"/>
		<path d="M264.433,456.296h8.011c10.306,0,14.064-0.189,15.398-0.342c2.98-0.355,5.318-1.359,6.939-2.975
			c1.543-1.537,2.289-3.568,2.289-6.219c0-1.273-0.158-2.41-0.471-3.385c-0.482-1.506-2.688-3.916-4.156-4.547
			c-1.01-0.428-2.221-0.74-3.598-0.906c-1.377-0.152-5.674-0.342-18.158-0.342h-6.249c-1.738,0-3.152,1.414-3.152,3.152v12.41
			C261.281,454.882,262.695,456.296,264.433,456.296z"/>
		<path d="M264.433,502.888h13.862c9.475,0,12.975-0.318,14.24-0.588c2.65-0.482,4.658-1.566,6.236-3.33
			c1.512-1.707,2.254-4.025,2.254-7.074c0-2.613-0.588-4.73-1.787-6.475c-1.201-1.707-2.932-2.938-5.258-3.746
			c-1.812-0.629-6.438-1.383-18.238-1.383h-11.304c-1.738,0-3.152,1.414-3.152,3.152v16.291
			C261.281,501.474,262.695,502.888,264.433,502.888z"/>
		<path d="M281.52,563.04c51.115,0,92.693-41.578,92.693-92.693c0-51.113-41.578-92.693-92.693-92.693
			c-51.114,0-92.693,41.58-92.693,92.693C188.827,521.462,230.412,563.04,281.52,563.04z M233.478,422.856
			c0-5.111,4.162-9.271,9.272-9.271h36.726c8.77,0,15.159,0.361,19.522,1.102c4.584,0.783,8.758,2.436,12.406,4.908
			c3.695,2.539,6.768,5.887,9.154,9.963c2.467,4.205,3.723,8.953,3.723,14.113c0,5.611-1.531,10.826-4.555,15.502
			c-1.756,2.723-3.916,5.092-6.406,7.025c-0.08,0.061-0.148,0.115-0.215,0.172c0.055,0.023,0.109,0.055,0.166,0.086
			c4.203,2.074,7.691,4.895,10.373,8.389c3.922,5.117,5.912,11.195,5.912,18.055c0,5.35-1.256,10.6-3.729,15.605
			c-2.484,5.068-5.953,9.182-10.293,12.223c-4.334,3.041-9.707,4.939-15.961,5.631c-3.861,0.402-12.76,0.654-26.469,0.746h-0.006
			h-30.355c-5.11,0-9.272-4.162-9.272-9.271v-94.977H233.478z"/>
		<path d="M92.693,374.214c51.114,0,92.694-41.578,92.694-92.693c0-51.114-41.58-92.693-92.694-92.693
			C41.58,188.828,0,230.407,0,281.521C0,332.636,41.585,374.214,92.693,374.214z M47.962,231.918
			c1.053-1.91,3.183-3.005,5.838-3.005h11.983c4.253,0,9.107,2.76,11.292,6.42l17.467,29.364c0.116,0.184,0.214,0.318,0.293,0.41
			c0.037-0.092,0.135-0.226,0.251-0.416l17.087-29.315c2.142-3.684,6.983-6.469,11.255-6.469h11.597
			c2.663,0,4.786,1.096,5.833,2.999c1.053,1.909,0.838,4.29-0.582,6.536l-30.318,47.846c-1.377,2.18-2.589,6.354-2.589,8.93v30.117
			c0,4.846-3.941,8.787-8.788,8.787h-8.495c-4.847,0-8.788-3.941-8.788-8.787v-30.258c0-2.576-1.212-6.756-2.595-8.936
			l-30.166-47.699C47.124,236.203,46.91,233.822,47.962,231.918z"/>
		<path d="M281.52,185.388c51.115,0,92.693-41.58,92.693-92.694S332.635,0.001,281.52,0.001c-51.114,0-92.693,41.579-92.693,92.693
			S230.412,185.388,281.52,185.388z M236.042,135.773l27.595-42.13c1.071-1.634,1.077-4.621,0.012-6.267l-24.461-37.761
			c-1.444-2.24-1.683-4.614-0.643-6.524c1.041-1.909,3.164-3.005,5.826-3.005h11.928c4.229,0,9.113,2.705,11.359,6.297
			l13.807,22.124c0.19,0.3,0.355,0.453,0.441,0.526c0.037-0.073,0.189-0.227,0.379-0.533l13.482-22.056
			c2.209-3.623,7.08-6.353,11.334-6.353h11.732c2.662,0,4.785,1.095,5.832,3.005c1.041,1.909,0.82,4.29-0.617,6.53l-24.652,38.477
			c-1.053,1.646-1.021,4.627,0.061,6.254l27.516,41.427c1.482,2.228,1.738,4.596,0.717,6.512c-1.027,1.915-3.152,3.011-5.82,3.011
			h-12.668c-4.223,0-9.125-2.681-11.396-6.236l-15.783-24.627c-0.275-0.422-0.508-0.575-0.569-0.593
			c0.037,0.018-0.202,0.171-0.471,0.593l-15.851,24.639c-2.283,3.55-7.185,6.224-11.402,6.224h-12.534
			c-2.674,0-4.792-1.096-5.826-3.011C234.335,140.381,234.58,138.007,236.042,135.773z"/>
	</g>
</g>
<g>
</g>
<g>
</g>
<g>
</g>
<g>
</g>
<g>
</g>
<g>
</g>
<g>
</g>
<g>
</g>
<g>
</g>
<g>
</g>
<g>
</g>
<g>
</g>
<g>
</g>
<g>
</g>
<g>
</g>
</svg>
